{"glyphs":{"0":{"ha":896,"x_min":103,"x_max":900,"o":"m 292 -14 q 148 51 193 -14 q 103 254 103 115 q 126 460 103 358 q 190 653 149 561 q 287 824 231 746 q 408 960 343 903 q 546 1051 474 1018 q 692 1083 618 1083 q 900 808 900 1083 q 875 610 900 710 q 807 419 850 511 q 706 249 764 328 q 580 111 647 169 q 439 19 513 53 q 292 -14 365 -14 m 325 43 q 418 81 369 43 q 515 183 467 119 q 606 331 563 247 q 683 506 650 414 q 736 693 717 599 q 756 872 756 788 q 674 1025 756 1025 q 581 987 629 1025 q 485 885 532 949 q 394 736 438 821 q 317 559 350 651 q 264 372 283 467 q 244 193 244 278 q 264 79 244 115 q 325 43 283 43 z "},"1":{"ha":596,"x_min":-64,"x_max":649,"o":"m -51 32 l 113 65 l 440 908 l 436 911 l 249 867 l 238 904 q 335 937 282 917 q 438 982 388 957 q 531 1033 488 1007 q 601 1083 574 1060 l 649 1083 l 256 58 l 431 32 l 417 0 l -64 0 l -51 32 z "},"2":{"ha":843,"x_min":22,"x_max":844,"o":"m 563 126 q 631 203 603 167 q 682 283 658 239 l 726 283 l 613 0 l 22 0 q 114 208 53 114 q 249 383 175 303 q 401 531 324 463 q 542 663 478 600 q 646 787 606 726 q 686 911 686 847 q 660 989 686 960 q 585 1018 633 1018 q 409 965 497 1018 q 253 821 321 913 l 213 849 q 399 1024 300 964 q 626 1083 499 1083 q 790 1038 735 1083 q 844 904 844 992 q 806 767 844 828 q 705 650 767 706 q 565 541 643 594 q 409 426 488 488 q 260 292 331 365 q 142 126 189 219 l 563 126 z "},"3":{"ha":824,"x_min":-1,"x_max":803,"o":"m 268 542 q 428 613 356 571 q 552 702 500 654 q 633 801 604 750 q 663 903 663 853 q 632 987 663 956 q 551 1018 601 1018 q 413 968 485 1018 q 271 824 340 918 l 231 853 q 600 1083 394 1083 q 749 1040 696 1083 q 803 917 803 996 q 743 764 803 838 q 553 611 683 690 q 666 539 624 597 q 708 396 708 481 q 669 240 708 314 q 565 110 631 167 q 413 19 499 53 q 231 -14 326 -14 q 138 -4 181 -14 q 65 22 96 6 q 16 62 33 39 q -1 113 -1 85 q 20 163 -1 143 q 75 182 42 182 q 113 172 100 182 q 135 147 126 163 q 153 115 144 132 q 175 82 161 97 q 213 57 189 67 q 276 47 236 47 q 385 71 335 47 q 472 135 435 94 q 529 231 508 175 q 550 351 550 286 q 515 481 550 436 q 413 526 479 526 q 346 519 382 526 q 283 499 310 511 l 268 542 z "},"4":{"ha":772,"x_min":1,"x_max":794,"o":"m 388 307 l 1 307 l 22 374 l 653 1069 l 794 1069 l 563 414 l 701 414 l 665 307 l 526 307 l 425 0 l 279 0 l 388 307 m 425 414 l 610 938 l 604 938 l 132 414 l 425 414 z "},"5":{"ha":754,"x_min":4,"x_max":760,"o":"m 343 1051 l 693 1051 l 729 1107 l 760 1097 l 706 926 l 358 926 l 265 661 q 331 668 292 665 q 406 671 369 671 q 604 603 533 671 q 675 414 675 536 q 638 249 675 326 q 539 113 601 171 q 392 20 476 54 q 214 -14 308 -14 q 61 19 118 -14 q 4 110 4 53 q 24 162 4 142 q 76 182 43 182 q 126 161 111 182 q 156 115 142 140 q 192 68 169 89 q 263 47 214 47 q 358 72 313 47 q 439 140 404 97 q 494 238 474 182 q 514 356 514 294 q 468 492 514 446 q 331 539 422 539 q 246 533 286 539 q 176 517 206 526 l 160 531 l 343 1051 z "},"6":{"ha":803,"x_min":74,"x_max":792,"o":"m 792 1047 q 660 981 726 1022 q 533 886 594 939 q 419 772 472 833 q 326 647 365 711 l 331 643 q 412 679 367 665 q 510 693 457 693 q 735 481 735 693 q 694 300 735 389 q 589 142 654 211 q 441 29 524 72 q 274 -14 358 -14 q 74 238 74 -14 q 126 510 74 378 q 272 753 178 642 q 494 949 365 864 q 778 1083 624 1035 l 792 1047 m 307 46 q 404 88 356 46 q 492 197 453 131 q 555 342 531 263 q 579 494 579 421 q 475 632 579 632 q 375 597 422 632 q 292 503 328 563 q 236 366 257 444 q 215 199 215 288 q 236 82 215 118 q 307 46 257 46 z "},"7":{"ha":722,"x_min":193,"x_max":886,"o":"m 354 1139 l 392 1139 l 392 1069 l 872 1069 l 886 1035 q 701 761 782 886 q 557 524 619 636 q 447 308 494 411 q 365 100 400 204 q 344 44 354 67 q 322 10 333 22 q 296 -8 310 -3 q 264 -14 282 -14 q 193 60 193 -14 q 203 114 193 82 q 238 193 214 146 q 304 306 263 240 q 407 463 346 372 q 551 673 468 554 q 744 944 635 792 l 357 944 l 274 860 l 224 860 l 354 1139 z "},"8":{"ha":863,"x_min":51,"x_max":821,"o":"m 351 621 q 331 649 343 631 q 308 692 319 667 q 290 748 297 717 q 282 813 282 779 q 308 932 282 881 q 376 1017 333 983 q 472 1067 418 1050 q 583 1083 526 1083 q 758 1030 694 1083 q 821 890 821 976 q 796 790 821 833 q 733 714 771 747 q 647 656 694 681 q 557 611 600 631 l 601 557 q 669 449 639 511 q 699 319 699 388 q 669 171 699 233 q 592 67 640 108 q 483 6 544 26 q 358 -14 422 -14 q 222 7 279 -14 q 126 63 164 28 q 69 144 88 99 q 51 239 51 190 q 84 365 51 310 q 165 463 117 421 q 272 534 214 504 q 381 585 331 564 l 351 621 m 414 542 q 325 488 365 515 q 256 428 285 461 q 212 351 228 394 q 196 249 196 308 q 207 170 196 207 q 240 105 218 133 q 297 60 263 76 q 375 44 331 44 q 521 100 468 44 q 574 251 574 156 q 553 350 574 306 q 499 436 532 394 l 414 542 m 522 649 q 588 699 557 672 q 642 758 619 726 q 678 825 665 789 q 692 904 692 861 q 665 991 692 957 q 576 1025 638 1025 q 507 1014 539 1025 q 451 982 475 1003 q 415 931 428 961 q 401 865 401 901 q 413 801 401 832 q 442 744 424 771 q 481 693 460 717 q 522 649 503 669 z "},"9":{"ha":803,"x_min":113,"x_max":831,"o":"m 113 22 q 247 90 181 49 q 375 185 314 132 q 489 300 436 238 q 581 429 542 363 l 576 433 q 493 393 542 410 q 394 376 444 376 q 169 589 169 376 q 210 769 169 681 q 315 928 250 858 q 463 1040 381 997 q 631 1083 546 1083 q 831 832 831 1083 q 778 560 831 692 q 633 317 726 428 q 410 120 539 206 q 126 -14 281 35 l 113 22 m 597 1024 q 500 981 549 1024 q 413 873 451 939 q 349 728 374 807 q 325 575 325 649 q 429 438 325 438 q 529 472 482 438 q 612 566 576 507 q 668 703 647 625 q 689 871 689 782 q 668 988 689 951 q 597 1024 647 1024 z "}," ":{"ha":393,"x_min":0,"x_max":0,"o":""},"Á":{"ha":1039,"x_min":-201,"x_max":1003,"o":"m 889 1101 l 763 128 q 761 115 761 121 q 761 104 761 110 q 788 56 763 68 q 879 39 814 43 l 860 0 l 432 0 l 451 39 q 519 44 490 39 q 568 60 549 49 q 599 93 588 72 q 614 146 610 114 l 649 397 l 319 397 l 140 190 q 97 134 108 153 q 85 96 85 115 q 113 60 86 74 q 203 39 140 47 l 185 0 l -201 0 l -182 39 q -97 56 -132 46 q -34 85 -62 67 q 21 128 -6 103 q 81 193 47 154 l 724 940 l 739 1069 l 889 1101 m 714 853 l 364 449 l 656 449 l 714 853 m 682 1176 l 882 1325 q 943 1347 913 1347 q 985 1331 967 1347 q 1003 1288 1003 1314 q 983 1244 1003 1264 q 908 1208 963 1224 l 697 1147 l 682 1176 z "},"Ă":{"ha":1039,"x_min":-201,"x_max":1139,"o":"m 889 1101 l 763 128 q 761 115 761 121 q 761 104 761 110 q 788 56 763 68 q 879 39 814 43 l 860 0 l 432 0 l 451 39 q 519 44 490 39 q 568 60 549 49 q 599 93 588 72 q 614 146 610 114 l 649 397 l 319 397 l 140 190 q 97 134 108 153 q 85 96 85 115 q 113 60 86 74 q 203 39 140 47 l 185 0 l -201 0 l -182 39 q -97 56 -132 46 q -34 85 -62 67 q 21 128 -6 103 q 81 193 47 154 l 724 940 l 739 1069 l 889 1101 m 714 853 l 364 449 l 656 449 l 714 853 m 793 1347 q 822 1281 794 1304 q 903 1257 849 1257 q 994 1278 949 1257 q 1083 1347 1039 1299 l 1139 1347 q 1054 1244 1096 1282 q 976 1186 1013 1206 q 909 1160 940 1167 q 856 1154 878 1154 q 809 1160 832 1154 q 769 1180 786 1167 q 741 1215 751 1193 q 731 1269 731 1238 q 744 1347 731 1304 l 793 1347 z "},"Â":{"ha":1039,"x_min":-201,"x_max":1042,"o":"m 889 1101 l 763 128 q 761 115 761 121 q 761 104 761 110 q 788 56 763 68 q 879 39 814 43 l 860 0 l 432 0 l 451 39 q 519 44 490 39 q 568 60 549 49 q 599 93 588 72 q 614 146 610 114 l 649 397 l 319 397 l 140 190 q 97 134 108 153 q 85 96 85 115 q 113 60 86 74 q 203 39 140 47 l 185 0 l -201 0 l -182 39 q -97 56 -132 46 q -34 85 -62 67 q 21 128 -6 103 q 81 193 47 154 l 724 940 l 739 1069 l 889 1101 m 714 853 l 364 449 l 656 449 l 714 853 m 906 1347 q 942 1338 929 1347 q 967 1310 956 1329 l 1042 1176 l 1006 1153 l 879 1247 l 650 1153 l 633 1176 l 817 1310 q 860 1338 842 1328 q 906 1347 879 1347 z "},"Ä":{"ha":1039,"x_min":-201,"x_max":1060,"o":"m 889 1101 l 763 128 q 761 115 761 121 q 761 104 761 110 q 788 56 763 68 q 879 39 814 43 l 860 0 l 432 0 l 451 39 q 519 44 490 39 q 568 60 549 49 q 599 93 588 72 q 614 146 610 114 l 649 397 l 319 397 l 140 190 q 97 134 108 153 q 85 96 85 115 q 113 60 86 74 q 203 39 140 47 l 185 0 l -201 0 l -182 39 q -97 56 -132 46 q -34 85 -62 67 q 21 128 -6 103 q 81 193 47 154 l 724 940 l 739 1069 l 889 1101 m 714 853 l 364 449 l 656 449 l 714 853 m 738 1347 q 793 1328 769 1347 q 817 1279 817 1308 q 809 1247 817 1263 q 788 1219 801 1232 q 758 1200 775 1207 q 724 1193 742 1193 q 667 1213 688 1193 q 647 1264 647 1232 q 674 1322 647 1297 q 738 1347 701 1347 m 981 1347 q 1036 1328 1013 1347 q 1060 1279 1060 1308 q 1052 1247 1060 1263 q 1031 1219 1044 1232 q 1001 1200 1018 1207 q 967 1193 985 1193 q 910 1213 931 1193 q 890 1264 890 1232 q 917 1322 890 1297 q 981 1347 944 1347 z "},"À":{"ha":1039,"x_min":-201,"x_max":946,"o":"m 889 1101 l 763 128 q 761 115 761 121 q 761 104 761 110 q 788 56 763 68 q 879 39 814 43 l 860 0 l 432 0 l 451 39 q 519 44 490 39 q 568 60 549 49 q 599 93 588 72 q 614 146 610 114 l 649 397 l 319 397 l 140 190 q 97 134 108 153 q 85 96 85 115 q 113 60 86 74 q 203 39 140 47 l 185 0 l -201 0 l -182 39 q -97 56 -132 46 q -34 85 -62 67 q 21 128 -6 103 q 81 193 47 154 l 724 940 l 739 1069 l 889 1101 m 714 853 l 364 449 l 656 449 l 714 853 m 919 1147 l 696 1213 q 644 1281 644 1228 q 663 1329 644 1311 q 714 1347 682 1347 q 758 1335 738 1347 q 801 1303 778 1324 l 946 1176 l 919 1147 z "},"Ā":{"ha":1039,"x_min":-201,"x_max":1092,"o":"m 889 1101 l 763 128 q 761 115 761 121 q 761 104 761 110 q 788 56 763 68 q 879 39 814 43 l 860 0 l 432 0 l 451 39 q 519 44 490 39 q 568 60 549 49 q 599 93 588 72 q 614 146 610 114 l 649 397 l 319 397 l 140 190 q 97 134 108 153 q 85 96 85 115 q 113 60 86 74 q 203 39 140 47 l 185 0 l -201 0 l -182 39 q -97 56 -132 46 q -34 85 -62 67 q 21 128 -6 103 q 81 193 47 154 l 724 940 l 739 1069 l 889 1101 m 714 853 l 364 449 l 656 449 l 714 853 m 654 1224 l 693 1322 l 1092 1322 l 1051 1224 l 654 1224 z "},"Ą":{"ha":1039,"x_min":-201,"x_max":889,"o":"m 643 -275 q 453 -356 547 -356 q 360 -283 360 -356 q 431 -146 360 -221 q 624 0 501 -71 l 432 0 l 451 39 q 519 44 490 39 q 568 60 549 49 q 599 93 588 72 q 614 146 610 114 l 649 397 l 319 397 l 140 190 q 97 134 108 153 q 85 96 85 115 q 113 60 86 74 q 203 39 140 47 l 185 0 l -201 0 l -182 39 q -97 56 -132 46 q -34 85 -62 67 q 21 128 -6 103 q 81 193 47 154 l 724 940 l 739 1069 l 889 1101 l 763 128 q 761 115 761 121 q 761 104 761 110 q 788 56 763 68 q 879 39 814 43 l 860 0 l 685 0 q 544 -135 593 -72 q 494 -239 494 -197 q 546 -279 494 -279 q 585 -273 565 -279 q 636 -250 604 -267 l 643 -275 m 714 853 l 364 449 l 656 449 l 714 853 z "},"Å":{"ha":1039,"x_min":-201,"x_max":981,"o":"m 889 1101 l 763 128 q 761 115 761 121 q 761 104 761 110 q 788 56 763 68 q 879 39 814 43 l 860 0 l 432 0 l 451 39 q 519 44 490 39 q 568 60 549 49 q 599 93 588 72 q 614 146 610 114 l 649 397 l 319 397 l 140 190 q 97 134 108 153 q 85 96 85 115 q 113 60 86 74 q 203 39 140 47 l 185 0 l -201 0 l -182 39 q -97 56 -132 46 q -34 85 -62 67 q 21 128 -6 103 q 81 193 47 154 l 724 940 l 739 1069 l 889 1101 m 714 853 l 364 449 l 656 449 l 714 853 m 881 1347 q 951 1322 922 1347 q 981 1260 981 1296 q 971 1219 981 1239 q 944 1185 961 1200 q 906 1162 928 1171 q 860 1153 883 1153 q 793 1178 819 1153 q 767 1240 767 1203 q 800 1315 767 1283 q 881 1347 833 1347 m 876 1294 q 838 1280 854 1294 q 822 1246 822 1265 q 835 1215 822 1226 q 867 1203 847 1203 q 907 1219 889 1203 q 925 1254 925 1235 q 910 1283 925 1271 q 876 1294 896 1294 z "},"Ǻ":{"ha":1039,"x_min":-201,"x_max":1057,"o":"m 889 1101 l 763 128 q 761 115 761 121 q 761 104 761 110 q 788 56 763 68 q 879 39 814 43 l 860 0 l 432 0 l 451 39 q 519 44 490 39 q 568 60 549 49 q 599 93 588 72 q 614 146 610 114 l 649 397 l 319 397 l 140 190 q 97 134 108 153 q 85 96 85 115 q 113 60 86 74 q 203 39 140 47 l 185 0 l -201 0 l -182 39 q -97 56 -132 46 q -34 85 -62 67 q 21 128 -6 103 q 81 193 47 154 l 724 940 l 739 1069 l 889 1101 m 714 853 l 364 449 l 656 449 l 714 853 m 890 1347 q 972 1311 943 1347 q 984 1313 979 1313 q 996 1314 989 1314 q 1057 1267 1057 1314 q 1040 1233 1057 1246 q 979 1217 1024 1219 q 934 1171 964 1189 q 869 1153 904 1153 q 815 1167 838 1153 q 782 1206 793 1182 l 728 1208 l 722 1242 l 778 1260 q 817 1322 786 1296 q 890 1347 849 1347 m 886 1294 q 848 1280 864 1294 q 832 1246 832 1265 q 844 1215 832 1226 q 876 1203 857 1203 q 917 1219 899 1203 q 935 1254 935 1235 q 920 1283 935 1271 q 886 1294 906 1294 z "},"Ã":{"ha":1039,"x_min":-201,"x_max":1082,"o":"m 889 1101 l 763 128 q 761 115 761 121 q 761 104 761 110 q 788 56 763 68 q 879 39 814 43 l 860 0 l 432 0 l 451 39 q 519 44 490 39 q 568 60 549 49 q 599 93 588 72 q 614 146 610 114 l 649 397 l 319 397 l 140 190 q 97 134 108 153 q 85 96 85 115 q 113 60 86 74 q 203 39 140 47 l 185 0 l -201 0 l -182 39 q -97 56 -132 46 q -34 85 -62 67 q 21 128 -6 103 q 81 193 47 154 l 724 940 l 739 1069 l 889 1101 m 714 853 l 364 449 l 656 449 l 714 853 m 606 1185 q 672 1299 625 1256 q 771 1343 719 1343 q 819 1335 794 1343 q 867 1319 843 1328 q 915 1302 892 1310 q 963 1294 939 1294 q 1049 1347 1021 1294 l 1082 1347 q 1010 1229 1058 1275 q 911 1183 963 1183 q 863 1192 886 1183 q 817 1210 840 1200 q 770 1229 793 1221 q 722 1238 747 1238 q 635 1185 658 1238 l 606 1185 z "},"B":{"ha":993,"x_min":-87,"x_max":1006,"o":"m 338 53 q 615 129 521 53 q 710 349 710 206 q 658 494 710 449 q 499 540 606 540 l 399 540 l 254 188 q 231 103 231 131 q 255 64 231 75 q 338 53 279 53 m 551 596 q 780 663 699 596 q 861 850 861 731 q 816 973 861 933 q 682 1013 771 1013 l 597 1013 l 422 596 l 551 596 m -72 39 l 50 65 l 442 1004 l 333 1031 l 349 1069 l 682 1069 q 815 1054 756 1069 q 917 1011 875 1039 q 983 942 960 983 q 1006 851 1006 901 q 981 750 1006 799 q 915 662 957 701 q 813 594 872 622 q 686 557 754 567 l 686 551 q 815 472 769 531 q 860 325 860 413 q 828 192 860 251 q 737 89 796 132 q 595 23 678 46 q 411 0 513 0 l -87 0 l -72 39 z "},"C":{"ha":1031,"x_min":88,"x_max":1176,"o":"m 750 107 l 744 107 q 585 14 663 42 q 414 -14 507 -14 q 88 296 88 -14 q 119 491 88 394 q 205 675 150 588 q 335 837 260 763 q 497 966 410 911 q 682 1052 585 1021 q 878 1083 779 1083 q 1001 1067 944 1083 q 1096 1024 1058 1051 l 1146 1069 l 1176 1069 l 1042 750 l 1001 750 q 1022 881 1022 826 q 984 989 1022 956 q 864 1022 946 1022 q 709 994 786 1022 q 563 915 632 965 q 435 797 494 865 q 333 649 376 729 q 265 481 289 569 q 240 304 240 393 q 451 51 240 51 q 582 76 518 51 q 703 146 646 100 q 807 258 760 192 q 890 407 854 324 l 931 407 l 776 0 l 739 0 l 750 107 z "},"Æ":{"ha":1444,"x_min":-189,"x_max":1479,"o":"m 360 0 l 376 39 l 504 65 l 642 397 l 351 397 l 164 190 q 117 134 131 154 q 104 96 104 114 q 131 60 104 74 q 219 39 158 47 l 201 0 l -189 0 l -169 39 q -85 56 -119 46 q -21 85 -50 67 q 36 128 8 103 q 99 193 64 154 l 836 1011 l 729 1038 l 743 1069 l 1468 1069 l 1479 764 l 1442 764 q 1410 900 1429 839 q 1361 1014 1392 961 l 1047 1014 l 875 592 l 1108 592 q 1225 750 1176 671 l 1265 750 l 1108 369 l 1068 369 q 1084 453 1079 411 q 1092 536 1089 494 l 850 536 l 653 56 l 1101 56 q 1205 188 1158 122 q 1292 319 1251 253 l 1332 319 l 1206 0 l 360 0 m 881 975 l 875 975 l 397 449 l 663 449 l 881 975 z "},"Ć":{"ha":1031,"x_min":88,"x_max":1176,"o":"m 750 107 l 744 107 q 585 14 663 42 q 414 -14 507 -14 q 88 296 88 -14 q 119 491 88 394 q 205 675 150 588 q 335 837 260 763 q 497 966 410 911 q 682 1052 585 1021 q 878 1083 779 1083 q 1001 1067 944 1083 q 1096 1024 1058 1051 l 1146 1069 l 1176 1069 l 1042 750 l 1001 750 q 1022 881 1022 826 q 984 989 1022 956 q 864 1022 946 1022 q 709 994 786 1022 q 563 915 632 965 q 435 797 494 865 q 333 649 376 729 q 265 481 289 569 q 240 304 240 393 q 451 51 240 51 q 582 76 518 51 q 703 146 646 100 q 807 258 760 192 q 890 407 854 324 l 931 407 l 776 0 l 739 0 l 750 107 m 817 1176 l 1017 1325 q 1078 1347 1047 1347 q 1119 1331 1101 1347 q 1138 1288 1138 1314 q 1117 1244 1138 1264 q 1043 1208 1097 1224 l 832 1147 l 817 1176 z "},"Č":{"ha":1031,"x_min":88,"x_max":1186,"o":"m 750 107 l 744 107 q 585 14 663 42 q 414 -14 507 -14 q 88 296 88 -14 q 119 491 88 394 q 205 675 150 588 q 335 837 260 763 q 497 966 410 911 q 682 1052 585 1021 q 878 1083 779 1083 q 1001 1067 944 1083 q 1096 1024 1058 1051 l 1146 1069 l 1176 1069 l 1042 750 l 1001 750 q 1022 881 1022 826 q 984 989 1022 956 q 864 1022 946 1022 q 709 994 786 1022 q 563 915 632 965 q 435 797 494 865 q 333 649 376 729 q 265 481 289 569 q 240 304 240 393 q 451 51 240 51 q 582 76 518 51 q 703 146 646 100 q 807 258 760 192 q 890 407 854 324 l 931 407 l 776 0 l 739 0 l 750 107 m 914 1153 q 877 1162 890 1153 q 853 1190 864 1171 l 778 1324 l 814 1347 l 940 1253 l 1169 1347 l 1186 1324 l 1003 1190 q 959 1163 978 1172 q 914 1153 940 1153 z "},"Ç":{"ha":1031,"x_min":88,"x_max":1176,"o":"m 215 -292 q 288 -314 246 -314 q 376 -287 340 -314 q 411 -217 411 -260 q 353 -169 411 -169 q 286 -186 311 -169 l 275 -168 l 396 -14 q 88 296 88 -6 q 119 491 88 394 q 205 675 150 588 q 335 837 260 763 q 497 966 410 911 q 682 1052 585 1021 q 878 1083 779 1083 q 1001 1067 944 1083 q 1096 1024 1058 1051 l 1146 1069 l 1176 1069 l 1042 750 l 1001 750 q 1022 881 1022 826 q 984 989 1022 956 q 864 1022 946 1022 q 709 994 786 1022 q 563 915 632 965 q 435 797 494 865 q 333 649 376 729 q 265 481 289 569 q 240 304 240 393 q 451 51 240 51 q 582 76 518 51 q 703 146 646 100 q 807 258 760 192 q 890 407 854 324 l 931 407 l 776 0 l 739 0 l 750 107 l 744 107 q 602 22 671 50 q 454 -12 533 -7 l 403 -81 q 493 -106 461 -81 q 525 -178 525 -132 q 506 -246 525 -214 q 453 -303 486 -278 q 378 -342 421 -328 q 289 -357 336 -357 q 192 -324 217 -357 l 215 -292 z "},"Ĉ":{"ha":1031,"x_min":88,"x_max":1176,"o":"m 750 107 l 744 107 q 585 14 663 42 q 414 -14 507 -14 q 88 296 88 -14 q 119 491 88 394 q 205 675 150 588 q 335 837 260 763 q 497 966 410 911 q 682 1052 585 1021 q 878 1083 779 1083 q 1001 1067 944 1083 q 1096 1024 1058 1051 l 1146 1069 l 1176 1069 l 1042 750 l 1001 750 q 1022 881 1022 826 q 984 989 1022 956 q 864 1022 946 1022 q 709 994 786 1022 q 563 915 632 965 q 435 797 494 865 q 333 649 376 729 q 265 481 289 569 q 240 304 240 393 q 451 51 240 51 q 582 76 518 51 q 703 146 646 100 q 807 258 760 192 q 890 407 854 324 l 931 407 l 776 0 l 739 0 l 750 107 m 989 1347 q 1026 1338 1013 1347 q 1050 1310 1039 1329 l 1125 1176 l 1089 1153 l 963 1247 l 733 1153 l 717 1176 l 900 1310 q 944 1338 925 1328 q 989 1347 963 1347 z "},"Ċ":{"ha":1031,"x_min":88,"x_max":1176,"o":"m 750 107 l 744 107 q 585 14 663 42 q 414 -14 507 -14 q 88 296 88 -14 q 119 491 88 394 q 205 675 150 588 q 335 837 260 763 q 497 966 410 911 q 682 1052 585 1021 q 878 1083 779 1083 q 1001 1067 944 1083 q 1096 1024 1058 1051 l 1146 1069 l 1176 1069 l 1042 750 l 1001 750 q 1022 881 1022 826 q 984 989 1022 956 q 864 1022 946 1022 q 709 994 786 1022 q 563 915 632 965 q 435 797 494 865 q 333 649 376 729 q 265 481 289 569 q 240 304 240 393 q 451 51 240 51 q 582 76 518 51 q 703 146 646 100 q 807 258 760 192 q 890 407 854 324 l 931 407 l 776 0 l 739 0 l 750 107 m 986 1347 q 1049 1325 1022 1347 q 1075 1271 1075 1303 q 1066 1234 1075 1251 q 1042 1203 1057 1217 q 1009 1182 1028 1190 q 971 1174 990 1174 q 908 1195 931 1174 q 885 1253 885 1217 q 915 1319 885 1292 q 986 1347 946 1347 z "},"D":{"ha":1118,"x_min":-94,"x_max":1085,"o":"m -81 32 l 47 58 l 442 1011 l 333 1038 l 347 1069 l 633 1069 q 819 1040 736 1069 q 962 957 903 1011 q 1053 826 1021 903 q 1085 653 1085 749 q 1057 471 1085 560 q 979 305 1029 382 q 858 166 929 228 q 701 65 788 104 q 336 0 557 0 l -94 0 l -81 32 m 328 58 q 558 101 449 58 q 751 224 668 143 q 883 422 835 304 q 932 688 932 539 q 853 928 932 843 q 632 1014 775 1014 l 594 1014 l 249 179 q 231 111 231 138 q 253 70 231 82 q 328 58 275 58 z "},"Ď":{"ha":1118,"x_min":-94,"x_max":1085,"o":"m -81 32 l 47 58 l 442 1011 l 333 1038 l 347 1069 l 633 1069 q 819 1040 736 1069 q 962 957 903 1011 q 1053 826 1021 903 q 1085 653 1085 749 q 1057 471 1085 560 q 979 305 1029 382 q 858 166 929 228 q 701 65 788 104 q 336 0 557 0 l -94 0 l -81 32 m 328 58 q 558 101 449 58 q 751 224 668 143 q 883 422 835 304 q 932 688 932 539 q 853 928 932 843 q 632 1014 775 1014 l 594 1014 l 249 179 q 231 111 231 138 q 253 70 231 82 q 328 58 275 58 m 782 1153 q 745 1162 758 1153 q 721 1190 732 1171 l 646 1324 l 682 1347 l 808 1253 l 1038 1347 l 1054 1324 l 871 1190 q 827 1163 846 1172 q 782 1153 808 1153 z "},"Đ":{"ha":1122,"x_min":-90,"x_max":1089,"o":"m -76 32 l 51 58 l 243 522 l 108 522 l 133 583 l 268 583 l 446 1011 l 338 1038 l 351 1069 l 638 1069 q 824 1040 740 1069 q 966 957 907 1011 q 1057 826 1025 903 q 1089 653 1089 749 q 1061 471 1089 560 q 983 305 1033 382 q 863 166 933 228 q 706 65 792 104 q 340 0 561 0 l -90 0 l -76 32 m 332 58 q 563 101 453 58 q 756 224 672 143 q 888 422 839 304 q 936 688 936 539 q 858 928 936 843 q 636 1014 779 1014 l 599 1014 l 419 583 l 629 583 l 603 522 l 394 522 l 253 179 q 235 111 235 138 q 257 70 235 82 q 332 58 279 58 z "},"Ḍ":{"ha":1118,"x_min":-94,"x_max":1085,"o":"m -81 32 l 47 58 l 442 1011 l 333 1038 l 347 1069 l 633 1069 q 819 1040 736 1069 q 962 957 903 1011 q 1053 826 1021 903 q 1085 653 1085 749 q 1057 471 1085 560 q 979 305 1029 382 q 858 166 929 228 q 701 65 788 104 q 336 0 557 0 l -94 0 l -81 32 m 328 58 q 558 101 449 58 q 751 224 668 143 q 883 422 835 304 q 932 688 932 539 q 853 928 932 843 q 632 1014 775 1014 l 594 1014 l 249 179 q 231 111 231 138 q 253 70 231 82 q 328 58 275 58 m 268 -182 q 331 -204 304 -182 q 357 -258 357 -226 q 348 -295 357 -278 q 324 -326 339 -312 q 291 -347 310 -339 q 253 -356 272 -356 q 190 -334 213 -356 q 167 -276 167 -312 q 197 -210 167 -237 q 268 -182 228 -182 z "},"E":{"ha":990,"x_min":-94,"x_max":1025,"o":"m -94 0 l -81 32 l 47 58 l 442 1011 l 333 1038 l 347 1069 l 1014 1069 l 1025 764 l 988 764 q 956 900 975 839 q 907 1014 938 961 l 593 1014 l 421 592 l 654 592 q 771 750 722 671 l 811 750 l 654 369 l 614 369 q 630 453 625 411 q 638 536 635 494 l 396 536 l 199 56 l 647 56 q 751 188 704 122 q 838 319 797 253 l 878 319 l 751 0 l -94 0 z "},"É":{"ha":990,"x_min":-94,"x_max":1025,"o":"m -94 0 l -81 32 l 47 58 l 442 1011 l 333 1038 l 347 1069 l 1014 1069 l 1025 764 l 988 764 q 956 900 975 839 q 907 1014 938 961 l 593 1014 l 421 592 l 654 592 q 771 750 722 671 l 811 750 l 654 369 l 614 369 q 630 453 625 411 q 638 536 635 494 l 396 536 l 199 56 l 647 56 q 751 188 704 122 q 838 319 797 253 l 878 319 l 751 0 l -94 0 m 631 1176 l 831 1325 q 892 1347 861 1347 q 933 1331 915 1347 q 951 1288 951 1314 q 931 1244 951 1264 q 857 1208 911 1224 l 646 1147 l 631 1176 z "},"Ĕ":{"ha":990,"x_min":-94,"x_max":1039,"o":"m -94 0 l -81 32 l 47 58 l 442 1011 l 333 1038 l 347 1069 l 1014 1069 l 1025 764 l 988 764 q 956 900 975 839 q 907 1014 938 961 l 593 1014 l 421 592 l 654 592 q 771 750 722 671 l 811 750 l 654 369 l 614 369 q 630 453 625 411 q 638 536 635 494 l 396 536 l 199 56 l 647 56 q 751 188 704 122 q 838 319 797 253 l 878 319 l 751 0 l -94 0 m 693 1347 q 722 1281 694 1304 q 803 1257 749 1257 q 894 1278 849 1257 q 983 1347 939 1299 l 1039 1347 q 954 1244 996 1282 q 876 1186 913 1206 q 809 1160 840 1167 q 756 1154 778 1154 q 709 1160 732 1154 q 669 1180 686 1167 q 641 1215 651 1193 q 631 1269 631 1238 q 644 1347 631 1304 l 693 1347 z "},"Ě":{"ha":990,"x_min":-94,"x_max":1035,"o":"m -94 0 l -81 32 l 47 58 l 442 1011 l 333 1038 l 347 1069 l 1014 1069 l 1025 764 l 988 764 q 956 900 975 839 q 907 1014 938 961 l 593 1014 l 421 592 l 654 592 q 771 750 722 671 l 811 750 l 654 369 l 614 369 q 630 453 625 411 q 638 536 635 494 l 396 536 l 199 56 l 647 56 q 751 188 704 122 q 838 319 797 253 l 878 319 l 751 0 l -94 0 m 763 1153 q 726 1162 739 1153 q 701 1190 713 1171 l 626 1324 l 663 1347 l 789 1253 l 1018 1347 l 1035 1324 l 851 1190 q 808 1163 826 1172 q 763 1153 789 1153 z "},"Ê":{"ha":990,"x_min":-94,"x_max":1025,"o":"m -94 0 l -81 32 l 47 58 l 442 1011 l 333 1038 l 347 1069 l 1014 1069 l 1025 764 l 988 764 q 956 900 975 839 q 907 1014 938 961 l 593 1014 l 421 592 l 654 592 q 771 750 722 671 l 811 750 l 654 369 l 614 369 q 630 453 625 411 q 638 536 635 494 l 396 536 l 199 56 l 647 56 q 751 188 704 122 q 838 319 797 253 l 878 319 l 751 0 l -94 0 m 833 1347 q 870 1338 857 1347 q 894 1310 883 1329 l 969 1176 l 933 1153 l 807 1247 l 578 1153 l 561 1176 l 744 1310 q 788 1338 769 1328 q 833 1347 807 1347 z "},"Ë":{"ha":990,"x_min":-94,"x_max":1025,"o":"m -94 0 l -81 32 l 47 58 l 442 1011 l 333 1038 l 347 1069 l 1014 1069 l 1025 764 l 988 764 q 956 900 975 839 q 907 1014 938 961 l 593 1014 l 421 592 l 654 592 q 771 750 722 671 l 811 750 l 654 369 l 614 369 q 630 453 625 411 q 638 536 635 494 l 396 536 l 199 56 l 647 56 q 751 188 704 122 q 838 319 797 253 l 878 319 l 751 0 l -94 0 m 681 1347 q 736 1328 713 1347 q 760 1279 760 1308 q 752 1247 760 1263 q 731 1219 744 1232 q 701 1200 718 1207 q 667 1193 685 1193 q 610 1213 631 1193 q 590 1264 590 1232 q 617 1322 590 1297 q 681 1347 644 1347 m 924 1347 q 979 1328 956 1347 q 1003 1279 1003 1308 q 995 1247 1003 1263 q 974 1219 988 1232 q 944 1200 961 1207 q 910 1193 928 1193 q 853 1213 874 1193 q 833 1264 833 1232 q 860 1322 833 1297 q 924 1347 888 1347 z "},"Ė":{"ha":990,"x_min":-94,"x_max":1025,"o":"m -94 0 l -81 32 l 47 58 l 442 1011 l 333 1038 l 347 1069 l 1014 1069 l 1025 764 l 988 764 q 956 900 975 839 q 907 1014 938 961 l 593 1014 l 421 592 l 654 592 q 771 750 722 671 l 811 750 l 654 369 l 614 369 q 630 453 625 411 q 638 536 635 494 l 396 536 l 199 56 l 647 56 q 751 188 704 122 q 838 319 797 253 l 878 319 l 751 0 l -94 0 m 810 1347 q 872 1325 846 1347 q 899 1271 899 1303 q 890 1234 899 1251 q 866 1203 881 1217 q 833 1182 851 1190 q 794 1174 814 1174 q 731 1195 754 1174 q 708 1253 708 1217 q 739 1319 708 1292 q 810 1347 769 1347 z "},"Ẹ":{"ha":990,"x_min":-94,"x_max":1025,"o":"m -94 0 l -81 32 l 47 58 l 442 1011 l 333 1038 l 347 1069 l 1014 1069 l 1025 764 l 988 764 q 956 900 975 839 q 907 1014 938 961 l 593 1014 l 421 592 l 654 592 q 771 750 722 671 l 811 750 l 654 369 l 614 369 q 630 453 625 411 q 638 536 635 494 l 396 536 l 199 56 l 647 56 q 751 188 704 122 q 838 319 797 253 l 878 319 l 751 0 l -94 0 m 311 -182 q 374 -204 347 -182 q 400 -258 400 -226 q 391 -295 400 -278 q 367 -326 382 -312 q 334 -347 353 -339 q 296 -356 315 -356 q 233 -334 256 -356 q 210 -276 210 -312 q 240 -210 210 -237 q 311 -182 271 -182 z "},"È":{"ha":990,"x_min":-94,"x_max":1025,"o":"m -94 0 l -81 32 l 47 58 l 442 1011 l 333 1038 l 347 1069 l 1014 1069 l 1025 764 l 988 764 q 956 900 975 839 q 907 1014 938 961 l 593 1014 l 421 592 l 654 592 q 771 750 722 671 l 811 750 l 654 369 l 614 369 q 630 453 625 411 q 638 536 635 494 l 396 536 l 199 56 l 647 56 q 751 188 704 122 q 838 319 797 253 l 878 319 l 751 0 l -94 0 m 832 1147 l 608 1213 q 557 1281 557 1228 q 576 1329 557 1311 q 626 1347 594 1347 q 670 1335 650 1347 q 714 1303 690 1324 l 858 1176 l 832 1147 z "},"Ē":{"ha":990,"x_min":-94,"x_max":1025,"o":"m -94 0 l -81 32 l 47 58 l 442 1011 l 333 1038 l 347 1069 l 1014 1069 l 1025 764 l 988 764 q 956 900 975 839 q 907 1014 938 961 l 593 1014 l 421 592 l 654 592 q 771 750 722 671 l 811 750 l 654 369 l 614 369 q 630 453 625 411 q 638 536 635 494 l 396 536 l 199 56 l 647 56 q 751 188 704 122 q 838 319 797 253 l 878 319 l 751 0 l -94 0 m 571 1224 l 610 1322 l 1008 1322 l 968 1224 l 571 1224 z "},"Ŋ":{"ha":1132,"x_min":-104,"x_max":1346,"o":"m 425 -300 q 470 -288 449 -300 q 515 -246 492 -276 q 563 -165 538 -215 q 621 -37 589 -115 l 671 83 l 490 958 l 485 958 l 111 58 l 225 32 l 211 0 l -104 0 l -90 32 l 44 58 l 439 1011 l 324 1038 l 338 1069 l 632 1069 l 804 238 l 810 238 l 1131 1011 l 1015 1038 l 1029 1069 l 1346 1069 l 1332 1038 l 1199 1011 l 772 -14 q 601 -268 703 -181 q 385 -356 499 -356 q 264 -323 308 -356 q 219 -246 219 -290 q 241 -194 219 -212 q 290 -176 263 -176 q 338 -196 324 -176 q 360 -238 351 -215 q 381 -281 369 -261 q 425 -300 393 -300 z "},"Ę":{"ha":990,"x_min":-94,"x_max":1025,"o":"m 642 -275 q 451 -356 546 -356 q 358 -283 358 -356 q 418 -146 358 -221 q 599 0 478 -71 l -94 0 l -81 32 l 47 58 l 442 1011 l 333 1038 l 347 1069 l 1014 1069 l 1025 764 l 988 764 q 956 900 975 839 q 907 1014 938 961 l 593 1014 l 421 592 l 654 592 q 771 750 722 671 l 811 750 l 654 369 l 614 369 q 630 453 625 411 q 638 536 635 494 l 396 536 l 199 56 l 647 56 q 751 188 704 122 q 838 319 797 253 l 878 319 l 751 0 l 660 0 q 531 -135 569 -72 q 493 -239 493 -197 q 544 -279 493 -279 q 583 -273 564 -279 q 635 -250 603 -267 l 642 -275 z "},"Ð":{"ha":1122,"x_min":-90,"x_max":1089,"o":"m -76 32 l 51 58 l 243 522 l 108 522 l 133 583 l 268 583 l 446 1011 l 338 1038 l 351 1069 l 638 1069 q 824 1040 740 1069 q 966 957 907 1011 q 1057 826 1025 903 q 1089 653 1089 749 q 1061 471 1089 560 q 983 305 1033 382 q 863 166 933 228 q 706 65 792 104 q 340 0 561 0 l -90 0 l -76 32 m 332 58 q 563 101 453 58 q 756 224 672 143 q 888 422 839 304 q 936 688 936 539 q 858 928 936 843 q 636 1014 779 1014 l 599 1014 l 419 583 l 629 583 l 603 522 l 394 522 l 253 179 q 235 111 235 138 q 257 70 235 82 q 332 58 279 58 z "},"Ẽ":{"ha":990,"x_min":-94,"x_max":1025,"o":"m -94 0 l -81 32 l 47 58 l 442 1011 l 333 1038 l 347 1069 l 1014 1069 l 1025 764 l 988 764 q 956 900 975 839 q 907 1014 938 961 l 593 1014 l 421 592 l 654 592 q 771 750 722 671 l 811 750 l 654 369 l 614 369 q 630 453 625 411 q 638 536 635 494 l 396 536 l 199 56 l 647 56 q 751 188 704 122 q 838 319 797 253 l 878 319 l 751 0 l -94 0 m 547 1185 q 614 1299 567 1256 q 713 1343 661 1343 q 760 1335 736 1343 q 809 1319 785 1328 q 857 1302 833 1310 q 904 1294 881 1294 q 990 1347 963 1294 l 1024 1347 q 952 1229 1000 1275 q 853 1183 904 1183 q 805 1192 828 1183 q 758 1210 782 1200 q 712 1229 735 1221 q 664 1238 689 1238 q 576 1185 600 1238 l 547 1185 z "},"€":{"ha":885,"x_min":79,"x_max":982,"o":"m 190 674 l 274 674 q 371 836 315 761 q 490 966 426 911 q 624 1052 554 1021 q 767 1083 694 1083 q 852 1069 813 1083 q 920 1031 892 1056 q 965 975 949 1007 q 982 906 982 943 q 960 851 982 874 q 903 828 939 828 q 844 852 868 828 q 819 921 819 876 q 804 1003 819 982 q 749 1025 789 1025 q 671 998 711 1025 q 590 923 631 971 q 510 811 549 875 q 438 674 471 747 l 786 674 l 756 613 l 411 613 q 374 506 392 563 l 706 506 l 675 444 l 356 444 q 319 193 319 311 q 339 79 319 115 q 400 43 358 43 q 485 75 446 43 q 557 168 525 107 q 609 239 582 215 q 669 263 636 263 q 711 249 697 263 q 725 199 725 235 q 697 120 725 158 q 623 52 668 82 q 521 4 578 22 q 407 -14 464 -14 q 316 2 358 -14 q 243 51 274 18 q 195 134 213 83 q 178 254 178 185 q 197 444 178 347 l 79 444 l 110 506 l 211 506 q 247 613 225 557 l 160 613 l 190 674 z "},"F":{"ha":894,"x_min":-94,"x_max":1025,"o":"m -94 0 l -81 32 l 47 58 l 442 1011 l 333 1038 l 347 1069 l 1025 1069 l 1025 764 l 988 764 q 959 900 976 839 q 918 1014 942 961 l 593 1014 l 414 575 l 647 575 q 764 733 715 654 l 804 733 l 647 353 l 607 353 q 623 436 618 394 q 631 519 628 478 l 389 519 l 199 56 l 361 32 l 347 0 l -94 0 z "},"G":{"ha":1108,"x_min":99,"x_max":1188,"o":"m 831 478 l 715 504 l 729 536 l 1124 536 l 1110 504 l 976 478 l 813 82 q 634 10 728 35 q 453 -14 540 -14 q 191 76 283 -14 q 99 329 99 165 q 128 516 99 424 q 210 692 158 608 q 335 848 263 776 q 491 972 407 919 q 668 1053 575 1024 q 856 1083 761 1083 q 983 1065 929 1083 q 1083 1007 1038 1047 l 1154 1069 l 1188 1069 l 1051 736 l 1010 736 q 1024 804 1019 774 q 1029 863 1029 835 q 850 1022 1029 1022 q 699 996 774 1022 q 559 922 625 969 q 438 808 493 874 q 342 665 382 743 q 278 501 301 588 q 256 324 256 414 q 483 47 256 47 q 629 88 572 47 q 724 221 686 129 l 831 478 z "},"Ğ":{"ha":1108,"x_min":99,"x_max":1226,"o":"m 831 478 l 715 504 l 729 536 l 1124 536 l 1110 504 l 976 478 l 813 82 q 634 10 728 35 q 453 -14 540 -14 q 191 76 283 -14 q 99 329 99 165 q 128 516 99 424 q 210 692 158 608 q 335 848 263 776 q 491 972 407 919 q 668 1053 575 1024 q 856 1083 761 1083 q 983 1065 929 1083 q 1083 1007 1038 1047 l 1154 1069 l 1188 1069 l 1051 736 l 1010 736 q 1024 804 1019 774 q 1029 863 1029 835 q 850 1022 1029 1022 q 699 996 774 1022 q 559 922 625 969 q 438 808 493 874 q 342 665 382 743 q 278 501 301 588 q 256 324 256 414 q 483 47 256 47 q 629 88 572 47 q 724 221 686 129 l 831 478 m 881 1347 q 909 1281 882 1304 q 990 1257 936 1257 q 1081 1278 1036 1257 q 1171 1347 1126 1299 l 1226 1347 q 1142 1244 1183 1282 q 1064 1186 1100 1206 q 997 1160 1028 1167 q 943 1154 965 1154 q 897 1160 919 1154 q 856 1180 874 1167 q 828 1215 839 1193 q 818 1269 818 1238 q 832 1347 818 1304 l 881 1347 z "},"Ĝ":{"ha":1108,"x_min":99,"x_max":1188,"o":"m 831 478 l 715 504 l 729 536 l 1124 536 l 1110 504 l 976 478 l 813 82 q 634 10 728 35 q 453 -14 540 -14 q 191 76 283 -14 q 99 329 99 165 q 128 516 99 424 q 210 692 158 608 q 335 848 263 776 q 491 972 407 919 q 668 1053 575 1024 q 856 1083 761 1083 q 983 1065 929 1083 q 1083 1007 1038 1047 l 1154 1069 l 1188 1069 l 1051 736 l 1010 736 q 1024 804 1019 774 q 1029 863 1029 835 q 850 1022 1029 1022 q 699 996 774 1022 q 559 922 625 969 q 438 808 493 874 q 342 665 382 743 q 278 501 301 588 q 256 324 256 414 q 483 47 256 47 q 629 88 572 47 q 724 221 686 129 l 831 478 m 1000 1347 q 1037 1338 1024 1347 q 1061 1310 1050 1329 l 1136 1176 l 1100 1153 l 974 1247 l 744 1153 l 728 1176 l 911 1310 q 955 1338 936 1328 q 1000 1347 974 1347 z "},"Ģ":{"ha":1108,"x_min":99,"x_max":1188,"o":"m 831 478 l 715 504 l 729 536 l 1124 536 l 1110 504 l 976 478 l 813 82 q 634 10 728 35 q 453 -14 540 -14 q 191 76 283 -14 q 99 329 99 165 q 128 516 99 424 q 210 692 158 608 q 335 848 263 776 q 491 972 407 919 q 668 1053 575 1024 q 856 1083 761 1083 q 983 1065 929 1083 q 1083 1007 1038 1047 l 1154 1069 l 1188 1069 l 1051 736 l 1010 736 q 1024 804 1019 774 q 1029 863 1029 835 q 850 1022 1029 1022 q 699 996 774 1022 q 559 922 625 969 q 438 808 493 874 q 342 665 382 743 q 278 501 301 588 q 256 324 256 414 q 483 47 256 47 q 629 88 572 47 q 724 221 686 129 l 831 478 m 356 -207 q 315 -146 315 -196 q 338 -84 315 -107 q 407 -61 360 -61 q 476 -139 476 -61 q 432 -245 476 -192 q 306 -343 388 -299 l 285 -317 q 358 -268 328 -296 q 388 -224 388 -240 q 381 -214 388 -217 q 356 -207 375 -211 z "},"Ġ":{"ha":1108,"x_min":99,"x_max":1188,"o":"m 831 478 l 715 504 l 729 536 l 1124 536 l 1110 504 l 976 478 l 813 82 q 634 10 728 35 q 453 -14 540 -14 q 191 76 283 -14 q 99 329 99 165 q 128 516 99 424 q 210 692 158 608 q 335 848 263 776 q 491 972 407 919 q 668 1053 575 1024 q 856 1083 761 1083 q 983 1065 929 1083 q 1083 1007 1038 1047 l 1154 1069 l 1188 1069 l 1051 736 l 1010 736 q 1024 804 1019 774 q 1029 863 1029 835 q 850 1022 1029 1022 q 699 996 774 1022 q 559 922 625 969 q 438 808 493 874 q 342 665 382 743 q 278 501 301 588 q 256 324 256 414 q 483 47 256 47 q 629 88 572 47 q 724 221 686 129 l 831 478 m 978 1347 q 1040 1325 1014 1347 q 1067 1271 1067 1303 q 1058 1234 1067 1251 q 1034 1203 1049 1217 q 1001 1182 1019 1190 q 963 1174 982 1174 q 899 1195 922 1174 q 876 1253 876 1217 q 907 1319 876 1292 q 978 1347 938 1347 z "},"H":{"ha":1193,"x_min":-100,"x_max":1393,"o":"m 893 535 l 399 535 l 201 58 l 315 32 l 301 0 l -100 0 l -86 32 l 49 58 l 443 1011 l 328 1038 l 342 1069 l 744 1069 l 731 1038 l 597 1011 l 422 590 l 917 590 l 1092 1011 l 976 1038 l 990 1069 l 1393 1069 l 1379 1035 l 1246 1011 l 850 58 l 963 29 l 950 0 l 547 0 l 561 32 l 696 58 l 893 535 z "},"Ħ":{"ha":1194,"x_min":-99,"x_max":1394,"o":"m 894 535 l 400 535 l 203 58 l 317 32 l 303 0 l -99 0 l -85 32 l 50 58 l 342 764 l 232 764 l 257 825 l 367 825 l 444 1011 l 329 1038 l 343 1069 l 746 1069 l 732 1038 l 599 1011 l 521 825 l 1015 825 l 1093 1011 l 978 1038 l 992 1069 l 1394 1069 l 1381 1035 l 1247 1011 l 1169 825 l 1308 825 l 1282 764 l 1144 764 l 851 58 l 964 29 l 951 0 l 549 0 l 563 32 l 697 58 l 894 535 m 918 590 l 990 764 l 496 764 l 424 590 l 918 590 z "},"Ĥ":{"ha":1193,"x_min":-100,"x_max":1393,"o":"m 893 535 l 399 535 l 201 58 l 315 32 l 301 0 l -100 0 l -86 32 l 49 58 l 443 1011 l 328 1038 l 342 1069 l 744 1069 l 731 1038 l 597 1011 l 422 590 l 917 590 l 1092 1011 l 976 1038 l 990 1069 l 1393 1069 l 1379 1035 l 1246 1011 l 850 58 l 963 29 l 950 0 l 547 0 l 561 32 l 696 58 l 893 535 m 964 1347 q 1001 1338 988 1347 q 1025 1310 1014 1329 l 1100 1176 l 1064 1153 l 938 1247 l 708 1153 l 692 1176 l 875 1310 q 919 1338 900 1328 q 964 1347 938 1347 z "},"Ḥ":{"ha":1193,"x_min":-100,"x_max":1393,"o":"m 893 535 l 399 535 l 201 58 l 315 32 l 301 0 l -100 0 l -86 32 l 49 58 l 443 1011 l 328 1038 l 342 1069 l 744 1069 l 731 1038 l 597 1011 l 422 590 l 917 590 l 1092 1011 l 976 1038 l 990 1069 l 1393 1069 l 1379 1035 l 1246 1011 l 850 58 l 963 29 l 950 0 l 547 0 l 561 32 l 696 58 l 893 535 m 353 -182 q 415 -204 389 -182 q 442 -258 442 -226 q 433 -295 442 -278 q 409 -326 424 -312 q 376 -347 394 -339 q 338 -356 357 -356 q 274 -334 297 -356 q 251 -276 251 -312 q 282 -210 251 -237 q 353 -182 313 -182 z "},"I":{"ha":544,"x_min":-100,"x_max":744,"o":"m 443 1011 l 328 1038 l 342 1069 l 744 1069 l 731 1038 l 597 1011 l 201 58 l 315 32 l 301 0 l -100 0 l -86 32 l 49 58 l 443 1011 z "},"Ĳ":{"ha":1072,"x_min":-100,"x_max":1288,"o":"m 443 1011 l 328 1038 l 342 1069 l 744 1069 l 731 1038 l 597 1011 l 201 58 l 315 32 l 301 0 l -100 0 l -86 32 l 49 58 l 443 1011 m 704 -37 q 632 -170 674 -111 q 541 -270 590 -229 q 438 -333 492 -311 q 326 -356 383 -356 q 206 -323 250 -356 q 161 -246 161 -290 q 183 -194 161 -212 q 232 -176 204 -176 q 279 -196 265 -176 q 302 -238 293 -215 q 323 -281 311 -261 q 367 -300 335 -300 q 408 -287 389 -300 q 449 -244 428 -275 q 493 -163 469 -214 q 549 -37 517 -112 l 986 1011 l 871 1038 l 885 1069 l 1288 1069 l 1274 1038 l 1140 1011 l 704 -37 z "},"Í":{"ha":544,"x_min":-100,"x_max":788,"o":"m 443 1011 l 328 1038 l 342 1069 l 744 1069 l 731 1038 l 597 1011 l 201 58 l 315 32 l 301 0 l -100 0 l -86 32 l 49 58 l 443 1011 m 467 1176 l 667 1325 q 728 1347 697 1347 q 769 1331 751 1347 q 788 1288 788 1314 q 767 1244 788 1264 q 693 1208 747 1224 l 482 1147 l 467 1176 z "},"Ĭ":{"ha":544,"x_min":-100,"x_max":869,"o":"m 443 1011 l 328 1038 l 342 1069 l 744 1069 l 731 1038 l 597 1011 l 201 58 l 315 32 l 301 0 l -100 0 l -86 32 l 49 58 l 443 1011 m 524 1347 q 552 1281 525 1304 q 633 1257 579 1257 q 724 1278 679 1257 q 814 1347 769 1299 l 869 1347 q 785 1244 826 1282 q 707 1186 743 1206 q 640 1160 671 1167 q 586 1154 608 1154 q 540 1160 563 1154 q 499 1180 517 1167 q 472 1215 482 1193 q 461 1269 461 1238 q 475 1347 461 1304 l 524 1347 z "},"Î":{"ha":544,"x_min":-100,"x_max":793,"o":"m 443 1011 l 328 1038 l 342 1069 l 744 1069 l 731 1038 l 597 1011 l 201 58 l 315 32 l 301 0 l -100 0 l -86 32 l 49 58 l 443 1011 m 657 1347 q 694 1338 681 1347 q 718 1310 707 1329 l 793 1176 l 757 1153 l 631 1247 l 401 1153 l 385 1176 l 568 1310 q 612 1338 593 1328 q 657 1347 631 1347 z "},"Ï":{"ha":544,"x_min":-100,"x_max":821,"o":"m 443 1011 l 328 1038 l 342 1069 l 744 1069 l 731 1038 l 597 1011 l 201 58 l 315 32 l 301 0 l -100 0 l -86 32 l 49 58 l 443 1011 m 499 1347 q 554 1328 531 1347 q 578 1279 578 1308 q 570 1247 578 1263 q 549 1219 563 1232 q 519 1200 536 1207 q 485 1193 503 1193 q 428 1213 449 1193 q 408 1264 408 1232 q 435 1322 408 1297 q 499 1347 463 1347 m 742 1347 q 797 1328 774 1347 q 821 1279 821 1308 q 813 1247 821 1263 q 792 1219 806 1232 q 763 1200 779 1207 q 728 1193 746 1193 q 672 1213 692 1193 q 651 1264 651 1232 q 678 1322 651 1297 q 742 1347 706 1347 z "},"İ":{"ha":544,"x_min":-100,"x_max":744,"o":"m 443 1011 l 328 1038 l 342 1069 l 744 1069 l 731 1038 l 597 1011 l 201 58 l 315 32 l 301 0 l -100 0 l -86 32 l 49 58 l 443 1011 m 629 1347 q 692 1325 665 1347 q 718 1271 718 1303 q 709 1234 718 1251 q 685 1203 700 1217 q 652 1182 671 1190 q 614 1174 633 1174 q 551 1195 574 1174 q 528 1253 528 1217 q 558 1319 528 1292 q 629 1347 589 1347 z "},"Ị":{"ha":544,"x_min":-100,"x_max":744,"o":"m 443 1011 l 328 1038 l 342 1069 l 744 1069 l 731 1038 l 597 1011 l 201 58 l 315 32 l 301 0 l -100 0 l -86 32 l 49 58 l 443 1011 m 24 -182 q 86 -204 60 -182 q 113 -258 113 -226 q 103 -295 113 -278 q 80 -326 94 -312 q 47 -347 65 -339 q 8 -356 28 -356 q -55 -334 -32 -356 q -78 -276 -78 -312 q -47 -210 -78 -237 q 24 -182 -17 -182 z "},"Ì":{"ha":544,"x_min":-100,"x_max":744,"o":"m 443 1011 l 328 1038 l 342 1069 l 744 1069 l 731 1038 l 597 1011 l 201 58 l 315 32 l 301 0 l -100 0 l -86 32 l 49 58 l 443 1011 m 682 1147 l 458 1213 q 407 1281 407 1228 q 426 1329 407 1311 q 476 1347 444 1347 q 520 1335 500 1347 q 564 1303 540 1324 l 708 1176 l 682 1147 z "},"Ī":{"ha":544,"x_min":-100,"x_max":839,"o":"m 443 1011 l 328 1038 l 342 1069 l 744 1069 l 731 1038 l 597 1011 l 201 58 l 315 32 l 301 0 l -100 0 l -86 32 l 49 58 l 443 1011 m 401 1224 l 440 1322 l 839 1322 l 799 1224 l 401 1224 z "},"Į":{"ha":544,"x_min":-181,"x_max":744,"o":"m 103 -275 q -87 -356 7 -356 q -181 -283 -181 -356 q -110 -146 -181 -221 q 83 0 -39 -71 l -100 0 l -86 32 l 49 58 l 443 1011 l 328 1038 l 342 1069 l 744 1069 l 731 1038 l 597 1011 l 201 58 l 315 32 l 301 0 l 144 0 q 3 -135 53 -72 q -46 -239 -46 -197 q 6 -279 -46 -279 q 44 -273 25 -279 q 96 -250 64 -267 l 103 -275 z "},"Ĩ":{"ha":544,"x_min":-100,"x_max":864,"o":"m 443 1011 l 328 1038 l 342 1069 l 744 1069 l 731 1038 l 597 1011 l 201 58 l 315 32 l 301 0 l -100 0 l -86 32 l 49 58 l 443 1011 m 388 1185 q 454 1299 407 1256 q 553 1343 501 1343 q 601 1335 576 1343 q 649 1319 625 1328 q 697 1302 674 1310 q 744 1294 721 1294 q 831 1347 803 1294 l 864 1347 q 792 1229 840 1275 q 693 1183 744 1183 q 645 1192 668 1183 q 599 1210 622 1200 q 552 1229 575 1221 q 504 1238 529 1238 q 417 1185 440 1238 l 388 1185 z "},"J":{"ha":528,"x_min":-383,"x_max":743,"o":"m 160 -37 q 88 -170 129 -111 q -3 -270 46 -229 q -107 -333 -53 -311 q -218 -356 -161 -356 q -339 -323 -294 -356 q -383 -246 -383 -290 q -362 -194 -383 -212 q -312 -176 -340 -176 q -265 -196 -279 -176 q -242 -238 -251 -215 q -222 -281 -233 -261 q -178 -300 -210 -300 q -136 -287 -156 -300 q -96 -244 -117 -275 q -51 -163 -75 -214 q 4 -37 -28 -112 l 442 1011 l 326 1038 l 340 1069 l 743 1069 l 729 1038 l 596 1011 l 160 -37 z "},"Ĵ":{"ha":528,"x_min":-383,"x_max":771,"o":"m 160 -37 q 88 -170 129 -111 q -3 -270 46 -229 q -107 -333 -53 -311 q -218 -356 -161 -356 q -339 -323 -294 -356 q -383 -246 -383 -290 q -362 -194 -383 -212 q -312 -176 -340 -176 q -265 -196 -279 -176 q -242 -238 -251 -215 q -222 -281 -233 -261 q -178 -300 -210 -300 q -136 -287 -156 -300 q -96 -244 -117 -275 q -51 -163 -75 -214 q 4 -37 -28 -112 l 442 1011 l 326 1038 l 340 1069 l 743 1069 l 729 1038 l 596 1011 l 160 -37 m 635 1347 q 672 1338 658 1347 q 696 1310 685 1329 l 771 1176 l 735 1153 l 608 1247 l 379 1153 l 363 1176 l 546 1310 q 590 1338 571 1328 q 635 1347 608 1347 z "},"K":{"ha":1032,"x_min":-89,"x_max":1186,"o":"m 596 1013 l 410 565 l 847 910 q 910 986 910 960 q 887 1021 910 1007 q 814 1038 864 1035 l 826 1069 l 1186 1069 l 1167 1031 q 1112 1023 1136 1028 q 1067 1010 1088 1018 q 1025 988 1046 1001 q 982 957 1004 975 l 579 636 l 797 58 l 919 32 l 910 0 l 658 0 l 465 544 l 369 469 l 199 58 l 364 32 l 350 0 l -89 0 l -76 32 l 46 58 l 443 1011 l 335 1038 l 347 1069 l 722 1069 l 708 1038 l 596 1013 z "},"Ķ":{"ha":1032,"x_min":-89,"x_max":1186,"o":"m 596 1013 l 410 565 l 847 910 q 910 986 910 960 q 887 1021 910 1007 q 814 1038 864 1035 l 826 1069 l 1186 1069 l 1167 1031 q 1112 1023 1136 1028 q 1067 1010 1088 1018 q 1025 988 1046 1001 q 982 957 1004 975 l 579 636 l 797 58 l 919 32 l 910 0 l 658 0 l 465 544 l 369 469 l 199 58 l 364 32 l 350 0 l -89 0 l -76 32 l 46 58 l 443 1011 l 335 1038 l 347 1069 l 722 1069 l 708 1038 l 596 1013 m 393 -207 q 353 -146 353 -196 q 375 -84 353 -107 q 444 -61 397 -61 q 514 -139 514 -61 q 469 -245 514 -192 q 343 -343 425 -299 l 322 -317 q 395 -268 365 -296 q 425 -224 425 -240 q 419 -214 425 -217 q 393 -207 413 -211 z "},"L":{"ha":965,"x_min":-94,"x_max":885,"o":"m -94 0 l -81 32 l 47 58 l 442 1011 l 333 1038 l 347 1069 l 744 1069 l 731 1038 l 590 1007 l 199 56 l 640 56 q 747 196 697 122 q 838 336 797 269 l 885 336 l 751 0 l -94 0 z "},"Ĺ":{"ha":965,"x_min":-94,"x_max":885,"o":"m -94 0 l -81 32 l 47 58 l 442 1011 l 333 1038 l 347 1069 l 744 1069 l 731 1038 l 590 1007 l 199 56 l 640 56 q 747 196 697 122 q 838 336 797 269 l 885 336 l 751 0 l -94 0 m 486 1176 l 686 1325 q 747 1347 717 1347 q 789 1331 771 1347 q 807 1288 807 1314 q 787 1244 807 1264 q 713 1208 767 1224 l 501 1147 l 486 1176 z "},"Ľ":{"ha":965,"x_min":-94,"x_max":885,"o":"m -94 0 l -81 32 l 47 58 l 442 1011 l 333 1038 l 347 1069 l 744 1069 l 731 1038 l 590 1007 l 199 56 l 640 56 q 747 196 697 122 q 838 336 797 269 l 885 336 l 751 0 l -94 0 m 592 1153 q 555 1162 568 1153 q 531 1190 542 1171 l 456 1324 l 492 1347 l 618 1253 l 847 1347 l 864 1324 l 681 1190 q 637 1163 656 1172 q 592 1153 618 1153 z "},"Ļ":{"ha":965,"x_min":-94,"x_max":885,"o":"m -94 0 l -81 32 l 47 58 l 442 1011 l 333 1038 l 347 1069 l 744 1069 l 731 1038 l 590 1007 l 199 56 l 640 56 q 747 196 697 122 q 838 336 797 269 l 885 336 l 751 0 l -94 0 m 307 -207 q 267 -146 267 -196 q 289 -84 267 -107 q 358 -61 311 -61 q 428 -139 428 -61 q 383 -245 428 -192 q 257 -343 339 -299 l 236 -317 q 309 -268 279 -296 q 339 -224 339 -240 q 333 -214 339 -217 q 307 -207 326 -211 z "},"Ŀ":{"ha":965,"x_min":-94,"x_max":885,"o":"m -94 0 l -81 32 l 47 58 l 442 1011 l 333 1038 l 347 1069 l 744 1069 l 731 1038 l 590 1007 l 199 56 l 640 56 q 747 196 697 122 q 838 336 797 269 l 885 336 l 751 0 l -94 0 m 642 590 q 704 568 678 590 q 731 514 731 546 q 722 477 731 494 q 698 447 713 460 q 665 425 683 433 q 626 417 646 417 q 563 438 586 417 q 540 496 540 460 q 571 563 540 535 q 642 590 601 590 z "},"Ł":{"ha":968,"x_min":-92,"x_max":888,"o":"m -92 0 l -78 32 l 50 58 l 214 453 l 60 381 l 60 447 l 249 536 l 444 1011 l 336 1038 l 350 1069 l 747 1069 l 733 1038 l 593 1007 l 436 625 l 610 708 l 607 640 l 401 543 l 201 56 l 643 56 q 750 196 700 122 q 840 336 800 269 l 888 336 l 754 0 l -92 0 z "},"M":{"ha":1381,"x_min":-139,"x_max":1581,"o":"m -125 32 l 10 58 l 497 1011 l 372 1038 l 385 1069 l 710 1069 l 610 235 l 615 235 l 1256 1069 l 1581 1069 l 1568 1038 l 1433 1011 l 1038 58 l 1151 32 l 1138 0 l 743 0 l 757 32 l 892 58 l 1279 986 l 1274 986 l 499 -14 l 425 -14 l 546 958 l 540 958 l 76 58 l 190 32 l 176 0 l -139 0 l -125 32 z "},"N":{"ha":1132,"x_min":-104,"x_max":1346,"o":"m 490 958 l 485 958 l 111 58 l 225 32 l 211 0 l -104 0 l -90 32 l 44 58 l 439 1011 l 324 1038 l 338 1069 l 632 1069 l 804 238 l 810 238 l 1131 1011 l 1015 1038 l 1029 1069 l 1346 1069 l 1332 1038 l 1199 1011 l 772 -14 l 692 -14 l 490 958 z "},"A":{"ha":1039,"x_min":-201,"x_max":889,"o":"m 889 1101 l 763 128 q 761 115 761 121 q 761 104 761 110 q 788 56 763 68 q 879 39 814 43 l 860 0 l 432 0 l 451 39 q 519 44 490 39 q 568 60 549 49 q 599 93 588 72 q 614 146 610 114 l 649 397 l 319 397 l 140 190 q 97 134 108 153 q 85 96 85 115 q 113 60 86 74 q 203 39 140 47 l 185 0 l -201 0 l -182 39 q -97 56 -132 46 q -34 85 -62 67 q 21 128 -6 103 q 81 193 47 154 l 724 940 l 739 1069 l 889 1101 m 714 853 l 364 449 l 656 449 l 714 853 z "},"Ń":{"ha":1132,"x_min":-104,"x_max":1346,"o":"m 490 958 l 485 958 l 111 58 l 225 32 l 211 0 l -104 0 l -90 32 l 44 58 l 439 1011 l 324 1038 l 338 1069 l 632 1069 l 804 238 l 810 238 l 1131 1011 l 1015 1038 l 1029 1069 l 1346 1069 l 1332 1038 l 1199 1011 l 772 -14 l 692 -14 l 490 958 m 756 1176 l 956 1325 q 1017 1347 986 1347 q 1058 1331 1040 1347 q 1076 1288 1076 1314 q 1056 1244 1076 1264 q 982 1208 1036 1224 l 771 1147 l 756 1176 z "},"Ň":{"ha":1132,"x_min":-104,"x_max":1346,"o":"m 490 958 l 485 958 l 111 58 l 225 32 l 211 0 l -104 0 l -90 32 l 44 58 l 439 1011 l 324 1038 l 338 1069 l 632 1069 l 804 238 l 810 238 l 1131 1011 l 1015 1038 l 1029 1069 l 1346 1069 l 1332 1038 l 1199 1011 l 772 -14 l 692 -14 l 490 958 m 850 1153 q 813 1162 826 1153 q 789 1190 800 1171 l 714 1324 l 750 1347 l 876 1253 l 1106 1347 l 1122 1324 l 939 1190 q 895 1163 914 1172 q 850 1153 876 1153 z "},"Ņ":{"ha":1132,"x_min":-104,"x_max":1346,"o":"m 490 958 l 485 958 l 111 58 l 225 32 l 211 0 l -104 0 l -90 32 l 44 58 l 439 1011 l 324 1038 l 338 1069 l 632 1069 l 804 238 l 810 238 l 1131 1011 l 1015 1038 l 1029 1069 l 1346 1069 l 1332 1038 l 1199 1011 l 772 -14 l 692 -14 l 490 958 m 357 -221 q 317 -160 317 -210 q 339 -98 317 -121 q 408 -75 361 -75 q 478 -153 478 -75 q 433 -259 478 -206 q 307 -357 389 -312 l 286 -331 q 359 -282 329 -310 q 389 -237 389 -254 q 383 -228 389 -231 q 357 -221 376 -225 z "},"Ṅ":{"ha":1132,"x_min":-104,"x_max":1346,"o":"m 490 958 l 485 958 l 111 58 l 225 32 l 211 0 l -104 0 l -90 32 l 44 58 l 439 1011 l 324 1038 l 338 1069 l 632 1069 l 804 238 l 810 238 l 1131 1011 l 1015 1038 l 1029 1069 l 1346 1069 l 1332 1038 l 1199 1011 l 772 -14 l 692 -14 l 490 958 m 903 1347 q 965 1325 939 1347 q 992 1271 992 1303 q 983 1234 992 1251 q 959 1203 974 1217 q 926 1182 944 1190 q 888 1174 907 1174 q 824 1195 847 1174 q 801 1253 801 1217 q 832 1319 801 1292 q 903 1347 863 1347 z "},"Ñ":{"ha":1132,"x_min":-104,"x_max":1346,"o":"m 490 958 l 485 958 l 111 58 l 225 32 l 211 0 l -104 0 l -90 32 l 44 58 l 439 1011 l 324 1038 l 338 1069 l 632 1069 l 804 238 l 810 238 l 1131 1011 l 1015 1038 l 1029 1069 l 1346 1069 l 1332 1038 l 1199 1011 l 772 -14 l 692 -14 l 490 958 m 675 1185 q 742 1299 694 1256 q 840 1343 789 1343 q 888 1335 864 1343 q 937 1319 913 1328 q 985 1302 961 1310 q 1032 1294 1008 1294 q 1118 1347 1090 1294 l 1151 1347 q 1080 1229 1128 1275 q 981 1183 1032 1183 q 933 1192 956 1183 q 886 1210 910 1200 q 840 1229 863 1221 q 792 1238 817 1238 q 704 1185 728 1238 l 675 1185 z "},"O":{"ha":1117,"x_min":104,"x_max":1113,"o":"m 422 -14 q 188 75 271 -14 q 104 328 104 164 q 131 515 104 422 q 206 691 158 607 q 319 847 254 775 q 461 972 385 919 q 622 1053 538 1024 q 793 1083 707 1083 q 1029 993 946 1083 q 1113 738 1113 903 q 1085 551 1113 643 q 1010 375 1058 458 q 897 220 963 292 q 756 97 832 149 q 594 15 679 44 q 422 -14 508 -14 m 443 51 q 569 81 507 51 q 690 161 632 110 q 797 283 747 213 q 881 434 846 353 q 938 605 917 515 q 958 785 958 694 q 785 1022 958 1022 q 658 993 721 1022 q 537 913 594 964 q 430 791 479 861 q 344 640 381 721 q 286 469 307 558 q 265 292 265 381 q 443 51 265 51 z "},"Œ":{"ha":1558,"x_min":101,"x_max":1593,"o":"m 1582 1069 l 1593 764 l 1556 764 q 1522 905 1540 844 q 1475 1014 1503 965 l 1161 1014 l 989 592 l 1222 592 q 1339 750 1290 671 l 1379 750 l 1222 369 l 1182 369 q 1198 444 1193 404 q 1206 536 1203 483 l 964 536 l 767 56 l 1215 56 q 1315 183 1268 118 q 1406 319 1363 249 l 1446 319 l 1319 0 l 579 0 q 446 -14 514 -14 q 192 76 282 -14 q 101 331 101 167 q 131 521 101 428 q 211 697 160 614 q 333 851 263 781 q 488 974 404 922 q 664 1054 571 1025 q 854 1083 757 1083 q 919 1080 890 1083 q 976 1069 949 1076 l 1582 1069 m 810 1022 q 612 958 710 1022 q 436 791 514 894 q 310 558 358 688 q 263 294 263 428 q 464 51 263 51 q 603 90 543 51 l 978 942 q 810 1022 926 1022 z "},"Ó":{"ha":1117,"x_min":104,"x_max":1113,"o":"m 422 -14 q 188 75 271 -14 q 104 328 104 164 q 131 515 104 422 q 206 691 158 607 q 319 847 254 775 q 461 972 385 919 q 622 1053 538 1024 q 793 1083 707 1083 q 1029 993 946 1083 q 1113 738 1113 903 q 1085 551 1113 643 q 1010 375 1058 458 q 897 220 963 292 q 756 97 832 149 q 594 15 679 44 q 422 -14 508 -14 m 443 51 q 569 81 507 51 q 690 161 632 110 q 797 283 747 213 q 881 434 846 353 q 938 605 917 515 q 958 785 958 694 q 785 1022 958 1022 q 658 993 721 1022 q 537 913 594 964 q 430 791 479 861 q 344 640 381 721 q 286 469 307 558 q 265 292 265 381 q 443 51 265 51 m 771 1176 l 971 1325 q 1032 1347 1001 1347 q 1074 1331 1056 1347 q 1092 1288 1092 1314 q 1072 1244 1092 1264 q 997 1208 1051 1224 l 786 1147 l 771 1176 z "},"Ŏ":{"ha":1117,"x_min":104,"x_max":1182,"o":"m 422 -14 q 188 75 271 -14 q 104 328 104 164 q 131 515 104 422 q 206 691 158 607 q 319 847 254 775 q 461 972 385 919 q 622 1053 538 1024 q 793 1083 707 1083 q 1029 993 946 1083 q 1113 738 1113 903 q 1085 551 1113 643 q 1010 375 1058 458 q 897 220 963 292 q 756 97 832 149 q 594 15 679 44 q 422 -14 508 -14 m 443 51 q 569 81 507 51 q 690 161 632 110 q 797 283 747 213 q 881 434 846 353 q 938 605 917 515 q 958 785 958 694 q 785 1022 958 1022 q 658 993 721 1022 q 537 913 594 964 q 430 791 479 861 q 344 640 381 721 q 286 469 307 558 q 265 292 265 381 q 443 51 265 51 m 836 1347 q 865 1281 838 1304 q 946 1257 892 1257 q 1037 1278 992 1257 q 1126 1347 1082 1299 l 1182 1347 q 1097 1244 1139 1282 q 1019 1186 1056 1206 q 952 1160 983 1167 q 899 1154 921 1154 q 852 1160 875 1154 q 812 1180 829 1167 q 784 1215 794 1193 q 774 1269 774 1238 q 788 1347 774 1304 l 836 1347 z "},"Ô":{"ha":1117,"x_min":104,"x_max":1113,"o":"m 422 -14 q 188 75 271 -14 q 104 328 104 164 q 131 515 104 422 q 206 691 158 607 q 319 847 254 775 q 461 972 385 919 q 622 1053 538 1024 q 793 1083 707 1083 q 1029 993 946 1083 q 1113 738 1113 903 q 1085 551 1113 643 q 1010 375 1058 458 q 897 220 963 292 q 756 97 832 149 q 594 15 679 44 q 422 -14 508 -14 m 443 51 q 569 81 507 51 q 690 161 632 110 q 797 283 747 213 q 881 434 846 353 q 938 605 917 515 q 958 785 958 694 q 785 1022 958 1022 q 658 993 721 1022 q 537 913 594 964 q 430 791 479 861 q 344 640 381 721 q 286 469 307 558 q 265 292 265 381 q 443 51 265 51 m 932 1347 q 969 1338 956 1347 q 993 1310 982 1329 l 1068 1176 l 1032 1153 l 906 1247 l 676 1153 l 660 1176 l 843 1310 q 887 1338 868 1328 q 932 1347 906 1347 z "},"Ö":{"ha":1117,"x_min":104,"x_max":1119,"o":"m 422 -14 q 188 75 271 -14 q 104 328 104 164 q 131 515 104 422 q 206 691 158 607 q 319 847 254 775 q 461 972 385 919 q 622 1053 538 1024 q 793 1083 707 1083 q 1029 993 946 1083 q 1113 738 1113 903 q 1085 551 1113 643 q 1010 375 1058 458 q 897 220 963 292 q 756 97 832 149 q 594 15 679 44 q 422 -14 508 -14 m 443 51 q 569 81 507 51 q 690 161 632 110 q 797 283 747 213 q 881 434 846 353 q 938 605 917 515 q 958 785 958 694 q 785 1022 958 1022 q 658 993 721 1022 q 537 913 594 964 q 430 791 479 861 q 344 640 381 721 q 286 469 307 558 q 265 292 265 381 q 443 51 265 51 m 797 1347 q 853 1328 829 1347 q 876 1279 876 1308 q 869 1247 876 1263 q 848 1219 861 1232 q 818 1200 835 1207 q 783 1193 801 1193 q 727 1213 747 1193 q 707 1264 707 1232 q 734 1322 707 1297 q 797 1347 761 1347 m 1040 1347 q 1096 1328 1072 1347 q 1119 1279 1119 1308 q 1112 1247 1119 1263 q 1091 1219 1104 1232 q 1061 1200 1078 1207 q 1026 1193 1044 1193 q 970 1213 990 1193 q 950 1264 950 1232 q 977 1322 950 1297 q 1040 1347 1004 1347 z "},"Ọ":{"ha":1117,"x_min":104,"x_max":1113,"o":"m 422 -14 q 188 75 271 -14 q 104 328 104 164 q 131 515 104 422 q 206 691 158 607 q 319 847 254 775 q 461 972 385 919 q 622 1053 538 1024 q 793 1083 707 1083 q 1029 993 946 1083 q 1113 738 1113 903 q 1085 551 1113 643 q 1010 375 1058 458 q 897 220 963 292 q 756 97 832 149 q 594 15 679 44 q 422 -14 508 -14 m 443 51 q 569 81 507 51 q 690 161 632 110 q 797 283 747 213 q 881 434 846 353 q 938 605 917 515 q 958 785 958 694 q 785 1022 958 1022 q 658 993 721 1022 q 537 913 594 964 q 430 791 479 861 q 344 640 381 721 q 286 469 307 558 q 265 292 265 381 q 443 51 265 51 m 317 -182 q 379 -204 353 -182 q 406 -258 406 -226 q 397 -295 406 -278 q 373 -326 388 -312 q 340 -347 358 -339 q 301 -356 321 -356 q 238 -334 261 -356 q 215 -276 215 -312 q 246 -210 215 -237 q 317 -182 276 -182 z "},"Ò":{"ha":1117,"x_min":104,"x_max":1113,"o":"m 422 -14 q 188 75 271 -14 q 104 328 104 164 q 131 515 104 422 q 206 691 158 607 q 319 847 254 775 q 461 972 385 919 q 622 1053 538 1024 q 793 1083 707 1083 q 1029 993 946 1083 q 1113 738 1113 903 q 1085 551 1113 643 q 1010 375 1058 458 q 897 220 963 292 q 756 97 832 149 q 594 15 679 44 q 422 -14 508 -14 m 443 51 q 569 81 507 51 q 690 161 632 110 q 797 283 747 213 q 881 434 846 353 q 938 605 917 515 q 958 785 958 694 q 785 1022 958 1022 q 658 993 721 1022 q 537 913 594 964 q 430 791 479 861 q 344 640 381 721 q 286 469 307 558 q 265 292 265 381 q 443 51 265 51 m 986 1147 l 763 1213 q 711 1281 711 1228 q 730 1329 711 1311 q 781 1347 749 1347 q 824 1335 804 1347 q 868 1303 844 1324 l 1013 1176 l 986 1147 z "},"Ő":{"ha":1117,"x_min":104,"x_max":1250,"o":"m 422 -14 q 188 75 271 -14 q 104 328 104 164 q 131 515 104 422 q 206 691 158 607 q 319 847 254 775 q 461 972 385 919 q 622 1053 538 1024 q 793 1083 707 1083 q 1029 993 946 1083 q 1113 738 1113 903 q 1085 551 1113 643 q 1010 375 1058 458 q 897 220 963 292 q 756 97 832 149 q 594 15 679 44 q 422 -14 508 -14 m 443 51 q 569 81 507 51 q 690 161 632 110 q 797 283 747 213 q 881 434 846 353 q 938 605 917 515 q 958 785 958 694 q 785 1022 958 1022 q 658 993 721 1022 q 537 913 594 964 q 430 791 479 861 q 344 640 381 721 q 286 469 307 558 q 265 292 265 381 q 443 51 265 51 m 929 1176 l 1131 1322 q 1160 1340 1146 1333 q 1190 1346 1175 1346 q 1232 1328 1214 1346 q 1250 1282 1250 1310 q 1230 1240 1250 1258 q 1154 1206 1210 1221 l 943 1147 l 929 1176 m 653 1178 l 854 1324 q 884 1341 869 1335 q 914 1347 899 1347 q 956 1329 938 1347 q 975 1286 975 1311 q 955 1242 975 1263 q 879 1207 935 1222 l 667 1149 l 653 1178 z "},"Ō":{"ha":1117,"x_min":104,"x_max":1113,"o":"m 422 -14 q 188 75 271 -14 q 104 328 104 164 q 131 515 104 422 q 206 691 158 607 q 319 847 254 775 q 461 972 385 919 q 622 1053 538 1024 q 793 1083 707 1083 q 1029 993 946 1083 q 1113 738 1113 903 q 1085 551 1113 643 q 1010 375 1058 458 q 897 220 963 292 q 756 97 832 149 q 594 15 679 44 q 422 -14 508 -14 m 443 51 q 569 81 507 51 q 690 161 632 110 q 797 283 747 213 q 881 434 846 353 q 938 605 917 515 q 958 785 958 694 q 785 1022 958 1022 q 658 993 721 1022 q 537 913 594 964 q 430 791 479 861 q 344 640 381 721 q 286 469 307 558 q 265 292 265 381 q 443 51 265 51 m 654 1224 l 693 1322 l 1092 1322 l 1051 1224 l 654 1224 z "},"Ǫ":{"ha":1118,"x_min":104,"x_max":1113,"o":"m 407 -275 q 217 -356 311 -356 q 124 -283 124 -356 q 190 -151 124 -224 q 368 -11 256 -79 q 173 92 242 4 q 104 328 104 179 q 131 515 104 422 q 206 691 158 607 q 319 847 254 775 q 461 972 385 919 q 622 1053 538 1024 q 793 1083 707 1083 q 1029 993 946 1083 q 1113 738 1113 903 q 1086 553 1113 644 q 1013 378 1060 461 q 901 224 965 294 q 760 101 836 153 q 601 18 685 49 q 432 -14 518 -12 q 303 -140 349 -82 q 258 -239 258 -199 q 310 -279 258 -279 q 349 -273 329 -279 q 400 -250 368 -267 l 407 -275 m 443 51 q 569 81 507 51 q 690 161 632 110 q 797 283 747 213 q 881 434 846 353 q 938 605 917 515 q 958 785 958 694 q 785 1022 958 1022 q 658 993 721 1022 q 537 913 594 964 q 430 791 479 861 q 344 640 381 721 q 286 469 307 558 q 265 292 265 381 q 443 51 265 51 z "},"Ø":{"ha":1117,"x_min":44,"x_max":1199,"o":"m 422 -14 q 196 67 279 -14 l 129 0 l 44 0 l 158 114 q 104 328 104 194 q 131 515 104 422 q 206 691 158 607 q 319 847 254 775 q 461 972 385 919 q 622 1053 538 1024 q 793 1083 707 1083 q 1032 989 946 1083 l 1111 1069 l 1199 1069 l 1067 938 q 1101 847 1089 897 q 1113 738 1113 797 q 1085 551 1113 643 q 1010 375 1058 458 q 897 220 963 292 q 756 97 832 149 q 594 15 679 44 q 422 -14 508 -14 m 785 1022 q 658 993 721 1022 q 537 913 594 964 q 430 791 479 861 q 344 640 381 721 q 286 469 307 558 q 265 292 265 381 q 269 225 265 254 l 944 901 q 785 1022 908 1022 m 443 51 q 569 81 507 51 q 690 161 632 110 q 797 283 747 213 q 881 434 846 353 q 938 605 917 515 q 958 785 958 694 q 958 806 958 796 q 957 828 957 817 l 285 156 q 443 51 321 51 z "},"Ǿ":{"ha":1117,"x_min":44,"x_max":1199,"o":"m 44 0 l 158 114 q 104 328 104 194 q 131 515 104 422 q 206 691 158 607 q 319 847 254 775 q 461 972 385 919 q 622 1053 538 1024 q 793 1083 707 1083 q 1032 989 946 1083 l 1111 1069 l 1199 1069 l 1067 938 q 1101 847 1089 897 q 1113 738 1113 797 q 1085 551 1113 643 q 1010 375 1058 458 q 897 220 963 292 q 756 97 832 149 q 594 15 679 44 q 422 -14 508 -14 q 196 67 279 -14 l 129 0 l 44 0 m 265 292 q 269 225 265 254 l 944 901 q 785 1022 908 1022 q 658 993 721 1022 q 537 913 594 964 q 430 791 479 861 q 344 640 381 721 q 286 469 307 558 q 265 292 265 381 m 443 51 q 569 81 507 51 q 690 161 632 110 q 797 283 747 213 q 881 434 846 353 q 938 605 917 515 q 958 785 958 694 q 958 806 958 796 q 957 828 957 817 l 285 156 q 443 51 321 51 m 840 1176 l 1040 1325 q 1101 1347 1071 1347 q 1143 1331 1125 1347 q 1161 1288 1161 1314 q 1141 1244 1161 1264 q 1067 1208 1121 1224 l 856 1147 l 840 1176 z "},"Õ":{"ha":1117,"x_min":104,"x_max":1136,"o":"m 422 -14 q 188 75 271 -14 q 104 328 104 164 q 131 515 104 422 q 206 691 158 607 q 319 847 254 775 q 461 972 385 919 q 622 1053 538 1024 q 793 1083 707 1083 q 1029 993 946 1083 q 1113 738 1113 903 q 1085 551 1113 643 q 1010 375 1058 458 q 897 220 963 292 q 756 97 832 149 q 594 15 679 44 q 422 -14 508 -14 m 443 51 q 569 81 507 51 q 690 161 632 110 q 797 283 747 213 q 881 434 846 353 q 938 605 917 515 q 958 785 958 694 q 785 1022 958 1022 q 658 993 721 1022 q 537 913 594 964 q 430 791 479 861 q 344 640 381 721 q 286 469 307 558 q 265 292 265 381 q 443 51 265 51 m 660 1185 q 726 1299 679 1256 q 825 1343 774 1343 q 873 1335 849 1343 q 922 1319 897 1328 q 969 1302 946 1310 q 1017 1294 993 1294 q 1103 1347 1075 1294 l 1136 1347 q 1065 1229 1113 1275 q 965 1183 1017 1183 q 917 1192 940 1183 q 871 1210 894 1200 q 824 1229 847 1221 q 776 1238 801 1238 q 689 1185 713 1238 l 660 1185 z "},"P":{"ha":907,"x_min":-89,"x_max":1000,"o":"m 368 474 l 199 58 l 364 32 l 350 0 l -89 0 l -76 32 l 46 58 l 443 1011 l 335 1038 l 347 1069 l 681 1069 q 916 1006 832 1069 q 1000 825 1000 942 q 965 681 1000 746 q 864 570 929 617 q 707 499 799 524 q 504 474 615 474 l 368 474 m 524 535 q 653 559 592 535 q 758 626 714 583 q 829 724 803 668 q 856 844 856 781 q 811 969 856 926 q 681 1013 767 1013 l 596 1013 l 394 535 l 524 535 z "},"Q":{"ha":1117,"x_min":17,"x_max":1114,"o":"m 375 -11 q 176 90 247 4 q 106 329 106 176 q 133 516 106 424 q 208 692 160 608 q 321 848 256 776 q 463 972 386 919 q 625 1053 540 1024 q 797 1083 710 1083 q 1031 993 949 1083 q 1114 736 1114 903 q 1071 503 1114 615 q 956 295 1028 390 q 789 126 883 200 q 590 11 694 53 l 264 -121 q 346 -163 303 -150 q 451 -176 389 -176 q 610 -151 543 -176 q 706 -87 678 -126 l 753 -87 q 724 -150 746 -111 q 665 -226 703 -189 q 573 -289 626 -262 q 451 -315 519 -315 q 349 -293 388 -315 q 280 -245 310 -271 q 222 -197 250 -219 q 150 -175 193 -175 q 125 -180 131 -175 q 119 -194 119 -185 q 122 -212 119 -203 q 125 -231 125 -221 q 109 -265 125 -250 q 69 -279 93 -279 q 29 -261 42 -279 q 17 -221 17 -243 q 40 -167 17 -189 q 110 -125 63 -144 l 375 -17 l 375 -11 m 442 51 q 569 81 506 51 q 690 161 632 110 q 797 282 747 213 q 882 433 846 351 q 939 603 918 514 q 960 781 960 692 q 917 963 960 904 q 788 1022 875 1022 q 660 993 724 1022 q 539 913 597 964 q 431 791 481 861 q 345 640 382 721 q 288 472 308 560 q 267 294 267 383 q 442 51 267 51 z "},"R":{"ha":1028,"x_min":-89,"x_max":996,"o":"m 375 492 l 199 58 l 364 32 l 350 0 l -89 0 l -76 32 l 46 58 l 443 1011 l 335 1038 l 347 1069 l 681 1069 q 919 1011 843 1069 q 996 843 996 953 q 969 717 996 775 q 895 615 943 660 q 778 541 847 571 q 625 499 710 511 l 783 58 l 933 32 l 924 0 l 644 0 l 482 492 l 375 492 m 531 553 q 656 576 597 553 q 760 640 715 600 q 830 732 804 679 q 856 844 856 785 q 811 969 856 926 q 681 1013 767 1013 l 596 1013 l 401 553 l 531 553 z "},"Ŕ":{"ha":1028,"x_min":-89,"x_max":996,"o":"m 375 492 l 199 58 l 364 32 l 350 0 l -89 0 l -76 32 l 46 58 l 443 1011 l 335 1038 l 347 1069 l 681 1069 q 919 1011 843 1069 q 996 843 996 953 q 969 717 996 775 q 895 615 943 660 q 778 541 847 571 q 625 499 710 511 l 783 58 l 933 32 l 924 0 l 644 0 l 482 492 l 375 492 m 531 553 q 656 576 597 553 q 760 640 715 600 q 830 732 804 679 q 856 844 856 785 q 811 969 856 926 q 681 1013 767 1013 l 596 1013 l 401 553 l 531 553 m 667 1176 l 867 1325 q 928 1347 897 1347 q 969 1331 951 1347 q 988 1288 988 1314 q 967 1244 988 1264 q 893 1208 947 1224 l 682 1147 l 667 1176 z "},"Ř":{"ha":1028,"x_min":-89,"x_max":1013,"o":"m 375 492 l 199 58 l 364 32 l 350 0 l -89 0 l -76 32 l 46 58 l 443 1011 l 335 1038 l 347 1069 l 681 1069 q 919 1011 843 1069 q 996 843 996 953 q 969 717 996 775 q 895 615 943 660 q 778 541 847 571 q 625 499 710 511 l 783 58 l 933 32 l 924 0 l 644 0 l 482 492 l 375 492 m 531 553 q 656 576 597 553 q 760 640 715 600 q 830 732 804 679 q 856 844 856 785 q 811 969 856 926 q 681 1013 767 1013 l 596 1013 l 401 553 l 531 553 m 740 1153 q 703 1162 717 1153 q 679 1190 690 1171 l 604 1324 l 640 1347 l 767 1253 l 996 1347 l 1013 1324 l 829 1190 q 785 1163 804 1172 q 740 1153 767 1153 z "},"Ŗ":{"ha":1028,"x_min":-89,"x_max":996,"o":"m 375 492 l 199 58 l 364 32 l 350 0 l -89 0 l -76 32 l 46 58 l 443 1011 l 335 1038 l 347 1069 l 681 1069 q 919 1011 843 1069 q 996 843 996 953 q 969 717 996 775 q 895 615 943 660 q 778 541 847 571 q 625 499 710 511 l 783 58 l 933 32 l 924 0 l 644 0 l 482 492 l 375 492 m 531 553 q 656 576 597 553 q 760 640 715 600 q 830 732 804 679 q 856 844 856 785 q 811 969 856 926 q 681 1013 767 1013 l 596 1013 l 401 553 l 531 553 m 357 -221 q 317 -160 317 -210 q 339 -98 317 -121 q 408 -75 361 -75 q 478 -153 478 -75 q 433 -259 478 -206 q 307 -357 389 -312 l 286 -331 q 359 -282 329 -310 q 389 -237 389 -254 q 383 -228 389 -231 q 357 -221 376 -225 z "},"Ṛ":{"ha":1028,"x_min":-89,"x_max":996,"o":"m 375 492 l 199 58 l 364 32 l 350 0 l -89 0 l -76 32 l 46 58 l 443 1011 l 335 1038 l 347 1069 l 681 1069 q 919 1011 843 1069 q 996 843 996 953 q 969 717 996 775 q 895 615 943 660 q 778 541 847 571 q 625 499 710 511 l 783 58 l 933 32 l 924 0 l 644 0 l 482 492 l 375 492 m 531 553 q 656 576 597 553 q 760 640 715 600 q 830 732 804 679 q 856 844 856 785 q 811 969 856 926 q 681 1013 767 1013 l 596 1013 l 401 553 l 531 553 m 343 -182 q 406 -204 379 -182 q 432 -258 432 -226 q 423 -295 432 -278 q 399 -326 414 -312 q 366 -347 385 -339 q 328 -356 347 -356 q 265 -334 288 -356 q 242 -276 242 -312 q 272 -210 242 -237 q 343 -182 303 -182 z "},"S":{"ha":818,"x_min":-51,"x_max":938,"o":"m 96 363 l 136 363 q 118 229 118 290 q 308 42 118 42 q 476 96 415 42 q 536 246 536 150 q 517 344 536 301 q 468 424 497 388 q 405 496 439 461 q 342 570 371 531 q 293 657 313 610 q 274 767 274 704 q 299 894 274 836 q 371 994 325 953 q 480 1060 417 1036 q 619 1083 543 1083 q 738 1063 688 1083 q 829 997 789 1042 l 893 1069 l 938 1069 l 818 764 l 776 764 q 789 825 783 790 q 794 885 794 860 q 751 991 794 954 q 625 1028 708 1028 q 472 974 525 1028 q 419 821 419 921 q 424 769 419 792 q 439 724 428 747 q 472 674 450 701 q 526 608 493 647 q 604 513 574 554 q 653 436 635 471 q 678 370 671 401 q 686 304 686 339 q 657 178 686 236 q 576 77 628 119 q 453 10 524 35 q 300 -14 383 -14 q 63 100 122 -14 l -8 0 l -51 0 l 96 363 z "},"Ś":{"ha":818,"x_min":-51,"x_max":938,"o":"m 96 363 l 136 363 q 118 229 118 290 q 308 42 118 42 q 476 96 415 42 q 536 246 536 150 q 517 344 536 301 q 468 424 497 388 q 405 496 439 461 q 342 570 371 531 q 293 657 313 610 q 274 767 274 704 q 299 894 274 836 q 371 994 325 953 q 480 1060 417 1036 q 619 1083 543 1083 q 738 1063 688 1083 q 829 997 789 1042 l 893 1069 l 938 1069 l 818 764 l 776 764 q 789 825 783 790 q 794 885 794 860 q 751 991 794 954 q 625 1028 708 1028 q 472 974 525 1028 q 419 821 419 921 q 424 769 419 792 q 439 724 428 747 q 472 674 450 701 q 526 608 493 647 q 604 513 574 554 q 653 436 635 471 q 678 370 671 401 q 686 304 686 339 q 657 178 686 236 q 576 77 628 119 q 453 10 524 35 q 300 -14 383 -14 q 63 100 122 -14 l -8 0 l -51 0 l 96 363 m 574 1176 l 774 1325 q 835 1347 804 1347 q 876 1331 858 1347 q 894 1288 894 1314 q 874 1244 894 1264 q 800 1208 854 1224 l 589 1147 l 574 1176 z "},"Š":{"ha":818,"x_min":-51,"x_max":982,"o":"m 96 363 l 136 363 q 118 229 118 290 q 308 42 118 42 q 476 96 415 42 q 536 246 536 150 q 517 344 536 301 q 468 424 497 388 q 405 496 439 461 q 342 570 371 531 q 293 657 313 610 q 274 767 274 704 q 299 894 274 836 q 371 994 325 953 q 480 1060 417 1036 q 619 1083 543 1083 q 738 1063 688 1083 q 829 997 789 1042 l 893 1069 l 938 1069 l 818 764 l 776 764 q 789 825 783 790 q 794 885 794 860 q 751 991 794 954 q 625 1028 708 1028 q 472 974 525 1028 q 419 821 419 921 q 424 769 419 792 q 439 724 428 747 q 472 674 450 701 q 526 608 493 647 q 604 513 574 554 q 653 436 635 471 q 678 370 671 401 q 686 304 686 339 q 657 178 686 236 q 576 77 628 119 q 453 10 524 35 q 300 -14 383 -14 q 63 100 122 -14 l -8 0 l -51 0 l 96 363 m 710 1153 q 673 1162 686 1153 q 649 1190 660 1171 l 574 1324 l 610 1347 l 736 1253 l 965 1347 l 982 1324 l 799 1190 q 755 1163 774 1172 q 710 1153 736 1153 z "},"Ə":{"ha":936,"x_min":-11,"x_max":974,"o":"m 181 -14 q 40 22 92 -14 q -11 122 -11 58 q 44 247 -11 186 q 200 362 100 308 q 440 458 300 415 q 750 526 581 500 q 813 716 790 625 q 836 869 836 807 q 683 1014 836 1014 q 467 944 575 1014 q 261 743 360 874 l 210 774 q 714 1082 456 1082 q 906 1012 839 1082 q 974 814 974 942 q 940 625 974 722 q 847 435 906 528 q 709 262 788 343 q 542 119 631 181 q 361 22 454 57 q 181 -14 268 -14 m 706 461 q 502 404 599 442 q 331 319 406 367 q 213 219 257 272 q 169 115 169 165 q 186 71 169 85 q 240 57 203 57 q 349 80 292 57 q 461 142 407 103 q 563 233 515 182 q 642 343 610 285 l 706 461 z "},"Ŝ":{"ha":818,"x_min":-51,"x_max":938,"o":"m 96 363 l 136 363 q 118 229 118 290 q 308 42 118 42 q 476 96 415 42 q 536 246 536 150 q 517 344 536 301 q 468 424 497 388 q 405 496 439 461 q 342 570 371 531 q 293 657 313 610 q 274 767 274 704 q 299 894 274 836 q 371 994 325 953 q 480 1060 417 1036 q 619 1083 543 1083 q 738 1063 688 1083 q 829 997 789 1042 l 893 1069 l 938 1069 l 818 764 l 776 764 q 789 825 783 790 q 794 885 794 860 q 751 991 794 954 q 625 1028 708 1028 q 472 974 525 1028 q 419 821 419 921 q 424 769 419 792 q 439 724 428 747 q 472 674 450 701 q 526 608 493 647 q 604 513 574 554 q 653 436 635 471 q 678 370 671 401 q 686 304 686 339 q 657 178 686 236 q 576 77 628 119 q 453 10 524 35 q 300 -14 383 -14 q 63 100 122 -14 l -8 0 l -51 0 l 96 363 m 749 1347 q 785 1338 772 1347 q 810 1310 799 1329 l 885 1176 l 849 1153 l 722 1247 l 493 1153 l 476 1176 l 660 1310 q 703 1338 685 1328 q 749 1347 722 1347 z "},"Ṣ":{"ha":818,"x_min":-51,"x_max":938,"o":"m 96 363 l 136 363 q 118 229 118 290 q 308 42 118 42 q 476 96 415 42 q 536 246 536 150 q 517 344 536 301 q 468 424 497 388 q 405 496 439 461 q 342 570 371 531 q 293 657 313 610 q 274 767 274 704 q 299 894 274 836 q 371 994 325 953 q 480 1060 417 1036 q 619 1083 543 1083 q 738 1063 688 1083 q 829 997 789 1042 l 893 1069 l 938 1069 l 818 764 l 776 764 q 789 825 783 790 q 794 885 794 860 q 751 991 794 954 q 625 1028 708 1028 q 472 974 525 1028 q 419 821 419 921 q 424 769 419 792 q 439 724 428 747 q 472 674 450 701 q 526 608 493 647 q 604 513 574 554 q 653 436 635 471 q 678 370 671 401 q 686 304 686 339 q 657 178 686 236 q 576 77 628 119 q 453 10 524 35 q 300 -14 383 -14 q 63 100 122 -14 l -8 0 l -51 0 l 96 363 m 200 -182 q 263 -204 236 -182 q 289 -258 289 -226 q 280 -295 289 -278 q 256 -326 271 -312 q 223 -347 242 -339 q 185 -356 204 -356 q 122 -334 144 -356 q 99 -276 99 -312 q 129 -210 99 -237 q 200 -182 160 -182 z "},"T":{"ha":1021,"x_min":122,"x_max":1213,"o":"m 681 1014 l 433 1014 q 303 889 364 954 q 199 764 243 824 l 165 764 l 343 1069 l 1213 1069 l 1138 764 l 1104 764 q 1106 795 1106 779 q 1106 826 1106 811 q 1100 922 1106 874 q 1079 1014 1094 969 l 832 1014 l 436 58 l 578 32 l 564 0 l 122 0 l 136 32 l 285 58 l 681 1014 z "},"Ŧ":{"ha":1032,"x_min":122,"x_max":1213,"o":"m 501 583 l 240 583 l 265 644 l 526 644 l 681 1014 l 433 1014 q 303 889 364 954 q 199 764 243 824 l 165 764 l 343 1069 l 1213 1069 l 1138 764 l 1104 764 q 1106 795 1106 779 q 1106 826 1106 811 q 1100 922 1106 874 q 1079 1014 1094 969 l 832 1014 l 679 644 l 997 644 l 971 583 l 654 583 l 436 58 l 578 32 l 564 0 l 122 0 l 136 32 l 285 58 l 501 583 z "},"Ť":{"ha":1021,"x_min":122,"x_max":1213,"o":"m 681 1014 l 433 1014 q 303 889 364 954 q 199 764 243 824 l 165 764 l 343 1069 l 1213 1069 l 1138 764 l 1104 764 q 1106 795 1106 779 q 1106 826 1106 811 q 1100 922 1106 874 q 1079 1014 1094 969 l 832 1014 l 436 58 l 578 32 l 564 0 l 122 0 l 136 32 l 285 58 l 681 1014 m 799 1153 q 762 1162 775 1153 q 738 1190 749 1171 l 663 1324 l 699 1347 l 825 1253 l 1054 1347 l 1071 1324 l 888 1190 q 844 1163 863 1172 q 799 1153 825 1153 z "},"Ṭ":{"ha":1021,"x_min":122,"x_max":1213,"o":"m 681 1014 l 433 1014 q 303 889 364 954 q 199 764 243 824 l 165 764 l 343 1069 l 1213 1069 l 1138 764 l 1104 764 q 1106 795 1106 779 q 1106 826 1106 811 q 1100 922 1106 874 q 1079 1014 1094 969 l 832 1014 l 436 58 l 578 32 l 564 0 l 122 0 l 136 32 l 285 58 l 681 1014 m 251 -182 q 314 -204 288 -182 q 340 -258 340 -226 q 331 -295 340 -278 q 308 -326 322 -312 q 274 -347 293 -339 q 236 -356 256 -356 q 173 -334 196 -356 q 150 -276 150 -312 q 181 -210 150 -237 q 251 -182 211 -182 z "},"Þ":{"ha":914,"x_min":-85,"x_max":908,"o":"m 453 1011 l 288 1038 l 301 1069 l 740 1069 l 728 1038 l 606 1011 l 528 828 l 589 828 q 824 764 740 828 q 908 583 908 700 q 873 440 908 504 q 772 328 838 375 q 615 257 707 282 q 413 232 524 232 l 276 232 l 203 58 l 368 32 l 354 0 l -85 0 l -72 32 l 50 58 l 453 1011 m 432 293 q 561 317 500 293 q 667 384 622 342 q 738 483 711 426 q 764 603 764 539 q 719 728 764 685 q 589 771 675 771 l 504 771 l 303 293 l 432 293 z "},"U":{"ha":1081,"x_min":131,"x_max":1303,"o":"m 431 1011 l 317 1038 l 329 1069 l 725 1069 l 711 1038 l 578 1010 l 313 374 q 283 283 293 329 q 272 200 272 236 q 472 51 272 51 q 574 67 528 51 q 662 117 621 82 q 740 213 703 153 q 815 360 778 272 l 1097 1011 l 981 1038 l 996 1069 l 1303 1069 l 1290 1038 l 1158 1011 l 865 319 q 773 153 822 218 q 669 51 724 89 q 554 0 614 14 q 431 -14 494 -14 q 207 43 283 -14 q 131 208 131 100 q 190 444 131 304 l 431 1011 z "},"Ú":{"ha":1081,"x_min":131,"x_max":1303,"o":"m 431 1011 l 317 1038 l 329 1069 l 725 1069 l 711 1038 l 578 1010 l 313 374 q 283 283 293 329 q 272 200 272 236 q 472 51 272 51 q 574 67 528 51 q 662 117 621 82 q 740 213 703 153 q 815 360 778 272 l 1097 1011 l 981 1038 l 996 1069 l 1303 1069 l 1290 1038 l 1158 1011 l 865 319 q 773 153 822 218 q 669 51 724 89 q 554 0 614 14 q 431 -14 494 -14 q 207 43 283 -14 q 131 208 131 100 q 190 444 131 304 l 431 1011 m 789 1176 l 989 1325 q 1050 1347 1019 1347 q 1092 1331 1074 1347 q 1110 1288 1110 1314 q 1090 1244 1110 1264 q 1015 1208 1069 1224 l 804 1147 l 789 1176 z "},"Ŭ":{"ha":1081,"x_min":131,"x_max":1303,"o":"m 431 1011 l 317 1038 l 329 1069 l 725 1069 l 711 1038 l 578 1010 l 313 374 q 283 283 293 329 q 272 200 272 236 q 472 51 272 51 q 574 67 528 51 q 662 117 621 82 q 740 213 703 153 q 815 360 778 272 l 1097 1011 l 981 1038 l 996 1069 l 1303 1069 l 1290 1038 l 1158 1011 l 865 319 q 773 153 822 218 q 669 51 724 89 q 554 0 614 14 q 431 -14 494 -14 q 207 43 283 -14 q 131 208 131 100 q 190 444 131 304 l 431 1011 m 821 1347 q 849 1281 822 1304 q 931 1257 876 1257 q 1022 1278 976 1257 q 1111 1347 1067 1299 l 1167 1347 q 1082 1244 1124 1282 q 1004 1186 1040 1206 q 937 1160 968 1167 q 883 1154 906 1154 q 837 1160 860 1154 q 797 1180 814 1167 q 769 1215 779 1193 q 758 1269 758 1238 q 772 1347 758 1304 l 821 1347 z "},"Û":{"ha":1081,"x_min":131,"x_max":1303,"o":"m 431 1011 l 317 1038 l 329 1069 l 725 1069 l 711 1038 l 578 1010 l 313 374 q 283 283 293 329 q 272 200 272 236 q 472 51 272 51 q 574 67 528 51 q 662 117 621 82 q 740 213 703 153 q 815 360 778 272 l 1097 1011 l 981 1038 l 996 1069 l 1303 1069 l 1290 1038 l 1158 1011 l 865 319 q 773 153 822 218 q 669 51 724 89 q 554 0 614 14 q 431 -14 494 -14 q 207 43 283 -14 q 131 208 131 100 q 190 444 131 304 l 431 1011 m 978 1347 q 1015 1338 1001 1347 q 1039 1310 1028 1329 l 1114 1176 l 1078 1153 l 951 1247 l 722 1153 l 706 1176 l 889 1310 q 933 1338 914 1328 q 978 1347 951 1347 z "},"Ü":{"ha":1081,"x_min":131,"x_max":1303,"o":"m 431 1011 l 317 1038 l 329 1069 l 725 1069 l 711 1038 l 578 1010 l 313 374 q 283 283 293 329 q 272 200 272 236 q 472 51 272 51 q 574 67 528 51 q 662 117 621 82 q 740 213 703 153 q 815 360 778 272 l 1097 1011 l 981 1038 l 996 1069 l 1303 1069 l 1290 1038 l 1158 1011 l 865 319 q 773 153 822 218 q 669 51 724 89 q 554 0 614 14 q 431 -14 494 -14 q 207 43 283 -14 q 131 208 131 100 q 190 444 131 304 l 431 1011 m 804 1347 q 860 1328 836 1347 q 883 1279 883 1308 q 876 1247 883 1263 q 855 1219 868 1232 q 825 1200 842 1207 q 790 1193 808 1193 q 734 1213 754 1193 q 714 1264 714 1232 q 741 1322 714 1297 q 804 1347 768 1347 m 1047 1347 q 1103 1328 1079 1347 q 1126 1279 1126 1308 q 1119 1247 1126 1263 q 1098 1219 1111 1232 q 1068 1200 1085 1207 q 1033 1193 1051 1193 q 977 1213 997 1193 q 957 1264 957 1232 q 984 1322 957 1297 q 1047 1347 1011 1347 z "},"Ụ":{"ha":1081,"x_min":131,"x_max":1303,"o":"m 431 1011 l 317 1038 l 329 1069 l 725 1069 l 711 1038 l 578 1010 l 313 374 q 283 283 293 329 q 272 200 272 236 q 472 51 272 51 q 574 67 528 51 q 662 117 621 82 q 740 213 703 153 q 815 360 778 272 l 1097 1011 l 981 1038 l 996 1069 l 1303 1069 l 1290 1038 l 1158 1011 l 865 319 q 773 153 822 218 q 669 51 724 89 q 554 0 614 14 q 431 -14 494 -14 q 207 43 283 -14 q 131 208 131 100 q 190 444 131 304 l 431 1011 m 335 -182 q 397 -204 371 -182 q 424 -258 424 -226 q 415 -295 424 -278 q 391 -326 406 -312 q 358 -347 376 -339 q 319 -356 339 -356 q 256 -334 279 -356 q 233 -276 233 -312 q 264 -210 233 -237 q 335 -182 294 -182 z "},"Ù":{"ha":1081,"x_min":131,"x_max":1303,"o":"m 431 1011 l 317 1038 l 329 1069 l 725 1069 l 711 1038 l 578 1010 l 313 374 q 283 283 293 329 q 272 200 272 236 q 472 51 272 51 q 574 67 528 51 q 662 117 621 82 q 740 213 703 153 q 815 360 778 272 l 1097 1011 l 981 1038 l 996 1069 l 1303 1069 l 1290 1038 l 1158 1011 l 865 319 q 773 153 822 218 q 669 51 724 89 q 554 0 614 14 q 431 -14 494 -14 q 207 43 283 -14 q 131 208 131 100 q 190 444 131 304 l 431 1011 m 935 1147 l 711 1213 q 660 1281 660 1228 q 678 1329 660 1311 q 729 1347 697 1347 q 773 1335 753 1347 q 817 1303 793 1324 l 961 1176 l 935 1147 z "},"Ű":{"ha":1081,"x_min":131,"x_max":1303,"o":"m 431 1011 l 317 1038 l 329 1069 l 725 1069 l 711 1038 l 578 1010 l 313 374 q 283 283 293 329 q 272 200 272 236 q 472 51 272 51 q 574 67 528 51 q 662 117 621 82 q 740 213 703 153 q 815 360 778 272 l 1097 1011 l 981 1038 l 996 1069 l 1303 1069 l 1290 1038 l 1158 1011 l 865 319 q 773 153 822 218 q 669 51 724 89 q 554 0 614 14 q 431 -14 494 -14 q 207 43 283 -14 q 131 208 131 100 q 190 444 131 304 l 431 1011 m 933 1176 l 1135 1322 q 1165 1340 1150 1333 q 1194 1346 1179 1346 q 1236 1328 1218 1346 q 1254 1282 1254 1310 q 1234 1240 1254 1258 q 1158 1206 1214 1221 l 947 1147 l 933 1176 m 657 1178 l 858 1324 q 888 1341 874 1335 q 918 1347 903 1347 q 960 1329 942 1347 q 979 1286 979 1311 q 959 1242 979 1263 q 883 1207 939 1222 l 671 1149 l 657 1178 z "},"Ū":{"ha":1081,"x_min":131,"x_max":1303,"o":"m 431 1011 l 317 1038 l 329 1069 l 725 1069 l 711 1038 l 578 1010 l 313 374 q 283 283 293 329 q 272 200 272 236 q 472 51 272 51 q 574 67 528 51 q 662 117 621 82 q 740 213 703 153 q 815 360 778 272 l 1097 1011 l 981 1038 l 996 1069 l 1303 1069 l 1290 1038 l 1158 1011 l 865 319 q 773 153 822 218 q 669 51 724 89 q 554 0 614 14 q 431 -14 494 -14 q 207 43 283 -14 q 131 208 131 100 q 190 444 131 304 l 431 1011 m 654 1224 l 693 1322 l 1092 1322 l 1051 1224 l 654 1224 z "},"Ų":{"ha":1081,"x_min":131,"x_max":1303,"o":"m 414 -275 q 224 -356 318 -356 q 131 -283 131 -356 q 196 -152 131 -225 q 374 -11 261 -79 q 192 54 253 -1 q 131 208 131 110 q 190 444 131 304 l 431 1011 l 317 1038 l 329 1069 l 725 1069 l 711 1038 l 578 1010 l 313 374 q 283 283 293 329 q 272 200 272 236 q 472 51 272 51 q 574 67 528 51 q 662 117 621 82 q 740 213 703 153 q 815 360 778 272 l 1097 1011 l 981 1038 l 996 1069 l 1303 1069 l 1290 1038 l 1158 1011 l 865 319 q 775 156 824 219 q 672 54 726 92 q 559 2 618 17 q 438 -14 500 -12 q 310 -140 354 -82 q 265 -239 265 -199 q 317 -279 265 -279 q 356 -273 336 -279 q 407 -250 375 -267 l 414 -275 z "},"Ů":{"ha":1081,"x_min":131,"x_max":1303,"o":"m 431 1011 l 317 1038 l 329 1069 l 725 1069 l 711 1038 l 578 1010 l 313 374 q 283 283 293 329 q 272 200 272 236 q 472 51 272 51 q 574 67 528 51 q 662 117 621 82 q 740 213 703 153 q 815 360 778 272 l 1097 1011 l 981 1038 l 996 1069 l 1303 1069 l 1290 1038 l 1158 1011 l 865 319 q 773 153 822 218 q 669 51 724 89 q 554 0 614 14 q 431 -14 494 -14 q 207 43 283 -14 q 131 208 131 100 q 190 444 131 304 l 431 1011 m 913 1347 q 983 1322 954 1347 q 1013 1260 1013 1296 q 1003 1219 1013 1239 q 976 1185 993 1200 q 938 1162 960 1171 q 892 1153 915 1153 q 825 1178 851 1153 q 799 1240 799 1203 q 832 1315 799 1283 q 913 1347 865 1347 m 908 1294 q 870 1280 886 1294 q 854 1246 854 1265 q 867 1215 854 1226 q 899 1203 879 1203 q 939 1219 921 1203 q 957 1254 957 1235 q 942 1283 957 1271 q 908 1294 928 1294 z "},"Ũ":{"ha":1081,"x_min":131,"x_max":1303,"o":"m 431 1011 l 317 1038 l 329 1069 l 725 1069 l 711 1038 l 578 1010 l 313 374 q 283 283 293 329 q 272 200 272 236 q 472 51 272 51 q 574 67 528 51 q 662 117 621 82 q 740 213 703 153 q 815 360 778 272 l 1097 1011 l 981 1038 l 996 1069 l 1303 1069 l 1290 1038 l 1158 1011 l 865 319 q 773 153 822 218 q 669 51 724 89 q 554 0 614 14 q 431 -14 494 -14 q 207 43 283 -14 q 131 208 131 100 q 190 444 131 304 l 431 1011 m 678 1185 q 744 1299 697 1256 q 843 1343 792 1343 q 891 1335 867 1343 q 940 1319 915 1328 q 988 1302 964 1310 q 1035 1294 1011 1294 q 1121 1347 1093 1294 l 1154 1347 q 1083 1229 1131 1275 q 983 1183 1035 1183 q 935 1192 958 1183 q 889 1210 913 1200 q 842 1229 865 1221 q 794 1238 819 1238 q 707 1185 731 1238 l 678 1185 z "},"V":{"ha":1019,"x_min":250,"x_max":1317,"o":"m 250 -14 l 374 942 q 375 954 375 949 q 375 965 375 960 q 348 1014 374 1001 q 257 1031 322 1026 l 276 1069 l 704 1069 l 685 1031 q 616 1026 644 1031 q 568 1009 588 1021 q 538 976 549 997 q 522 924 526 956 l 421 185 l 426 185 l 968 879 q 1007 936 999 918 q 1015 974 1015 954 q 987 1009 1014 996 q 897 1031 960 1022 l 915 1069 l 1317 1069 l 1297 1031 q 1212 1013 1247 1024 q 1147 986 1176 1003 q 1092 943 1118 969 q 1035 876 1065 917 l 332 -14 l 250 -14 z "},"W":{"ha":1429,"x_min":243,"x_max":1713,"o":"m 243 -14 l 367 942 q 368 954 368 949 q 368 965 368 960 q 341 1014 367 1001 q 250 1031 315 1026 l 269 1069 l 669 1069 l 650 1031 q 593 1026 617 1031 q 553 1009 569 1021 q 528 976 538 997 q 515 924 519 956 l 414 186 l 811 731 l 839 942 q 840 954 840 949 q 840 965 840 960 q 823 1014 839 1001 q 764 1031 807 1026 l 783 1069 l 1169 1069 l 1150 1031 q 1083 1026 1111 1031 q 1035 1009 1054 1021 q 1003 976 1015 997 q 988 924 992 956 l 886 186 l 1392 879 q 1429 936 1419 918 q 1439 974 1439 954 q 1410 1009 1438 996 q 1321 1031 1383 1022 l 1339 1069 l 1713 1069 l 1693 1031 q 1617 1013 1649 1024 q 1560 985 1586 1003 q 1511 942 1535 968 q 1458 876 1488 915 l 797 -14 l 715 -14 l 797 621 l 325 -14 l 243 -14 z "},"Ẃ":{"ha":1429,"x_min":243,"x_max":1713,"o":"m 243 -14 l 367 942 q 368 954 368 949 q 368 965 368 960 q 341 1014 367 1001 q 250 1031 315 1026 l 269 1069 l 669 1069 l 650 1031 q 593 1026 617 1031 q 553 1009 569 1021 q 528 976 538 997 q 515 924 519 956 l 414 186 l 811 731 l 839 942 q 840 954 840 949 q 840 965 840 960 q 823 1014 839 1001 q 764 1031 807 1026 l 783 1069 l 1169 1069 l 1150 1031 q 1083 1026 1111 1031 q 1035 1009 1054 1021 q 1003 976 1015 997 q 988 924 992 956 l 886 186 l 1392 879 q 1429 936 1419 918 q 1439 974 1439 954 q 1410 1009 1438 996 q 1321 1031 1383 1022 l 1339 1069 l 1713 1069 l 1693 1031 q 1617 1013 1649 1024 q 1560 985 1586 1003 q 1511 942 1535 968 q 1458 876 1488 915 l 797 -14 l 715 -14 l 797 621 l 325 -14 l 243 -14 m 874 1176 l 1074 1325 q 1135 1347 1104 1347 q 1176 1331 1158 1347 q 1194 1288 1194 1314 q 1174 1244 1194 1264 q 1100 1208 1154 1224 l 889 1147 l 874 1176 z "},"Ŵ":{"ha":1429,"x_min":243,"x_max":1713,"o":"m 243 -14 l 367 942 q 368 954 368 949 q 368 965 368 960 q 341 1014 367 1001 q 250 1031 315 1026 l 269 1069 l 669 1069 l 650 1031 q 593 1026 617 1031 q 553 1009 569 1021 q 528 976 538 997 q 515 924 519 956 l 414 186 l 811 731 l 839 942 q 840 954 840 949 q 840 965 840 960 q 823 1014 839 1001 q 764 1031 807 1026 l 783 1069 l 1169 1069 l 1150 1031 q 1083 1026 1111 1031 q 1035 1009 1054 1021 q 1003 976 1015 997 q 988 924 992 956 l 886 186 l 1392 879 q 1429 936 1419 918 q 1439 974 1439 954 q 1410 1009 1438 996 q 1321 1031 1383 1022 l 1339 1069 l 1713 1069 l 1693 1031 q 1617 1013 1649 1024 q 1560 985 1586 1003 q 1511 942 1535 968 q 1458 876 1488 915 l 797 -14 l 715 -14 l 797 621 l 325 -14 l 243 -14 m 1090 1347 q 1127 1338 1114 1347 q 1151 1310 1140 1329 l 1226 1176 l 1190 1153 l 1064 1247 l 835 1153 l 818 1176 l 1001 1310 q 1045 1338 1026 1328 q 1090 1347 1064 1347 z "},"Ẅ":{"ha":1429,"x_min":243,"x_max":1713,"o":"m 243 -14 l 367 942 q 368 954 368 949 q 368 965 368 960 q 341 1014 367 1001 q 250 1031 315 1026 l 269 1069 l 669 1069 l 650 1031 q 593 1026 617 1031 q 553 1009 569 1021 q 528 976 538 997 q 515 924 519 956 l 414 186 l 811 731 l 839 942 q 840 954 840 949 q 840 965 840 960 q 823 1014 839 1001 q 764 1031 807 1026 l 783 1069 l 1169 1069 l 1150 1031 q 1083 1026 1111 1031 q 1035 1009 1054 1021 q 1003 976 1015 997 q 988 924 992 956 l 886 186 l 1392 879 q 1429 936 1419 918 q 1439 974 1439 954 q 1410 1009 1438 996 q 1321 1031 1383 1022 l 1339 1069 l 1713 1069 l 1693 1031 q 1617 1013 1649 1024 q 1560 985 1586 1003 q 1511 942 1535 968 q 1458 876 1488 915 l 797 -14 l 715 -14 l 797 621 l 325 -14 l 243 -14 m 931 1347 q 986 1328 963 1347 q 1010 1279 1010 1308 q 1002 1247 1010 1263 q 981 1219 994 1232 q 951 1200 968 1207 q 917 1193 935 1193 q 860 1213 881 1193 q 840 1264 840 1232 q 867 1322 840 1297 q 931 1347 894 1347 m 1174 1347 q 1229 1328 1206 1347 q 1253 1279 1253 1308 q 1245 1247 1253 1263 q 1224 1219 1238 1232 q 1194 1200 1211 1207 q 1160 1193 1178 1193 q 1103 1213 1124 1193 q 1083 1264 1083 1232 q 1110 1322 1083 1297 q 1174 1347 1138 1347 z "},"Ẁ":{"ha":1429,"x_min":243,"x_max":1713,"o":"m 243 -14 l 367 942 q 368 954 368 949 q 368 965 368 960 q 341 1014 367 1001 q 250 1031 315 1026 l 269 1069 l 669 1069 l 650 1031 q 593 1026 617 1031 q 553 1009 569 1021 q 528 976 538 997 q 515 924 519 956 l 414 186 l 811 731 l 839 942 q 840 954 840 949 q 840 965 840 960 q 823 1014 839 1001 q 764 1031 807 1026 l 783 1069 l 1169 1069 l 1150 1031 q 1083 1026 1111 1031 q 1035 1009 1054 1021 q 1003 976 1015 997 q 988 924 992 956 l 886 186 l 1392 879 q 1429 936 1419 918 q 1439 974 1439 954 q 1410 1009 1438 996 q 1321 1031 1383 1022 l 1339 1069 l 1713 1069 l 1693 1031 q 1617 1013 1649 1024 q 1560 985 1586 1003 q 1511 942 1535 968 q 1458 876 1488 915 l 797 -14 l 715 -14 l 797 621 l 325 -14 l 243 -14 m 1103 1147 l 879 1213 q 828 1281 828 1228 q 847 1329 828 1311 q 897 1347 865 1347 q 941 1335 921 1347 q 985 1303 961 1324 l 1129 1176 l 1103 1147 z "},"X":{"ha":1033,"x_min":-150,"x_max":1272,"o":"m -150 0 l -136 32 q -66 41 -99 33 q 4 69 -33 49 q 89 128 42 90 q 204 232 136 167 l 503 518 l 406 921 q 390 969 399 950 q 364 1002 381 989 q 321 1024 347 1015 q 253 1036 294 1032 l 268 1069 l 676 1069 l 664 1038 q 582 1015 606 1032 q 558 963 558 999 q 567 910 558 940 l 635 622 l 931 904 q 985 965 968 940 q 1003 1006 1003 990 q 929 1038 1003 1038 l 942 1069 l 1272 1069 l 1258 1038 q 1188 1024 1219 1032 q 1128 1001 1157 1015 q 1070 965 1099 988 q 1008 911 1042 943 l 649 565 l 747 161 q 766 106 756 128 q 792 69 776 83 q 831 46 808 54 q 888 32 854 38 l 874 0 l 458 0 l 471 32 q 567 58 539 42 q 594 111 594 75 q 592 133 594 122 q 588 160 590 144 l 519 458 l 256 203 q 186 97 186 136 q 294 32 186 49 l 279 0 l -150 0 z "},"Y":{"ha":994,"x_min":122,"x_max":1279,"o":"m 122 0 l 136 32 l 271 58 l 443 472 l 375 922 q 363 979 369 957 q 344 1015 357 1001 q 308 1033 331 1028 q 250 1038 286 1038 l 264 1069 l 656 1069 l 642 1038 q 558 1016 583 1035 q 533 940 533 997 q 538 889 533 918 l 579 547 l 953 922 q 999 994 999 968 q 883 1038 999 1038 l 896 1069 l 1279 1069 l 1261 1038 q 1186 1028 1218 1035 q 1124 1004 1154 1021 q 1060 960 1093 988 q 983 886 1028 932 l 610 504 l 422 58 l 558 32 l 544 0 l 122 0 z "},"Ý":{"ha":994,"x_min":122,"x_max":1279,"o":"m 122 0 l 136 32 l 271 58 l 443 472 l 375 922 q 363 979 369 957 q 344 1015 357 1001 q 308 1033 331 1028 q 250 1038 286 1038 l 264 1069 l 656 1069 l 642 1038 q 558 1016 583 1035 q 533 940 533 997 q 538 889 533 918 l 579 547 l 953 922 q 999 994 999 968 q 883 1038 999 1038 l 896 1069 l 1279 1069 l 1261 1038 q 1186 1028 1218 1035 q 1124 1004 1154 1021 q 1060 960 1093 988 q 983 886 1028 932 l 610 504 l 422 58 l 558 32 l 544 0 l 122 0 m 739 1176 l 939 1325 q 1000 1347 969 1347 q 1042 1331 1024 1347 q 1060 1288 1060 1314 q 1040 1244 1060 1264 q 965 1208 1019 1224 l 754 1147 l 739 1176 z "},"Ŷ":{"ha":994,"x_min":122,"x_max":1279,"o":"m 122 0 l 136 32 l 271 58 l 443 472 l 375 922 q 363 979 369 957 q 344 1015 357 1001 q 308 1033 331 1028 q 250 1038 286 1038 l 264 1069 l 656 1069 l 642 1038 q 558 1016 583 1035 q 533 940 533 997 q 538 889 533 918 l 579 547 l 953 922 q 999 994 999 968 q 883 1038 999 1038 l 896 1069 l 1279 1069 l 1261 1038 q 1186 1028 1218 1035 q 1124 1004 1154 1021 q 1060 960 1093 988 q 983 886 1028 932 l 610 504 l 422 58 l 558 32 l 544 0 l 122 0 m 886 1347 q 923 1338 910 1347 q 947 1310 936 1329 l 1022 1176 l 986 1153 l 860 1247 l 631 1153 l 614 1176 l 797 1310 q 841 1338 822 1328 q 886 1347 860 1347 z "},"Ÿ":{"ha":994,"x_min":122,"x_max":1279,"o":"m 122 0 l 136 32 l 271 58 l 443 472 l 375 922 q 363 979 369 957 q 344 1015 357 1001 q 308 1033 331 1028 q 250 1038 286 1038 l 264 1069 l 656 1069 l 642 1038 q 558 1016 583 1035 q 533 940 533 997 q 538 889 533 918 l 579 547 l 953 922 q 999 994 999 968 q 883 1038 999 1038 l 896 1069 l 1279 1069 l 1261 1038 q 1186 1028 1218 1035 q 1124 1004 1154 1021 q 1060 960 1093 988 q 983 886 1028 932 l 610 504 l 422 58 l 558 32 l 544 0 l 122 0 m 726 1347 q 782 1328 758 1347 q 806 1279 806 1308 q 798 1247 806 1263 q 777 1219 790 1232 q 747 1200 764 1207 q 713 1193 731 1193 q 656 1213 676 1193 q 636 1264 636 1232 q 663 1322 636 1297 q 726 1347 690 1347 m 969 1347 q 1025 1328 1001 1347 q 1049 1279 1049 1308 q 1041 1247 1049 1263 q 1020 1219 1033 1232 q 990 1200 1007 1207 q 956 1193 974 1193 q 899 1213 919 1193 q 879 1264 879 1232 q 906 1322 879 1297 q 969 1347 933 1347 z "},"Ỳ":{"ha":994,"x_min":122,"x_max":1279,"o":"m 122 0 l 136 32 l 271 58 l 443 472 l 375 922 q 363 979 369 957 q 344 1015 357 1001 q 308 1033 331 1028 q 250 1038 286 1038 l 264 1069 l 656 1069 l 642 1038 q 558 1016 583 1035 q 533 940 533 997 q 538 889 533 918 l 579 547 l 953 922 q 999 994 999 968 q 883 1038 999 1038 l 896 1069 l 1279 1069 l 1261 1038 q 1186 1028 1218 1035 q 1124 1004 1154 1021 q 1060 960 1093 988 q 983 886 1028 932 l 610 504 l 422 58 l 558 32 l 544 0 l 122 0 m 869 1147 l 646 1213 q 594 1281 594 1228 q 613 1329 594 1311 q 664 1347 632 1347 q 708 1335 688 1347 q 751 1303 728 1324 l 896 1176 l 869 1147 z "},"Ỹ":{"ha":994,"x_min":122,"x_max":1279,"o":"m 122 0 l 136 32 l 271 58 l 443 472 l 375 922 q 363 979 369 957 q 344 1015 357 1001 q 308 1033 331 1028 q 250 1038 286 1038 l 264 1069 l 656 1069 l 642 1038 q 558 1016 583 1035 q 533 940 533 997 q 538 889 533 918 l 579 547 l 953 922 q 999 994 999 968 q 883 1038 999 1038 l 896 1069 l 1279 1069 l 1261 1038 q 1186 1028 1218 1035 q 1124 1004 1154 1021 q 1060 960 1093 988 q 983 886 1028 932 l 610 504 l 422 58 l 558 32 l 544 0 l 122 0 m 613 1185 q 679 1299 632 1256 q 778 1343 726 1343 q 826 1335 801 1343 q 874 1319 850 1328 q 922 1302 899 1310 q 969 1294 946 1294 q 1056 1347 1028 1294 l 1089 1347 q 1017 1229 1065 1275 q 918 1183 969 1183 q 870 1192 893 1183 q 824 1210 847 1200 q 777 1229 800 1221 q 729 1238 754 1238 q 642 1185 665 1238 l 613 1185 z "},"Z":{"ha":968,"x_min":-40,"x_max":1064,"o":"m -40 0 l -10 71 l 858 1014 l 485 1014 q 355 893 417 957 q 246 768 293 829 l 208 768 l 375 1069 l 1064 1069 l 1033 997 l 169 58 l 603 58 q 850 339 751 199 l 897 339 l 726 0 l -40 0 z "},"Ź":{"ha":968,"x_min":-40,"x_max":1064,"o":"m -40 0 l -10 71 l 858 1014 l 485 1014 q 355 893 417 957 q 246 768 293 829 l 208 768 l 375 1069 l 1064 1069 l 1033 997 l 169 58 l 603 58 q 850 339 751 199 l 897 339 l 726 0 l -40 0 m 657 1176 l 857 1325 q 918 1347 888 1347 q 960 1331 942 1347 q 978 1288 978 1314 q 958 1244 978 1264 q 883 1208 938 1224 l 672 1147 l 657 1176 z "},"Ž":{"ha":968,"x_min":-40,"x_max":1064,"o":"m -40 0 l -10 71 l 858 1014 l 485 1014 q 355 893 417 957 q 246 768 293 829 l 208 768 l 375 1069 l 1064 1069 l 1033 997 l 169 58 l 603 58 q 850 339 751 199 l 897 339 l 726 0 l -40 0 m 751 1153 q 715 1162 728 1153 q 690 1190 701 1171 l 615 1324 l 651 1347 l 778 1253 l 1007 1347 l 1024 1324 l 840 1190 q 797 1163 815 1172 q 751 1153 778 1153 z "},"Ż":{"ha":968,"x_min":-40,"x_max":1064,"o":"m -40 0 l -10 71 l 858 1014 l 485 1014 q 355 893 417 957 q 246 768 293 829 l 208 768 l 375 1069 l 1064 1069 l 1033 997 l 169 58 l 603 58 q 850 339 751 199 l 897 339 l 726 0 l -40 0 m 789 1347 q 851 1325 825 1347 q 878 1271 878 1303 q 869 1234 878 1251 q 845 1203 860 1217 q 812 1182 831 1190 q 774 1174 793 1174 q 710 1195 733 1174 q 688 1253 688 1217 q 718 1319 688 1292 q 789 1347 749 1347 z "},"Ẓ":{"ha":968,"x_min":-40,"x_max":1064,"o":"m -40 0 l -10 71 l 858 1014 l 485 1014 q 355 893 417 957 q 246 768 293 829 l 208 768 l 375 1069 l 1064 1069 l 1033 997 l 169 58 l 603 58 q 850 339 751 199 l 897 339 l 726 0 l -40 0 m 269 -182 q 332 -204 306 -182 q 358 -258 358 -226 q 349 -295 358 -278 q 326 -326 340 -312 q 292 -347 311 -339 q 254 -356 274 -356 q 191 -334 214 -356 q 168 -276 168 -312 q 199 -210 168 -237 q 269 -182 229 -182 z "},"a":{"ha":839,"x_min":0,"x_max":794,"o":"m 515 750 q 580 735 554 750 q 631 685 606 721 l 653 736 l 794 736 l 556 151 q 544 114 547 125 q 542 94 542 103 q 564 68 542 68 q 622 97 585 68 q 718 192 660 126 l 746 172 q 606 33 672 81 q 482 -14 540 -14 q 422 6 443 -14 q 400 67 400 26 q 410 130 400 97 q 447 207 419 163 l 439 211 q 290 39 357 92 q 153 -14 224 -14 q 41 34 82 -14 q 0 169 0 82 q 22 299 0 232 q 83 431 44 367 q 172 553 121 496 q 280 655 222 611 q 398 724 338 699 q 515 750 458 750 m 179 35 q 263 73 214 35 q 365 177 313 111 q 470 331 418 243 q 564 517 522 418 q 590 591 585 565 q 594 636 594 617 q 576 687 594 668 q 531 706 558 706 q 453 676 496 706 q 365 597 410 646 q 277 486 319 549 q 201 358 235 424 q 148 228 168 292 q 128 115 128 165 q 140 54 128 74 q 179 35 151 35 z "},"á":{"ha":839,"x_min":0,"x_max":882,"o":"m 515 750 q 580 735 554 750 q 631 685 606 721 l 653 736 l 794 736 l 556 151 q 544 114 547 125 q 542 94 542 103 q 564 68 542 68 q 622 97 585 68 q 718 192 660 126 l 746 172 q 606 33 672 81 q 482 -14 540 -14 q 422 6 443 -14 q 400 67 400 26 q 410 130 400 97 q 447 207 419 163 l 439 211 q 290 39 357 92 q 153 -14 224 -14 q 41 34 82 -14 q 0 169 0 82 q 22 299 0 232 q 83 431 44 367 q 172 553 121 496 q 280 655 222 611 q 398 724 338 699 q 515 750 458 750 m 179 35 q 263 73 214 35 q 365 177 313 111 q 470 331 418 243 q 564 517 522 418 q 590 591 585 565 q 594 636 594 617 q 576 687 594 668 q 531 706 558 706 q 453 676 496 706 q 365 597 410 646 q 277 486 319 549 q 201 358 235 424 q 148 228 168 292 q 128 115 128 165 q 140 54 128 74 q 179 35 151 35 m 565 892 l 726 1129 q 814 1190 767 1190 q 863 1174 843 1190 q 882 1132 882 1157 q 866 1090 882 1111 q 813 1042 850 1069 l 588 876 l 565 892 z "},"ă":{"ha":839,"x_min":0,"x_max":886,"o":"m 515 750 q 580 735 554 750 q 631 685 606 721 l 653 736 l 794 736 l 556 151 q 544 114 547 125 q 542 94 542 103 q 564 68 542 68 q 622 97 585 68 q 718 192 660 126 l 746 172 q 606 33 672 81 q 482 -14 540 -14 q 422 6 443 -14 q 400 67 400 26 q 410 130 400 97 q 447 207 419 163 l 439 211 q 290 39 357 92 q 153 -14 224 -14 q 41 34 82 -14 q 0 169 0 82 q 22 299 0 232 q 83 431 44 367 q 172 553 121 496 q 280 655 222 611 q 398 724 338 699 q 515 750 458 750 m 179 35 q 263 73 214 35 q 365 177 313 111 q 470 331 418 243 q 564 517 522 418 q 590 591 585 565 q 594 636 594 617 q 576 687 594 668 q 531 706 558 706 q 453 676 496 706 q 365 597 410 646 q 277 486 319 549 q 201 358 235 424 q 148 228 168 292 q 128 115 128 165 q 140 54 128 74 q 179 35 151 35 m 540 1097 q 569 1031 542 1054 q 650 1007 596 1007 q 741 1028 696 1007 q 831 1097 786 1049 l 886 1097 q 801 994 843 1032 q 724 936 760 956 q 656 910 688 917 q 603 904 625 904 q 556 910 579 904 q 516 930 533 917 q 488 965 499 943 q 478 1019 478 988 q 492 1097 478 1054 l 540 1097 z "},"â":{"ha":839,"x_min":0,"x_max":794,"o":"m 515 750 q 580 735 554 750 q 631 685 606 721 l 653 736 l 794 736 l 556 151 q 544 114 547 125 q 542 94 542 103 q 564 68 542 68 q 622 97 585 68 q 718 192 660 126 l 746 172 q 606 33 672 81 q 482 -14 540 -14 q 422 6 443 -14 q 400 67 400 26 q 410 130 400 97 q 447 207 419 163 l 439 211 q 290 39 357 92 q 153 -14 224 -14 q 41 34 82 -14 q 0 169 0 82 q 22 299 0 232 q 83 431 44 367 q 172 553 121 496 q 280 655 222 611 q 398 724 338 699 q 515 750 458 750 m 179 35 q 263 73 214 35 q 365 177 313 111 q 470 331 418 243 q 564 517 522 418 q 590 591 585 565 q 594 636 594 617 q 576 687 594 668 q 531 706 558 706 q 453 676 496 706 q 365 597 410 646 q 277 486 319 549 q 201 358 235 424 q 148 228 168 292 q 128 115 128 165 q 140 54 128 74 q 179 35 151 35 m 717 1190 q 758 1180 747 1190 q 772 1150 769 1169 l 794 889 l 763 872 l 665 1068 l 411 872 l 385 889 l 622 1150 q 717 1190 658 1190 z "},"´":{"ha":344,"x_min":14,"x_max":331,"o":"m 14 892 l 175 1129 q 263 1190 215 1190 q 311 1174 292 1190 q 331 1132 331 1157 q 315 1090 331 1111 q 261 1042 299 1069 l 36 876 l 14 892 z "},"ä":{"ha":839,"x_min":0,"x_max":857,"o":"m 515 750 q 580 735 554 750 q 631 685 606 721 l 653 736 l 794 736 l 556 151 q 544 114 547 125 q 542 94 542 103 q 564 68 542 68 q 622 97 585 68 q 718 192 660 126 l 746 172 q 606 33 672 81 q 482 -14 540 -14 q 422 6 443 -14 q 400 67 400 26 q 410 130 400 97 q 447 207 419 163 l 439 211 q 290 39 357 92 q 153 -14 224 -14 q 41 34 82 -14 q 0 169 0 82 q 22 299 0 232 q 83 431 44 367 q 172 553 121 496 q 280 655 222 611 q 398 724 338 699 q 515 750 458 750 m 179 35 q 263 73 214 35 q 365 177 313 111 q 470 331 418 243 q 564 517 522 418 q 590 591 585 565 q 594 636 594 617 q 576 687 594 668 q 531 706 558 706 q 453 676 496 706 q 365 597 410 646 q 277 486 319 549 q 201 358 235 424 q 148 228 168 292 q 128 115 128 165 q 140 54 128 74 q 179 35 151 35 m 535 1083 q 590 1064 567 1083 q 614 1015 614 1044 q 606 983 614 999 q 585 956 599 968 q 556 936 572 943 q 521 929 539 929 q 465 949 485 929 q 444 1000 444 968 q 472 1058 444 1033 q 535 1083 499 1083 m 778 1083 q 833 1064 810 1083 q 857 1015 857 1044 q 849 983 857 999 q 828 956 842 968 q 799 936 815 943 q 764 929 782 929 q 708 949 728 929 q 688 1000 688 968 q 715 1058 688 1033 q 778 1083 742 1083 z "},"æ":{"ha":1117,"x_min":1,"x_max":1129,"o":"m 1000 750 q 1094 724 1058 750 q 1129 654 1129 699 q 1094 567 1129 610 q 997 488 1060 525 q 848 422 935 451 q 657 374 761 392 q 578 128 578 225 q 658 35 578 35 q 728 49 690 35 q 803 87 765 63 q 877 145 840 111 q 944 221 914 179 l 975 201 q 801 40 889 94 q 624 -14 713 -14 q 493 34 539 -14 q 447 174 447 82 q 447 193 447 186 q 449 207 447 200 l 440 211 q 292 39 358 92 q 154 -14 225 -14 q 42 35 83 -14 q 1 168 1 83 q 24 300 1 232 q 85 433 46 368 q 174 555 124 497 q 282 656 225 613 q 399 724 339 699 q 515 750 458 750 q 580 735 554 750 q 632 685 606 721 l 654 736 l 796 736 l 763 656 q 882 726 821 701 q 1000 750 943 750 m 178 35 q 265 74 214 35 q 369 181 315 114 q 474 335 422 247 q 565 517 525 422 q 588 581 581 554 q 596 628 596 607 q 579 685 596 664 q 533 706 563 706 q 454 676 497 706 q 366 597 411 646 q 278 486 321 549 q 203 358 236 424 q 149 228 169 292 q 129 113 129 164 q 178 35 129 35 m 688 419 q 813 458 753 432 q 918 519 872 485 q 991 591 964 553 q 1018 665 1018 629 q 974 707 1018 707 q 913 692 944 707 q 848 649 881 676 q 785 584 815 622 q 732 501 756 546 l 688 419 z "},"ǽ":{"ha":1117,"x_min":1,"x_max":1129,"o":"m 1000 750 q 1094 724 1058 750 q 1129 654 1129 699 q 1094 567 1129 610 q 997 488 1060 525 q 848 422 935 451 q 657 374 761 392 q 578 128 578 225 q 658 35 578 35 q 728 49 690 35 q 803 87 765 63 q 877 145 840 111 q 944 221 914 179 l 975 201 q 801 40 889 94 q 624 -14 713 -14 q 493 34 539 -14 q 447 174 447 82 q 447 193 447 186 q 449 207 447 200 l 440 211 q 292 39 358 92 q 154 -14 225 -14 q 42 35 83 -14 q 1 168 1 83 q 24 300 1 232 q 85 433 46 368 q 174 555 124 497 q 282 656 225 613 q 399 724 339 699 q 515 750 458 750 q 580 735 554 750 q 632 685 606 721 l 654 736 l 796 736 l 763 656 q 882 726 821 701 q 1000 750 943 750 m 178 35 q 265 74 214 35 q 369 181 315 114 q 474 335 422 247 q 565 517 525 422 q 588 581 581 554 q 596 628 596 607 q 579 685 596 664 q 533 706 563 706 q 454 676 497 706 q 366 597 411 646 q 278 486 321 549 q 203 358 236 424 q 149 228 169 292 q 129 113 129 164 q 178 35 129 35 m 688 419 q 813 458 753 432 q 918 519 872 485 q 991 591 964 553 q 1018 665 1018 629 q 974 707 1018 707 q 913 692 944 707 q 848 649 881 676 q 785 584 815 622 q 732 501 756 546 l 688 419 m 767 892 l 928 1129 q 1015 1190 968 1190 q 1064 1174 1044 1190 q 1083 1132 1083 1157 q 1067 1090 1083 1111 q 1014 1042 1051 1069 l 789 876 l 767 892 z "},"à":{"ha":839,"x_min":0,"x_max":794,"o":"m 515 750 q 580 735 554 750 q 631 685 606 721 l 653 736 l 794 736 l 556 151 q 544 114 547 125 q 542 94 542 103 q 564 68 542 68 q 622 97 585 68 q 718 192 660 126 l 746 172 q 606 33 672 81 q 482 -14 540 -14 q 422 6 443 -14 q 400 67 400 26 q 410 130 400 97 q 447 207 419 163 l 439 211 q 290 39 357 92 q 153 -14 224 -14 q 41 34 82 -14 q 0 169 0 82 q 22 299 0 232 q 83 431 44 367 q 172 553 121 496 q 280 655 222 611 q 398 724 338 699 q 515 750 458 750 m 179 35 q 263 73 214 35 q 365 177 313 111 q 470 331 418 243 q 564 517 522 418 q 590 591 585 565 q 594 636 594 617 q 576 687 594 668 q 531 706 558 706 q 453 676 496 706 q 365 597 410 646 q 277 486 319 549 q 201 358 235 424 q 148 228 168 292 q 128 115 128 165 q 140 54 128 74 q 179 35 151 35 m 611 883 l 549 1049 q 534 1092 538 1076 q 531 1126 531 1108 q 553 1172 531 1154 q 603 1190 575 1190 q 668 1132 668 1190 q 667 1112 668 1118 q 667 1100 667 1106 l 650 892 l 611 883 z "},"ā":{"ha":839,"x_min":0,"x_max":869,"o":"m 515 750 q 580 735 554 750 q 631 685 606 721 l 653 736 l 794 736 l 556 151 q 544 114 547 125 q 542 94 542 103 q 564 68 542 68 q 622 97 585 68 q 718 192 660 126 l 746 172 q 606 33 672 81 q 482 -14 540 -14 q 422 6 443 -14 q 400 67 400 26 q 410 130 400 97 q 447 207 419 163 l 439 211 q 290 39 357 92 q 153 -14 224 -14 q 41 34 82 -14 q 0 169 0 82 q 22 299 0 232 q 83 431 44 367 q 172 553 121 496 q 280 655 222 611 q 398 724 338 699 q 515 750 458 750 m 179 35 q 263 73 214 35 q 365 177 313 111 q 470 331 418 243 q 564 517 522 418 q 590 591 585 565 q 594 636 594 617 q 576 687 594 668 q 531 706 558 706 q 453 676 496 706 q 365 597 410 646 q 277 486 319 549 q 201 358 235 424 q 148 228 168 292 q 128 115 128 165 q 140 54 128 74 q 179 35 151 35 m 432 985 l 471 1083 l 869 1083 l 829 985 l 432 985 z "},"&":{"ha":1293,"x_min":129,"x_max":1367,"o":"m 624 122 q 803 148 721 122 q 947 218 886 174 q 1042 323 1007 263 q 1076 453 1076 383 q 1026 579 1076 535 q 892 624 975 624 q 828 615 858 624 q 775 594 797 607 q 740 563 753 581 q 726 529 726 546 q 743 498 726 506 q 781 485 760 490 q 818 469 801 479 q 835 429 835 458 q 812 387 835 401 q 760 372 789 372 q 724 379 742 372 q 691 401 706 386 q 667 437 676 415 q 657 486 657 458 q 672 562 657 529 q 726 619 686 594 q 835 665 765 644 q 1018 704 906 685 q 1133 726 1079 714 q 1228 758 1188 738 q 1291 810 1268 778 q 1314 893 1314 843 q 1288 967 1314 943 q 1229 992 1263 992 q 1188 981 1204 992 q 1156 956 1171 969 q 1126 931 1142 942 q 1089 919 1111 919 q 1050 933 1065 919 q 1035 974 1035 947 q 1082 1053 1035 1022 q 1197 1083 1129 1083 q 1319 1043 1272 1083 q 1367 917 1367 1003 q 1288 720 1367 790 q 1057 625 1208 650 l 1056 619 q 1129 551 1103 600 q 1156 432 1156 501 q 1110 256 1156 338 q 985 115 1064 175 q 801 21 906 56 q 578 -14 696 -14 q 395 12 478 -14 q 253 85 313 38 q 162 198 194 132 q 129 344 129 264 q 175 521 129 444 q 306 644 221 597 q 279 701 289 668 q 269 769 269 733 q 289 865 269 819 q 342 944 308 910 q 419 998 375 978 q 511 1018 463 1018 q 582 1006 549 1018 q 640 974 615 994 q 678 927 664 954 q 693 869 693 900 q 672 807 693 831 q 615 783 651 783 q 574 797 586 783 q 556 828 561 810 q 551 870 551 847 q 546 912 551 893 q 526 944 540 931 q 481 957 513 957 q 422 943 450 957 q 374 906 394 929 q 341 851 353 882 q 329 783 329 819 q 335 725 329 754 q 354 676 342 696 q 393 688 372 683 q 433 692 414 692 q 497 674 472 692 q 521 628 521 656 q 499 578 521 597 q 443 558 478 558 q 388 570 418 558 q 335 601 358 582 q 252 529 285 582 q 219 408 219 476 q 249 292 219 344 q 333 201 279 239 q 462 143 388 164 q 624 122 536 122 z "},"ą":{"ha":840,"x_min":0,"x_max":794,"o":"m 508 -275 q 318 -356 413 -356 q 225 -283 225 -356 q 290 -153 225 -225 q 467 -12 354 -81 q 417 10 435 -10 q 400 67 400 31 q 410 130 400 97 q 447 207 419 163 l 439 211 q 290 39 357 92 q 153 -14 224 -14 q 41 34 82 -14 q 0 169 0 82 q 22 299 0 232 q 83 431 44 367 q 172 553 121 496 q 280 655 222 611 q 398 724 338 699 q 515 750 458 750 q 580 735 554 750 q 631 685 606 721 l 653 736 l 794 736 l 556 151 q 544 114 547 125 q 542 94 542 103 q 564 68 542 68 q 622 97 585 68 q 718 192 660 126 l 746 172 q 554 3 644 43 q 410 -133 461 -71 q 360 -239 360 -196 q 411 -279 360 -279 q 450 -273 431 -279 q 501 -250 469 -267 l 508 -275 m 179 35 q 263 73 214 35 q 365 177 313 111 q 470 331 418 243 q 564 517 522 418 q 590 591 585 565 q 594 636 594 617 q 576 687 594 668 q 531 706 558 706 q 453 676 496 706 q 365 597 410 646 q 277 486 319 549 q 201 358 235 424 q 148 228 168 292 q 128 115 128 165 q 140 54 128 74 q 179 35 151 35 z "},"ʼ":{"ha":207,"x_min":14,"x_max":193,"o":"m 85 1044 q 31 1121 31 1057 q 53 1172 31 1153 q 117 1190 76 1190 q 193 1101 193 1190 q 153 983 193 1043 q 38 874 113 924 l 14 900 q 87 965 56 928 q 118 1025 118 1001 q 113 1038 118 1035 q 85 1044 108 1040 z "},"å":{"ha":839,"x_min":0,"x_max":794,"o":"m 515 750 q 580 735 554 750 q 631 685 606 721 l 653 736 l 794 736 l 556 151 q 544 114 547 125 q 542 94 542 103 q 564 68 542 68 q 622 97 585 68 q 718 192 660 126 l 746 172 q 606 33 672 81 q 482 -14 540 -14 q 422 6 443 -14 q 400 67 400 26 q 410 130 400 97 q 447 207 419 163 l 439 211 q 290 39 357 92 q 153 -14 224 -14 q 41 34 82 -14 q 0 169 0 82 q 22 299 0 232 q 83 431 44 367 q 172 553 121 496 q 280 655 222 611 q 398 724 338 699 q 515 750 458 750 m 179 35 q 263 73 214 35 q 365 177 313 111 q 470 331 418 243 q 564 517 522 418 q 590 591 585 565 q 594 636 594 617 q 576 687 594 668 q 531 706 558 706 q 453 676 496 706 q 365 597 410 646 q 277 486 319 549 q 201 358 235 424 q 148 228 168 292 q 128 115 128 165 q 140 54 128 74 q 179 35 151 35 m 669 1135 q 753 1105 718 1135 q 788 1032 788 1075 q 776 984 788 1007 q 744 943 764 961 q 698 915 724 925 q 644 904 672 904 q 565 934 596 904 q 535 1008 535 964 q 545 1056 535 1033 q 574 1097 556 1079 q 617 1124 593 1114 q 669 1135 642 1135 m 665 1086 q 610 1065 633 1086 q 588 1013 588 1043 q 606 969 588 986 q 651 953 624 953 q 709 976 683 953 q 735 1026 735 999 q 714 1069 735 1051 q 665 1086 693 1086 z "},"ǻ":{"ha":839,"x_min":0,"x_max":953,"o":"m 515 750 q 580 735 554 750 q 631 685 606 721 l 653 736 l 794 736 l 556 151 q 544 114 547 125 q 542 94 542 103 q 564 68 542 68 q 622 97 585 68 q 718 192 660 126 l 746 172 q 606 33 672 81 q 482 -14 540 -14 q 422 6 443 -14 q 400 67 400 26 q 410 130 400 97 q 447 207 419 163 l 439 211 q 290 39 357 92 q 153 -14 224 -14 q 41 34 82 -14 q 0 169 0 82 q 22 299 0 232 q 83 431 44 367 q 172 553 121 496 q 280 655 222 611 q 398 724 338 699 q 515 750 458 750 m 179 35 q 263 73 214 35 q 365 177 313 111 q 470 331 418 243 q 564 517 522 418 q 590 591 585 565 q 594 636 594 617 q 576 687 594 668 q 531 706 558 706 q 453 676 496 706 q 365 597 410 646 q 277 486 319 549 q 201 358 235 424 q 148 228 168 292 q 128 115 128 165 q 140 54 128 74 q 179 35 151 35 m 650 1063 q 733 1033 699 1063 q 768 960 768 1003 q 756 912 768 935 q 724 871 744 889 q 678 842 704 853 q 625 832 653 832 q 546 862 576 832 q 515 936 515 892 q 526 984 515 961 q 555 1024 536 1007 q 598 1052 574 1042 q 650 1063 622 1063 m 646 1014 q 591 992 614 1014 q 568 940 568 971 q 586 897 568 914 q 632 881 604 881 q 690 903 664 881 q 715 954 715 926 q 694 997 715 979 q 646 1014 674 1014 m 632 1163 l 832 1311 q 893 1333 863 1333 q 935 1317 917 1333 q 953 1274 953 1300 q 933 1230 953 1250 q 858 1194 913 1210 l 647 1133 l 632 1163 z "},"^":{"ha":692,"x_min":94,"x_max":656,"o":"m 94 461 l 568 988 l 618 988 l 656 461 l 606 461 l 567 901 l 561 901 l 161 461 l 94 461 z "},"~":{"ha":815,"x_min":76,"x_max":729,"o":"m 76 310 q 102 369 85 336 q 147 431 119 403 q 210 479 174 460 q 296 499 247 499 q 367 488 333 499 q 433 463 400 476 q 499 438 465 449 q 571 426 532 426 q 643 447 618 426 q 688 499 668 467 l 729 499 q 703 438 721 471 q 659 377 686 406 q 594 329 632 349 q 510 310 557 310 q 439 322 472 310 q 372 347 406 333 q 305 372 339 360 q 233 383 271 383 q 162 363 186 383 q 118 310 138 342 l 76 310 z "},"*":{"ha":676,"x_min":244,"x_max":803,"o":"m 532 850 l 526 803 q 522 719 521 756 q 515 656 522 683 q 491 616 508 632 q 449 600 474 600 q 410 636 410 600 q 418 672 410 653 q 438 713 426 692 q 462 756 449 733 q 485 804 475 779 l 503 850 l 456 821 q 408 785 429 804 q 367 751 386 767 q 328 724 347 735 q 289 714 310 714 q 256 724 267 714 q 244 751 244 735 q 263 797 244 782 q 311 820 282 811 q 376 836 340 829 q 449 858 413 843 l 494 876 l 456 894 q 404 912 431 906 q 356 924 378 918 q 319 940 333 931 q 304 967 304 949 q 326 1016 304 994 q 379 1038 347 1038 q 413 1027 400 1038 q 435 1001 425 1017 q 457 965 446 985 q 488 929 468 946 l 517 903 l 524 950 q 526 974 526 963 q 526 994 526 985 q 526 1022 526 1010 q 525 1047 525 1035 q 549 1127 525 1101 q 601 1153 574 1153 q 628 1144 617 1153 q 639 1115 639 1135 q 631 1075 639 1093 q 611 1038 622 1057 q 587 997 600 1018 q 564 947 574 975 l 547 903 l 589 931 q 644 971 621 951 q 685 1006 667 990 q 722 1030 704 1021 q 758 1039 739 1039 q 792 1028 782 1039 q 803 1000 803 1017 q 785 953 803 968 q 738 931 767 939 q 672 916 708 922 q 601 896 636 910 l 554 878 l 589 860 q 642 839 615 846 q 692 826 669 832 q 728 811 714 819 q 743 785 743 803 q 719 734 743 753 q 668 715 696 715 q 634 726 647 715 q 610 752 621 736 q 589 787 600 768 q 561 822 578 806 l 532 850 z "},"@":{"ha":1278,"x_min":58,"x_max":1150,"o":"m 900 -171 q 765 -227 839 -207 q 592 -247 690 -247 q 398 -219 493 -247 q 227 -131 303 -190 q 105 19 151 -72 q 58 235 58 110 q 110 487 58 374 q 249 681 163 600 q 448 804 335 761 q 683 847 561 847 q 880 813 793 847 q 1026 721 967 778 q 1118 590 1086 664 q 1150 436 1150 515 q 1126 280 1150 354 q 1059 150 1101 206 q 958 62 1017 94 q 829 29 899 29 q 732 60 767 29 q 697 149 697 90 q 704 176 697 165 l 699 178 q 592 73 646 99 q 486 47 538 47 q 372 94 413 47 q 331 228 331 140 q 361 353 331 285 q 442 483 392 422 q 559 584 493 543 q 697 625 625 625 q 757 610 729 625 q 799 571 785 594 l 804 571 l 819 625 l 931 625 l 818 222 q 808 165 808 192 q 875 99 808 99 q 948 120 911 99 q 1014 183 985 142 q 1062 287 1043 225 q 1081 429 1081 349 q 1049 577 1081 511 q 963 689 1018 643 q 832 760 907 735 q 669 785 757 785 q 466 739 556 785 q 314 617 376 693 q 218 442 251 542 q 185 236 185 343 q 207 92 185 167 q 282 -44 229 18 q 422 -146 335 -106 q 639 -186 508 -186 q 784 -171 725 -186 q 885 -131 843 -156 l 900 -171 m 526 124 q 608 160 567 124 q 683 252 650 197 q 738 370 717 307 q 758 488 758 433 q 745 543 758 521 q 699 565 732 565 q 618 529 661 565 q 538 441 575 493 q 476 329 501 389 q 451 222 451 269 q 469 147 451 169 q 526 124 488 124 z "},"ã":{"ha":839,"x_min":0,"x_max":876,"o":"m 515 750 q 580 735 554 750 q 631 685 606 721 l 653 736 l 794 736 l 556 151 q 544 114 547 125 q 542 94 542 103 q 564 68 542 68 q 622 97 585 68 q 718 192 660 126 l 746 172 q 606 33 672 81 q 482 -14 540 -14 q 422 6 443 -14 q 400 67 400 26 q 410 130 400 97 q 447 207 419 163 l 439 211 q 290 39 357 92 q 153 -14 224 -14 q 41 34 82 -14 q 0 169 0 82 q 22 299 0 232 q 83 431 44 367 q 172 553 121 496 q 280 655 222 611 q 398 724 338 699 q 515 750 458 750 m 179 35 q 263 73 214 35 q 365 177 313 111 q 470 331 418 243 q 564 517 522 418 q 590 591 585 565 q 594 636 594 617 q 576 687 594 668 q 531 706 558 706 q 453 676 496 706 q 365 597 410 646 q 277 486 319 549 q 201 358 235 424 q 148 228 168 292 q 128 115 128 165 q 140 54 128 74 q 179 35 151 35 m 400 949 q 467 1063 419 1019 q 565 1107 514 1107 q 613 1099 589 1107 q 662 1083 638 1092 q 710 1066 686 1074 q 757 1058 733 1058 q 843 1111 815 1058 l 876 1111 q 805 993 853 1039 q 706 947 757 947 q 658 956 681 947 q 611 974 635 964 q 565 993 588 985 q 517 1001 542 1001 q 429 949 453 1001 l 400 949 z "},"b":{"ha":799,"x_min":47,"x_max":739,"o":"m 279 1139 l 546 1139 l 350 642 l 357 642 q 459 722 404 694 q 567 750 514 750 q 692 695 646 750 q 739 536 739 640 q 697 338 739 436 q 585 160 654 239 q 426 34 515 82 q 246 -14 338 -14 q 98 38 149 -14 q 47 182 47 90 q 85 346 47 254 l 393 1101 l 285 1118 l 279 1139 m 263 431 q 230 360 247 401 q 197 274 213 318 q 172 188 182 231 q 161 114 161 146 q 182 56 161 78 q 235 35 203 35 q 310 61 269 35 q 392 131 351 88 q 472 230 433 174 q 540 347 510 286 q 587 467 569 407 q 604 578 604 526 q 585 667 604 633 q 532 701 565 701 q 467 681 503 701 q 396 623 432 660 q 324 537 360 586 q 263 431 289 488 z "},"\\":{"ha":871,"x_min":335,"x_max":567,"o":"m 471 -235 l 335 1138 l 432 1138 l 567 -235 l 471 -235 z "},"|":{"ha":432,"x_min":-39,"x_max":503,"o":"m -39 -236 l 406 1138 l 503 1138 l 57 -236 l -39 -236 z "},"{":{"ha":499,"x_min":-19,"x_max":669,"o":"m 221 -250 q 168 -265 193 -260 q 115 -269 143 -269 q 13 -248 46 -269 q -19 -178 -19 -226 q -1 -89 -19 -140 q 45 22 18 -37 q 101 144 72 81 q 150 269 131 208 q 169 368 169 332 q 146 426 169 408 q 72 444 122 444 l 83 476 q 199 516 156 476 q 271 643 243 556 q 292 727 283 682 q 309 817 301 772 q 324 901 317 861 q 342 974 331 942 q 433 1105 369 1060 q 588 1150 497 1150 q 632 1145 613 1150 q 669 1132 651 1140 l 650 1096 q 617 1101 628 1100 q 594 1103 606 1103 q 515 1067 550 1103 q 461 971 481 1032 q 444 902 451 942 q 428 818 436 863 q 410 728 419 774 q 389 644 401 683 q 326 525 365 569 q 229 461 288 481 l 228 456 q 273 421 258 442 q 288 367 288 400 q 266 274 288 333 q 216 149 244 215 q 158 19 188 83 q 115 -90 129 -46 q 101 -162 101 -132 q 165 -218 101 -218 q 225 -210 196 -218 l 221 -250 z "},"}":{"ha":497,"x_min":-150,"x_max":535,"o":"m -129 -210 q -75 -218 -104 -218 q 15 -174 -15 -218 q 65 -58 46 -129 q 99 103 83 14 q 143 281 114 192 q 203 395 167 356 q 300 456 240 435 l 301 461 q 244 556 244 486 q 265 649 244 594 q 311 761 285 703 q 364 875 338 819 q 403 971 390 931 q 412 1005 410 989 q 414 1036 414 1021 q 399 1085 414 1068 q 353 1103 385 1103 q 330 1101 342 1103 q 294 1096 318 1100 l 297 1132 q 344 1145 321 1140 q 393 1150 368 1150 q 535 1043 535 1150 q 517 966 535 1011 q 475 867 500 921 q 424 756 450 814 q 379 643 397 699 q 366 594 371 615 q 361 554 361 572 q 458 476 361 476 l 447 444 q 331 404 374 444 q 258 269 289 364 q 233 174 243 224 q 213 77 222 125 q 196 -15 204 29 q 175 -97 188 -60 q 89 -229 144 -189 q -58 -269 33 -269 q -107 -265 -86 -269 q -150 -250 -128 -260 l -129 -210 z "},"[":{"ha":506,"x_min":-47,"x_max":682,"o":"m -47 -260 l 406 1139 l 682 1139 l 668 1094 l 504 1094 l 79 -217 l 242 -217 l 228 -260 l -47 -260 z "},"]":{"ha":504,"x_min":-156,"x_max":574,"o":"m -156 -260 l -142 -217 l 22 -217 l 447 1094 l 283 1094 l 297 1139 l 574 1139 l 119 -260 l -156 -260 z "},"˘":{"ha":436,"x_min":14,"x_max":422,"o":"m 76 1097 q 105 1031 78 1054 q 186 1007 132 1007 q 277 1028 232 1007 q 367 1097 322 1049 l 422 1097 q 338 994 379 1032 q 260 936 296 956 q 192 910 224 917 q 139 904 161 904 q 92 910 115 904 q 52 930 69 917 q 24 965 35 943 q 14 1019 14 988 q 28 1097 14 1054 l 76 1097 z "},"¦":{"ha":364,"x_min":-58,"x_max":479,"o":"m 213 600 l 386 1138 l 479 1138 l 306 600 l 213 600 m -58 -237 l 114 300 l 207 300 l 33 -237 l -58 -237 z "},"•":{"ha":593,"x_min":161,"x_max":511,"o":"m 349 681 q 410 669 381 681 q 463 640 440 658 q 498 595 485 621 q 511 539 511 569 q 494 474 511 506 q 451 417 478 442 q 390 376 424 392 q 319 361 356 361 q 203 401 246 361 q 161 507 161 440 q 176 574 161 543 q 218 629 192 606 q 278 667 244 653 q 349 681 311 681 z "},"c":{"ha":692,"x_min":14,"x_max":722,"o":"m 538 707 q 451 680 496 707 q 363 607 406 653 q 282 502 321 561 q 215 380 243 443 q 169 253 186 317 q 151 138 151 190 q 170 60 151 85 q 233 35 189 35 q 533 221 351 35 l 564 203 q 379 41 472 96 q 194 -14 286 -14 q 59 40 104 -14 q 14 199 14 94 q 76 426 15 313 q 246 626 136 540 q 403 717 321 685 q 554 750 485 750 q 621 740 590 750 q 674 713 651 731 q 710 673 697 696 q 722 624 722 650 q 706 583 722 599 q 661 568 689 568 q 597 635 607 568 q 577 690 590 674 q 538 707 564 707 z "},"ć":{"ha":692,"x_min":14,"x_max":801,"o":"m 538 707 q 451 680 496 707 q 363 607 406 653 q 282 502 321 561 q 215 380 243 443 q 169 253 186 317 q 151 138 151 190 q 170 60 151 85 q 233 35 189 35 q 533 221 351 35 l 564 203 q 379 41 472 96 q 194 -14 286 -14 q 59 40 104 -14 q 14 199 14 94 q 76 426 15 313 q 246 626 136 540 q 403 717 321 685 q 554 750 485 750 q 621 740 590 750 q 674 713 651 731 q 710 673 697 696 q 722 624 722 650 q 706 583 722 599 q 661 568 689 568 q 597 635 607 568 q 577 690 590 674 q 538 707 564 707 m 485 892 l 646 1129 q 733 1190 686 1190 q 782 1174 763 1190 q 801 1132 801 1157 q 785 1090 801 1111 q 732 1042 769 1069 l 507 876 l 485 892 z "},"ˇ":{"ha":438,"x_min":14,"x_max":424,"o":"m 92 872 q 50 883 61 872 q 36 913 39 893 l 14 1174 l 46 1190 l 143 994 l 397 1190 l 424 1174 l 186 913 q 92 872 150 872 z "},"č":{"ha":692,"x_min":14,"x_max":919,"o":"m 538 707 q 451 680 496 707 q 363 607 406 653 q 282 502 321 561 q 215 380 243 443 q 169 253 186 317 q 151 138 151 190 q 170 60 151 85 q 233 35 189 35 q 533 221 351 35 l 564 203 q 379 41 472 96 q 194 -14 286 -14 q 59 40 104 -14 q 14 199 14 94 q 76 426 15 313 q 246 626 136 540 q 403 717 321 685 q 554 750 485 750 q 621 740 590 750 q 674 713 651 731 q 710 673 697 696 q 722 624 722 650 q 706 583 722 599 q 661 568 689 568 q 597 635 607 568 q 577 690 590 674 q 538 707 564 707 m 588 872 q 546 883 557 872 q 532 913 535 893 l 510 1174 l 542 1190 l 639 994 l 893 1190 l 919 1174 l 682 913 q 588 872 646 872 z "},"ç":{"ha":692,"x_min":-15,"x_max":722,"o":"m 8 -292 q 81 -314 39 -314 q 169 -287 133 -314 q 204 -217 204 -260 q 146 -169 204 -169 q 79 -186 104 -169 l 68 -168 l 189 -14 q 14 199 14 -10 q 76 426 15 313 q 246 626 136 540 q 403 717 321 685 q 554 750 485 750 q 621 740 590 750 q 674 713 651 731 q 710 673 697 696 q 722 624 722 650 q 706 583 722 599 q 661 568 689 568 q 597 635 607 568 q 577 690 590 674 q 538 707 564 707 q 451 680 496 707 q 363 607 406 653 q 282 502 321 561 q 215 380 243 443 q 169 253 186 317 q 151 138 151 190 q 170 60 151 85 q 233 35 189 35 q 533 221 351 35 l 564 203 q 250 -8 407 19 l 196 -81 q 286 -106 254 -81 q 318 -178 318 -132 q 299 -246 318 -214 q 247 -303 279 -278 q 172 -342 214 -328 q 82 -357 129 -357 q -15 -324 10 -357 l 8 -292 z "},"ĉ":{"ha":692,"x_min":14,"x_max":783,"o":"m 538 707 q 451 680 496 707 q 363 607 406 653 q 282 502 321 561 q 215 380 243 443 q 169 253 186 317 q 151 138 151 190 q 170 60 151 85 q 233 35 189 35 q 533 221 351 35 l 564 203 q 379 41 472 96 q 194 -14 286 -14 q 59 40 104 -14 q 14 199 14 94 q 76 426 15 313 q 246 626 136 540 q 403 717 321 685 q 554 750 485 750 q 621 740 590 750 q 674 713 651 731 q 710 673 697 696 q 722 624 722 650 q 706 583 722 599 q 661 568 689 568 q 597 635 607 568 q 577 690 590 674 q 538 707 564 707 m 706 1190 q 747 1180 736 1190 q 761 1150 758 1169 l 783 889 l 751 872 l 654 1068 l 400 872 l 374 889 l 611 1150 q 706 1190 647 1190 z "},"ċ":{"ha":692,"x_min":14,"x_max":733,"o":"m 538 707 q 451 680 496 707 q 363 607 406 653 q 282 502 321 561 q 215 380 243 443 q 169 253 186 317 q 151 138 151 190 q 170 60 151 85 q 233 35 189 35 q 533 221 351 35 l 564 203 q 379 41 472 96 q 194 -14 286 -14 q 59 40 104 -14 q 14 199 14 94 q 76 426 15 313 q 246 626 136 540 q 403 717 321 685 q 554 750 485 750 q 621 740 590 750 q 674 713 651 731 q 710 673 697 696 q 722 624 722 650 q 706 583 722 599 q 661 568 689 568 q 597 635 607 568 q 577 690 590 674 q 538 707 564 707 m 644 1083 q 707 1061 681 1083 q 733 1007 733 1039 q 724 970 733 988 q 701 940 715 953 q 667 918 686 926 q 629 910 649 910 q 566 931 589 910 q 543 989 543 953 q 574 1056 543 1028 q 644 1083 604 1083 z "},"¸":{"ha":319,"x_min":-37,"x_max":296,"o":"m -14 -292 q 58 -314 17 -314 q 147 -287 111 -314 q 182 -217 182 -260 q 124 -169 182 -169 q 57 -186 82 -169 l 46 -168 l 197 24 l 253 24 l 174 -81 q 264 -106 232 -81 q 296 -178 296 -132 q 276 -246 296 -214 q 224 -303 257 -278 q 149 -342 192 -328 q 60 -357 107 -357 q -37 -324 -12 -357 l -14 -292 z "},"¢":{"ha":724,"x_min":21,"x_max":729,"o":"m 586 749 q 689 706 649 742 q 729 624 729 671 q 713 583 729 599 q 668 568 696 568 q 604 635 614 568 q 567 703 594 692 l 292 43 q 540 221 399 75 l 571 203 q 272 -6 424 29 l 188 -208 l 125 -208 l 206 -14 q 67 40 113 -14 q 21 199 21 94 q 83 426 22 313 q 253 626 143 540 q 389 708 318 676 q 524 747 460 740 l 608 953 l 671 953 l 586 749 m 158 138 q 174 64 158 89 q 226 35 189 39 l 503 700 q 422 655 463 688 q 342 576 381 622 q 271 474 304 529 q 213 360 238 418 q 173 244 188 301 q 158 138 158 186 z "},"ˆ":{"ha":438,"x_min":14,"x_max":424,"o":"m 346 1190 q 388 1180 376 1190 q 401 1150 399 1169 l 424 889 l 392 872 l 294 1068 l 40 872 l 14 889 l 251 1150 q 346 1190 288 1190 z "},":":{"ha":454,"x_min":3,"x_max":392,"o":"m 122 190 q 195 165 164 190 q 226 100 226 139 q 216 58 226 78 q 188 22 206 38 q 149 -4 171 6 q 104 -14 126 -14 q 30 12 57 -14 q 3 79 3 38 q 13 122 3 101 q 39 158 22 143 q 77 181 56 172 q 122 190 99 190 m 288 696 q 360 670 329 696 q 392 606 392 644 q 381 563 392 583 q 353 527 371 543 q 314 501 336 511 q 269 492 292 492 q 195 517 222 492 q 168 585 168 543 q 178 628 168 607 q 204 663 188 649 q 242 687 221 678 q 288 696 264 696 z "},",":{"ha":401,"x_min":-61,"x_max":179,"o":"m 42 0 q -37 89 -37 14 q -9 163 -37 136 q 68 190 19 190 q 150 158 121 190 q 179 63 179 125 q 125 -103 179 -22 q -36 -258 71 -185 l -61 -229 q -3 -180 -31 -207 q 44 -125 24 -153 q 78 -72 65 -97 q 90 -29 90 -47 q 83 -11 90 -15 q 42 0 75 -7 z "},"":{"ha":189,"x_min":-17,"x_max":175,"o":"m 54 -221 q 14 -160 14 -210 q 36 -98 14 -121 q 106 -75 58 -75 q 175 -153 175 -75 q 131 -259 175 -206 q 4 -357 86 -312 l -17 -331 q 56 -282 26 -310 q 86 -237 86 -254 q 80 -228 86 -231 q 54 -221 74 -225 z "},"©":{"ha":1354,"x_min":176,"x_max":1279,"o":"m 176 535 q 219 747 176 647 q 338 922 263 847 q 513 1040 413 997 q 728 1083 614 1083 q 942 1040 842 1083 q 1118 922 1043 997 q 1236 747 1193 847 q 1279 535 1279 647 q 1236 322 1279 422 q 1118 147 1193 222 q 942 29 1043 72 q 728 -14 842 -14 q 513 29 614 -14 q 338 147 413 72 q 219 322 263 222 q 176 535 176 422 m 242 535 q 280 347 242 435 q 384 194 318 260 q 539 91 450 129 q 728 53 628 53 q 917 91 828 53 q 1071 194 1006 129 q 1174 347 1136 260 q 1213 535 1213 435 q 1174 722 1213 635 q 1071 875 1136 810 q 917 978 1006 940 q 728 1017 828 1017 q 539 978 628 1017 q 384 875 450 940 q 280 722 318 810 q 242 535 242 635 m 388 536 q 413 679 388 614 q 483 792 438 744 q 590 865 528 839 q 728 892 653 892 q 826 876 778 892 q 914 831 874 861 l 919 831 l 957 889 l 978 889 l 978 668 l 944 668 q 930 708 938 690 q 910 747 922 725 q 842 817 882 796 q 743 839 801 839 q 588 762 642 839 q 533 542 533 685 q 589 320 533 399 q 744 242 644 242 q 901 324 847 242 q 947 439 932 367 l 978 439 l 978 190 l 957 190 l 917 261 q 826 206 872 224 q 725 189 781 189 q 588 214 650 189 q 481 285 526 239 q 412 394 436 331 q 388 536 388 458 z "},"¤":{"ha":986,"x_min":199,"x_max":865,"o":"m 265 176 l 199 243 l 292 335 q 233 511 233 406 q 292 686 233 611 l 199 776 l 265 843 l 357 750 q 532 808 431 808 q 708 751 628 808 l 799 843 l 865 776 l 772 685 q 831 511 831 611 q 774 335 831 413 l 865 243 l 799 176 l 707 269 q 532 211 633 211 q 357 269 432 211 l 265 176 m 532 300 q 610 317 574 300 q 674 362 646 333 q 717 428 701 390 q 733 510 733 467 q 717 591 733 553 q 674 658 701 629 q 610 703 646 686 q 532 719 574 719 q 454 703 490 719 q 390 658 418 686 q 347 592 363 629 q 331 511 331 554 q 347 430 331 468 q 390 363 363 392 q 454 317 418 333 q 532 300 490 300 z "},"d":{"ha":838,"x_min":4,"x_max":933,"o":"m 668 1139 l 933 1139 l 561 151 q 549 115 551 126 q 546 94 546 103 q 553 74 546 79 q 571 68 560 68 q 625 97 592 68 q 717 192 658 126 l 744 172 q 490 -14 607 -14 q 425 11 444 -14 q 406 86 406 36 q 416 140 406 111 q 446 207 426 168 l 443 211 q 365 107 401 150 q 295 37 329 64 q 227 -2 261 10 q 156 -14 193 -14 q 4 167 4 -14 q 49 367 4 264 q 167 555 94 469 q 327 695 239 640 q 503 750 415 750 q 569 735 543 750 q 621 685 594 721 l 782 1101 l 675 1118 l 668 1139 m 181 35 q 264 74 215 35 q 364 178 313 113 q 466 332 415 244 q 557 517 517 419 q 583 590 576 565 q 592 636 590 615 q 570 687 586 668 q 526 706 554 706 q 449 676 492 706 q 361 597 406 646 q 275 485 317 547 q 201 356 233 422 q 149 226 168 290 q 129 113 129 163 q 143 53 129 72 q 181 35 157 35 z "},"†":{"ha":715,"x_min":183,"x_max":826,"o":"m 183 -189 q 240 24 217 -68 q 280 188 264 115 q 306 319 296 261 q 319 432 315 378 q 402 585 360 499 q 497 797 444 672 q 419 792 451 797 q 364 779 388 786 q 323 767 340 772 q 289 761 306 761 q 245 778 263 761 q 228 819 228 794 q 253 869 228 850 q 317 888 278 888 q 352 881 331 888 q 414 860 374 875 q 458 844 438 850 q 510 833 478 839 l 515 850 q 528 903 524 876 q 538 979 533 931 q 542 1037 540 1017 q 546 1069 544 1057 q 549 1086 547 1081 q 553 1099 550 1092 q 621 1153 569 1153 q 666 1136 649 1153 q 683 1092 683 1119 q 681 1073 683 1082 q 672 1051 678 1064 q 653 1021 665 1039 q 622 978 640 1003 q 584 916 600 946 q 557 850 568 886 l 551 833 q 599 843 567 836 q 658 860 631 850 q 731 883 711 878 q 763 888 750 888 q 808 872 790 888 q 826 832 826 856 q 802 782 826 803 q 743 761 778 761 q 706 767 724 761 q 665 779 688 772 q 613 792 643 786 q 539 797 583 797 q 496 597 510 685 q 481 432 482 508 q 419 318 449 378 q 358 185 389 258 q 291 20 326 111 q 214 -189 256 -71 l 183 -189 z "},"‡":{"ha":790,"x_min":18,"x_max":839,"o":"m 350 488 q 425 619 385 546 q 510 797 465 693 q 432 792 464 797 q 376 779 400 786 q 335 767 353 772 q 301 761 318 761 q 258 778 275 761 q 240 819 240 794 q 265 869 240 850 q 329 888 290 888 q 365 881 343 888 q 426 860 386 875 q 470 844 450 850 q 522 833 490 839 l 528 850 q 541 903 536 876 q 550 979 546 931 q 555 1037 553 1017 q 558 1069 557 1057 q 561 1086 560 1081 q 565 1099 563 1092 q 633 1153 582 1153 q 678 1136 661 1153 q 696 1092 696 1119 q 693 1072 696 1082 q 684 1050 690 1063 q 665 1020 678 1038 q 635 978 653 1003 q 596 916 611 946 q 569 850 581 886 l 564 833 q 611 843 579 836 q 671 860 643 850 q 743 883 724 878 q 775 888 763 888 q 821 872 803 888 q 839 832 839 856 q 815 782 839 803 q 756 761 790 761 q 718 767 736 761 q 678 779 700 772 q 626 792 656 786 q 551 797 596 797 q 521 626 529 701 q 511 488 513 551 q 435 349 474 425 q 347 164 396 272 q 425 169 393 164 q 481 182 457 175 q 522 194 504 189 q 556 200 539 200 q 599 183 582 200 q 617 142 617 167 q 592 92 617 111 q 528 74 567 74 q 502 78 517 74 q 465 92 488 83 q 411 110 443 100 q 335 128 379 119 l 329 111 q 315 57 319 83 q 307 -18 311 31 q 297 -104 303 -71 q 281 -157 290 -137 q 258 -184 271 -176 q 224 -192 244 -192 q 178 -175 196 -192 q 161 -131 161 -158 q 164 -112 161 -121 q 173 -90 167 -103 q 191 -60 179 -78 q 222 -17 203 -42 q 261 45 246 15 q 288 111 276 75 l 293 128 q 245 118 278 125 q 186 101 213 111 q 114 78 133 82 q 82 74 94 74 q 36 90 54 74 q 18 129 18 106 q 42 180 18 160 q 101 200 65 200 q 139 194 121 200 q 179 182 157 189 q 231 169 201 175 q 306 164 261 164 q 338 342 328 264 q 350 488 349 421 z "},"ď":{"ha":839,"x_min":4,"x_max":1179,"o":"m 668 1139 l 933 1139 l 561 151 q 549 115 551 126 q 546 94 546 103 q 553 74 546 79 q 571 68 560 68 q 625 97 592 68 q 717 192 658 126 l 744 172 q 490 -14 607 -14 q 425 11 444 -14 q 406 86 406 36 q 416 140 406 111 q 446 207 426 168 l 443 211 q 365 107 401 150 q 295 37 329 64 q 227 -2 261 10 q 156 -14 193 -14 q 4 167 4 -14 q 49 367 4 264 q 167 555 94 469 q 327 695 239 640 q 503 750 415 750 q 569 735 543 750 q 621 685 594 721 l 782 1101 l 675 1118 l 668 1139 m 181 35 q 264 74 215 35 q 364 178 313 113 q 466 332 415 244 q 557 517 517 419 q 583 590 576 565 q 592 636 590 615 q 570 687 586 668 q 526 706 554 706 q 449 676 492 706 q 361 597 406 646 q 275 485 317 547 q 201 356 233 422 q 149 226 168 290 q 129 113 129 163 q 143 53 129 72 q 181 35 157 35 m 979 892 l 1051 1126 q 1080 1176 1063 1161 q 1121 1190 1097 1190 q 1166 1174 1153 1190 q 1179 1135 1179 1158 q 1174 1107 1179 1121 q 1153 1074 1168 1093 l 1014 892 l 979 892 z "},"đ":{"ha":838,"x_min":4,"x_max":981,"o":"m 668 1139 l 933 1139 l 872 978 l 981 978 l 956 919 l 850 919 l 561 151 q 549 115 551 126 q 546 94 546 103 q 553 74 546 79 q 571 68 560 68 q 625 97 592 68 q 717 192 658 126 l 744 172 q 490 -14 607 -14 q 425 11 444 -14 q 406 86 406 36 q 416 140 406 111 q 446 207 426 168 l 443 211 q 365 107 401 150 q 295 37 329 64 q 227 -2 261 10 q 156 -14 193 -14 q 4 167 4 -14 q 49 367 4 264 q 167 555 94 469 q 327 695 239 640 q 503 750 415 750 q 569 735 543 750 q 621 685 594 721 l 711 919 l 558 919 l 582 978 l 733 978 l 782 1101 l 675 1118 l 668 1139 m 181 35 q 264 74 215 35 q 364 178 313 113 q 466 332 415 244 q 557 517 517 419 q 583 590 576 565 q 592 636 590 615 q 570 687 586 668 q 526 706 554 706 q 449 676 492 706 q 361 597 406 646 q 275 485 317 547 q 201 356 233 422 q 149 226 168 290 q 129 113 129 163 q 143 53 129 72 q 181 35 157 35 z "},"ḍ":{"ha":838,"x_min":4,"x_max":933,"o":"m 668 1139 l 933 1139 l 561 151 q 549 115 551 126 q 546 94 546 103 q 553 74 546 79 q 571 68 560 68 q 625 97 592 68 q 717 192 658 126 l 744 172 q 490 -14 607 -14 q 425 11 444 -14 q 406 86 406 36 q 416 140 406 111 q 446 207 426 168 l 443 211 q 365 107 401 150 q 295 37 329 64 q 227 -2 261 10 q 156 -14 193 -14 q 4 167 4 -14 q 49 367 4 264 q 167 555 94 469 q 327 695 239 640 q 503 750 415 750 q 569 735 543 750 q 621 685 594 721 l 782 1101 l 675 1118 l 668 1139 m 181 35 q 264 74 215 35 q 364 178 313 113 q 466 332 415 244 q 557 517 517 419 q 583 590 576 565 q 592 636 590 615 q 570 687 586 668 q 526 706 554 706 q 449 676 492 706 q 361 597 406 646 q 275 485 317 547 q 201 356 233 422 q 149 226 168 290 q 129 113 129 163 q 143 53 129 72 q 181 35 157 35 m 251 -182 q 314 -204 288 -182 q 340 -258 340 -226 q 331 -295 340 -278 q 308 -326 322 -312 q 274 -347 293 -339 q 236 -356 256 -356 q 173 -334 196 -356 q 150 -276 150 -312 q 181 -210 150 -237 q 251 -182 211 -182 z "},"°":{"ha":493,"x_min":311,"x_max":647,"o":"m 479 815 q 413 828 443 815 q 360 864 382 842 q 324 917 338 886 q 311 983 311 947 q 324 1049 311 1018 q 360 1103 338 1081 q 413 1140 382 1126 q 479 1153 443 1153 q 544 1140 514 1153 q 598 1103 575 1126 q 634 1049 621 1081 q 647 983 647 1018 q 634 917 647 947 q 599 864 621 886 q 545 828 576 842 q 479 815 514 815 m 368 983 q 399 903 368 935 q 479 872 431 872 q 560 903 529 872 q 590 983 590 935 q 560 1065 590 1033 q 479 1097 529 1097 q 399 1065 431 1097 q 368 983 368 1033 z "},"¨":{"ha":440,"x_min":14,"x_max":426,"o":"m 104 1083 q 160 1064 136 1083 q 183 1015 183 1044 q 176 983 183 999 q 155 956 168 968 q 125 936 142 943 q 90 929 108 929 q 34 949 54 929 q 14 1000 14 968 q 41 1058 14 1033 q 104 1083 68 1083 m 347 1083 q 403 1064 379 1083 q 426 1015 426 1044 q 419 983 426 999 q 398 956 411 968 q 368 936 385 943 q 333 929 351 929 q 277 949 297 929 q 257 1000 257 968 q 284 1058 257 1033 q 347 1083 311 1083 z "},"÷":{"ha":740,"x_min":107,"x_max":676,"o":"m 285 713 q 310 782 285 754 q 379 810 336 810 q 450 782 424 810 q 476 713 476 754 q 450 646 476 674 q 379 618 424 618 q 310 646 336 618 q 285 713 285 674 m 285 236 q 310 306 285 278 q 379 333 336 333 q 450 306 424 333 q 476 236 476 278 q 450 169 476 197 q 379 142 424 142 q 310 169 336 142 q 285 236 285 197 m 107 438 l 107 506 l 676 506 l 676 438 l 107 438 z "},"$":{"ha":801,"x_min":4,"x_max":879,"o":"m 699 1072 q 830 998 781 1051 q 879 874 879 944 q 860 811 879 833 q 806 789 840 789 q 729 882 742 789 q 710 965 722 935 q 674 1011 697 996 l 510 603 q 588 506 557 546 q 635 433 618 465 q 659 371 653 400 q 665 310 665 342 q 636 180 665 239 q 556 78 607 121 q 432 10 504 35 q 275 -14 360 -14 l 261 -14 l 183 -208 l 121 -208 l 201 -7 q 59 66 114 11 q 4 196 4 121 q 24 258 4 236 q 78 281 43 281 q 154 188 142 281 q 178 93 163 125 q 225 50 193 61 l 399 481 q 345 539 371 510 q 299 601 319 568 q 265 675 278 635 q 253 765 253 715 q 279 893 253 835 q 353 994 306 951 q 465 1060 400 1036 q 608 1083 531 1083 q 625 1083 617 1083 q 640 1082 633 1082 l 715 1267 l 778 1267 l 699 1072 m 283 42 q 454 96 393 42 q 515 246 515 150 q 494 349 515 304 q 440 432 472 393 l 283 42 m 399 814 q 401 773 399 790 q 410 738 403 756 q 431 699 418 719 q 468 651 444 679 l 618 1026 q 596 1028 611 1028 q 449 973 500 1028 q 399 814 399 918 z "},"˙":{"ha":218,"x_min":14,"x_max":204,"o":"m 115 1083 q 178 1061 151 1083 q 204 1007 204 1039 q 195 970 204 988 q 172 940 186 953 q 138 918 157 926 q 100 910 119 910 q 37 931 60 910 q 14 989 14 953 q 44 1056 14 1028 q 115 1083 75 1083 z "},"ı":{"ha":472,"x_min":32,"x_max":406,"o":"m 315 750 q 381 733 356 750 q 406 682 406 715 q 383 590 406 643 l 185 113 q 181 94 181 101 q 208 68 181 68 q 229 73 218 68 q 257 90 240 78 q 297 124 274 103 q 354 179 321 146 l 382 163 q 246 33 317 79 q 122 -14 175 -14 q 57 5 82 -14 q 32 64 32 24 q 37 104 32 82 q 53 154 42 126 l 254 649 q 261 675 261 664 q 243 688 261 688 q 185 665 218 688 q 121 601 153 642 l 89 626 q 198 717 136 685 q 315 750 260 750 z "},"ȷ":{"ha":425,"x_min":-404,"x_max":394,"o":"m 307 750 q 373 733 351 750 q 394 683 394 715 q 360 547 393 646 q 251 282 326 447 l 75 -112 q -58 -293 22 -231 q -242 -356 -137 -356 q -358 -326 -312 -356 q -404 -249 -404 -297 q -340 -183 -404 -183 q -290 -203 -304 -183 q -268 -245 -276 -222 q -247 -287 -260 -268 q -201 -307 -235 -307 q -160 -294 -181 -307 q -119 -250 -140 -281 q -73 -168 -97 -219 q -18 -39 -49 -117 l 135 350 q 190 493 168 438 q 224 583 211 549 q 241 636 236 618 q 246 665 246 654 q 226 683 246 683 q 111 601 176 683 l 82 626 q 191 718 132 686 q 307 750 250 750 z "},"e":{"ha":674,"x_min":0,"x_max":686,"o":"m 553 750 q 651 724 615 750 q 686 654 686 699 q 651 567 686 610 q 554 488 617 525 q 405 422 492 451 q 214 374 318 392 q 135 128 135 225 q 215 35 135 35 q 285 49 247 35 q 360 87 322 63 q 434 145 397 111 q 501 221 471 179 l 532 201 q 181 -14 361 -14 q 47 35 94 -14 q 0 174 0 83 q 24 305 0 238 q 88 436 47 372 q 184 558 129 500 q 300 658 239 615 q 426 725 361 700 q 553 750 492 750 m 244 419 q 368 458 308 432 q 474 519 428 485 q 547 591 519 553 q 575 665 575 629 q 531 707 575 707 q 469 692 501 707 q 404 649 436 676 q 342 583 372 621 q 289 501 313 546 l 244 419 z "},"é":{"ha":674,"x_min":0,"x_max":857,"o":"m 553 750 q 651 724 615 750 q 686 654 686 699 q 651 567 686 610 q 554 488 617 525 q 405 422 492 451 q 214 374 318 392 q 135 128 135 225 q 215 35 135 35 q 285 49 247 35 q 360 87 322 63 q 434 145 397 111 q 501 221 471 179 l 532 201 q 181 -14 361 -14 q 47 35 94 -14 q 0 174 0 83 q 24 305 0 238 q 88 436 47 372 q 184 558 129 500 q 300 658 239 615 q 426 725 361 700 q 553 750 492 750 m 244 419 q 368 458 308 432 q 474 519 428 485 q 547 591 519 553 q 575 665 575 629 q 531 707 575 707 q 469 692 501 707 q 404 649 436 676 q 342 583 372 621 q 289 501 313 546 l 244 419 m 540 892 l 701 1129 q 789 1190 742 1190 q 838 1174 818 1190 q 857 1132 857 1157 q 841 1090 857 1111 q 788 1042 825 1069 l 563 876 l 540 892 z "},"ĕ":{"ha":674,"x_min":0,"x_max":869,"o":"m 553 750 q 651 724 615 750 q 686 654 686 699 q 651 567 686 610 q 554 488 617 525 q 405 422 492 451 q 214 374 318 392 q 135 128 135 225 q 215 35 135 35 q 285 49 247 35 q 360 87 322 63 q 434 145 397 111 q 501 221 471 179 l 532 201 q 181 -14 361 -14 q 47 35 94 -14 q 0 174 0 83 q 24 305 0 238 q 88 436 47 372 q 184 558 129 500 q 300 658 239 615 q 426 725 361 700 q 553 750 492 750 m 244 419 q 368 458 308 432 q 474 519 428 485 q 547 591 519 553 q 575 665 575 629 q 531 707 575 707 q 469 692 501 707 q 404 649 436 676 q 342 583 372 621 q 289 501 313 546 l 244 419 m 524 1097 q 552 1031 525 1054 q 633 1007 579 1007 q 724 1028 679 1007 q 814 1097 769 1049 l 869 1097 q 785 994 826 1032 q 707 936 743 956 q 640 910 671 917 q 586 904 608 904 q 540 910 563 904 q 499 930 517 917 q 472 965 482 943 q 461 1019 461 988 q 475 1097 461 1054 l 524 1097 z "},"ě":{"ha":674,"x_min":0,"x_max":904,"o":"m 553 750 q 651 724 615 750 q 686 654 686 699 q 651 567 686 610 q 554 488 617 525 q 405 422 492 451 q 214 374 318 392 q 135 128 135 225 q 215 35 135 35 q 285 49 247 35 q 360 87 322 63 q 434 145 397 111 q 501 221 471 179 l 532 201 q 181 -14 361 -14 q 47 35 94 -14 q 0 174 0 83 q 24 305 0 238 q 88 436 47 372 q 184 558 129 500 q 300 658 239 615 q 426 725 361 700 q 553 750 492 750 m 244 419 q 368 458 308 432 q 474 519 428 485 q 547 591 519 553 q 575 665 575 629 q 531 707 575 707 q 469 692 501 707 q 404 649 436 676 q 342 583 372 621 q 289 501 313 546 l 244 419 m 572 872 q 531 883 542 872 q 517 913 519 893 l 494 1174 l 526 1190 l 624 994 l 878 1190 l 904 1174 l 667 913 q 572 872 631 872 z "},"ê":{"ha":674,"x_min":0,"x_max":783,"o":"m 553 750 q 651 724 615 750 q 686 654 686 699 q 651 567 686 610 q 554 488 617 525 q 405 422 492 451 q 214 374 318 392 q 135 128 135 225 q 215 35 135 35 q 285 49 247 35 q 360 87 322 63 q 434 145 397 111 q 501 221 471 179 l 532 201 q 181 -14 361 -14 q 47 35 94 -14 q 0 174 0 83 q 24 305 0 238 q 88 436 47 372 q 184 558 129 500 q 300 658 239 615 q 426 725 361 700 q 553 750 492 750 m 244 419 q 368 458 308 432 q 474 519 428 485 q 547 591 519 553 q 575 665 575 629 q 531 707 575 707 q 469 692 501 707 q 404 649 436 676 q 342 583 372 621 q 289 501 313 546 l 244 419 m 706 1190 q 747 1180 736 1190 q 761 1150 758 1169 l 783 889 l 751 872 l 654 1068 l 400 872 l 374 889 l 611 1150 q 706 1190 647 1190 z "},"ë":{"ha":674,"x_min":0,"x_max":842,"o":"m 553 750 q 651 724 615 750 q 686 654 686 699 q 651 567 686 610 q 554 488 617 525 q 405 422 492 451 q 214 374 318 392 q 135 128 135 225 q 215 35 135 35 q 285 49 247 35 q 360 87 322 63 q 434 145 397 111 q 501 221 471 179 l 532 201 q 181 -14 361 -14 q 47 35 94 -14 q 0 174 0 83 q 24 305 0 238 q 88 436 47 372 q 184 558 129 500 q 300 658 239 615 q 426 725 361 700 q 553 750 492 750 m 244 419 q 368 458 308 432 q 474 519 428 485 q 547 591 519 553 q 575 665 575 629 q 531 707 575 707 q 469 692 501 707 q 404 649 436 676 q 342 583 372 621 q 289 501 313 546 l 244 419 m 519 1083 q 575 1064 551 1083 q 599 1015 599 1044 q 591 983 599 999 q 570 956 583 968 q 540 936 557 943 q 506 929 524 929 q 449 949 469 929 q 429 1000 429 968 q 456 1058 429 1033 q 519 1083 483 1083 m 763 1083 q 818 1064 794 1083 q 842 1015 842 1044 q 834 983 842 999 q 813 956 826 968 q 783 936 800 943 q 749 929 767 929 q 692 949 713 929 q 672 1000 672 968 q 699 1058 672 1033 q 763 1083 726 1083 z "},"ė":{"ha":674,"x_min":0,"x_max":692,"o":"m 553 750 q 651 724 615 750 q 686 654 686 699 q 651 567 686 610 q 554 488 617 525 q 405 422 492 451 q 214 374 318 392 q 135 128 135 225 q 215 35 135 35 q 285 49 247 35 q 360 87 322 63 q 434 145 397 111 q 501 221 471 179 l 532 201 q 181 -14 361 -14 q 47 35 94 -14 q 0 174 0 83 q 24 305 0 238 q 88 436 47 372 q 184 558 129 500 q 300 658 239 615 q 426 725 361 700 q 553 750 492 750 m 244 419 q 368 458 308 432 q 474 519 428 485 q 547 591 519 553 q 575 665 575 629 q 531 707 575 707 q 469 692 501 707 q 404 649 436 676 q 342 583 372 621 q 289 501 313 546 l 244 419 m 603 1083 q 665 1061 639 1083 q 692 1007 692 1039 q 683 970 692 988 q 659 940 674 953 q 626 918 644 926 q 588 910 607 910 q 524 931 547 910 q 501 989 501 953 q 532 1056 501 1028 q 603 1083 563 1083 z "},"ẹ":{"ha":674,"x_min":-15,"x_max":686,"o":"m 553 750 q 651 724 615 750 q 686 654 686 699 q 651 567 686 610 q 554 488 617 525 q 405 422 492 451 q 214 374 318 392 q 135 128 135 225 q 215 35 135 35 q 285 49 247 35 q 360 87 322 63 q 434 145 397 111 q 501 221 471 179 l 532 201 q 181 -14 361 -14 q 47 35 94 -14 q 0 174 0 83 q 24 305 0 238 q 88 436 47 372 q 184 558 129 500 q 300 658 239 615 q 426 725 361 700 q 553 750 492 750 m 244 419 q 368 458 308 432 q 474 519 428 485 q 547 591 519 553 q 575 665 575 629 q 531 707 575 707 q 469 692 501 707 q 404 649 436 676 q 342 583 372 621 q 289 501 313 546 l 244 419 m 86 -182 q 149 -204 122 -182 q 175 -258 175 -226 q 166 -295 175 -278 q 142 -326 157 -312 q 109 -347 128 -339 q 71 -356 90 -356 q 8 -334 31 -356 q -15 -276 -15 -312 q 15 -210 -15 -237 q 86 -182 46 -182 z "},"è":{"ha":674,"x_min":0,"x_max":686,"o":"m 553 750 q 651 724 615 750 q 686 654 686 699 q 651 567 686 610 q 554 488 617 525 q 405 422 492 451 q 214 374 318 392 q 135 128 135 225 q 215 35 135 35 q 285 49 247 35 q 360 87 322 63 q 434 145 397 111 q 501 221 471 179 l 532 201 q 181 -14 361 -14 q 47 35 94 -14 q 0 174 0 83 q 24 305 0 238 q 88 436 47 372 q 184 558 129 500 q 300 658 239 615 q 426 725 361 700 q 553 750 492 750 m 244 419 q 368 458 308 432 q 474 519 428 485 q 547 591 519 553 q 575 665 575 629 q 531 707 575 707 q 469 692 501 707 q 404 649 436 676 q 342 583 372 621 q 289 501 313 546 l 244 419 m 600 883 l 538 1049 q 523 1092 526 1076 q 519 1126 519 1108 q 542 1172 519 1154 q 592 1190 564 1190 q 657 1132 657 1190 q 656 1112 657 1118 q 656 1100 656 1106 l 639 892 l 600 883 z "},"₈":{"ha":588,"x_min":-119,"x_max":411,"o":"m 83 186 q 46 251 60 218 q 32 318 32 285 q 50 396 32 363 q 97 451 68 429 q 165 483 126 472 q 243 494 203 494 q 367 460 322 494 q 411 368 411 425 q 396 302 411 332 q 356 249 381 272 q 303 209 332 226 q 244 179 274 192 l 274 143 q 319 65 306 103 q 332 -4 332 28 q 312 -102 332 -61 q 258 -170 292 -143 q 183 -210 225 -197 q 96 -224 140 -224 q -1 -210 40 -224 q -68 -173 -42 -196 q -107 -119 -94 -150 q -119 -57 -119 -89 q -97 24 -119 -11 q -42 85 -75 58 q 30 130 -8 111 q 101 163 68 149 l 83 186 m 138 133 q 81 100 107 117 q 37 63 56 83 q 7 15 18 42 q -4 -51 -4 -12 q 23 -132 -4 -97 q 107 -167 50 -167 q 192 -136 161 -167 q 222 -65 222 -106 q 213 -4 222 -32 q 179 64 203 24 l 138 133 m 203 213 q 276 283 246 244 q 307 378 307 321 q 290 421 307 403 q 238 439 274 439 q 167 415 196 439 q 138 353 138 392 q 151 290 138 322 q 203 213 165 258 z "},"⁸":{"ha":589,"x_min":217,"x_max":747,"o":"m 419 978 q 368 1114 368 1043 q 383 1183 368 1151 q 427 1238 399 1215 q 494 1274 456 1261 q 581 1286 533 1286 q 702 1251 657 1286 q 747 1157 747 1217 q 703 1053 747 1101 q 581 971 660 1004 l 610 935 q 668 779 668 860 q 650 693 668 732 q 600 626 632 654 q 524 583 568 599 q 425 568 479 568 q 274 615 332 568 q 217 736 217 661 q 270 853 217 800 q 438 954 324 906 l 419 978 m 465 919 q 401 878 426 897 q 360 838 375 858 q 338 797 344 818 q 332 747 332 775 q 362 657 332 689 q 444 625 392 625 q 528 655 497 625 q 558 739 558 685 q 515 856 558 797 l 465 919 m 539 1004 q 616 1081 589 1040 q 643 1163 643 1122 q 574 1231 643 1231 q 501 1206 529 1231 q 474 1140 474 1181 q 539 1004 474 1082 z "},"…":{"ha":1061,"x_min":-44,"x_max":849,"o":"m 75 190 q 148 165 117 190 q 179 100 179 139 q 169 58 179 78 q 141 22 158 38 q 101 -4 124 6 q 57 -14 79 -14 q -17 12 10 -14 q -44 79 -44 38 q -35 122 -44 101 q -8 158 -25 143 q 30 181 8 172 q 75 190 51 190 m 410 190 q 483 165 451 190 q 514 100 514 139 q 503 58 514 78 q 476 22 493 38 q 436 -4 458 6 q 392 -14 414 -14 q 317 12 344 -14 q 290 79 290 38 q 300 122 290 101 q 326 158 310 143 q 365 181 343 172 q 410 190 386 190 m 744 190 q 817 165 786 190 q 849 100 849 139 q 838 58 849 78 q 810 22 828 38 q 771 -4 793 6 q 726 -14 749 -14 q 652 12 679 -14 q 625 79 625 38 q 635 122 625 101 q 661 158 644 143 q 699 181 678 172 q 744 190 721 190 z "},"ē":{"ha":674,"x_min":0,"x_max":836,"o":"m 553 750 q 651 724 615 750 q 686 654 686 699 q 651 567 686 610 q 554 488 617 525 q 405 422 492 451 q 214 374 318 392 q 135 128 135 225 q 215 35 135 35 q 285 49 247 35 q 360 87 322 63 q 434 145 397 111 q 501 221 471 179 l 532 201 q 181 -14 361 -14 q 47 35 94 -14 q 0 174 0 83 q 24 305 0 238 q 88 436 47 372 q 184 558 129 500 q 300 658 239 615 q 426 725 361 700 q 553 750 492 750 m 244 419 q 368 458 308 432 q 474 519 428 485 q 547 591 519 553 q 575 665 575 629 q 531 707 575 707 q 469 692 501 707 q 404 649 436 676 q 342 583 372 621 q 289 501 313 546 l 244 419 m 399 985 l 438 1083 l 836 1083 l 796 985 l 399 985 z "},"—":{"ha":1503,"x_min":68,"x_max":1379,"o":"m 68 308 l 101 392 l 1379 392 l 1344 308 l 68 308 z "},"–":{"ha":1057,"x_min":68,"x_max":933,"o":"m 68 307 l 101 392 l 933 392 l 899 307 l 68 307 z "},"ŋ":{"ha":829,"x_min":-8,"x_max":792,"o":"m 653 593 q 665 626 660 608 q 671 660 671 644 q 626 701 671 701 q 545 669 590 701 q 451 578 500 636 q 351 442 401 521 q 256 269 300 363 l 126 0 l -8 0 l 258 619 q 269 649 265 638 q 274 668 274 660 q 269 681 274 675 q 254 688 265 688 q 190 655 231 688 q 107 569 150 622 l 79 592 q 203 708 132 665 q 342 750 275 750 q 393 737 378 750 q 408 694 408 724 q 394 630 408 667 q 347 531 381 593 l 353 528 q 438 628 397 586 q 515 697 478 671 q 590 736 553 724 q 665 749 626 749 q 792 629 792 749 q 783 567 792 597 q 757 500 774 536 l 474 -112 q 340 -293 419 -231 q 157 -356 261 -356 q 40 -327 86 -356 q -6 -246 -6 -299 q 10 -201 -6 -218 q 58 -183 26 -183 q 108 -203 94 -183 q 131 -245 122 -222 q 151 -287 140 -268 q 194 -307 163 -307 q 236 -294 217 -307 q 277 -249 256 -281 q 323 -167 299 -218 q 381 -39 347 -115 l 653 593 z "},"ę":{"ha":674,"x_min":-33,"x_max":686,"o":"m 250 -275 q 60 -356 154 -356 q -33 -283 -33 -356 q 32 -152 -33 -225 q 210 -12 97 -79 q 195 -13 203 -12 q 181 -14 188 -14 q 47 35 94 -14 q 0 174 0 83 q 24 305 0 238 q 88 436 47 372 q 184 558 129 500 q 300 658 239 615 q 426 725 361 700 q 553 750 492 750 q 651 724 615 750 q 686 654 686 699 q 651 567 686 610 q 554 488 617 525 q 405 422 492 451 q 214 374 318 392 q 135 128 135 225 q 215 35 135 35 q 285 49 247 35 q 360 87 322 63 q 434 145 397 111 q 501 221 471 179 l 532 201 q 417 83 478 133 q 304 1 357 33 q 149 -129 196 -64 q 101 -239 101 -194 q 153 -279 101 -279 q 192 -273 172 -279 q 243 -250 211 -267 l 250 -275 m 244 419 q 368 458 308 432 q 474 519 428 485 q 547 591 519 553 q 575 665 575 629 q 531 707 575 707 q 469 692 501 707 q 404 649 436 676 q 342 583 372 621 q 289 501 313 546 l 244 419 z "},"=":{"ha":872,"x_min":193,"x_max":701,"o":"m 193 381 l 701 381 l 701 322 l 193 322 l 193 381 m 193 589 l 701 589 l 701 531 l 193 531 l 193 589 z "},"ð":{"ha":771,"x_min":18,"x_max":794,"o":"m 503 750 q 607 697 581 750 l 613 697 q 595 802 610 754 q 549 913 581 850 l 368 796 l 339 842 l 526 963 q 459 1037 499 1006 q 353 1101 419 1068 l 372 1138 q 497 1072 447 1104 q 583 1000 546 1040 l 764 1114 l 794 1069 l 615 956 q 654 885 636 928 q 685 790 672 842 q 707 683 699 738 q 715 578 715 628 q 674 358 715 465 q 565 169 633 251 q 409 36 497 86 q 228 -14 321 -14 q 74 45 129 -14 q 18 210 18 104 q 38 337 18 272 q 94 462 58 401 q 176 574 129 522 q 277 666 224 626 q 388 728 331 706 q 503 750 446 750 m 519 689 q 440 663 482 689 q 356 594 397 638 q 276 494 314 550 q 208 376 238 438 q 162 251 179 314 q 144 135 144 189 q 207 35 144 35 q 283 62 242 35 q 367 134 325 89 q 448 238 408 179 q 518 358 488 296 q 567 483 549 421 q 585 596 585 544 q 519 689 585 689 z "},"ẽ":{"ha":674,"x_min":0,"x_max":825,"o":"m 553 750 q 651 724 615 750 q 686 654 686 699 q 651 567 686 610 q 554 488 617 525 q 405 422 492 451 q 214 374 318 392 q 135 128 135 225 q 215 35 135 35 q 285 49 247 35 q 360 87 322 63 q 434 145 397 111 q 501 221 471 179 l 532 201 q 181 -14 361 -14 q 47 35 94 -14 q 0 174 0 83 q 24 305 0 238 q 88 436 47 372 q 184 558 129 500 q 300 658 239 615 q 426 725 361 700 q 553 750 492 750 m 244 419 q 368 458 308 432 q 474 519 428 485 q 547 591 519 553 q 575 665 575 629 q 531 707 575 707 q 469 692 501 707 q 404 649 436 676 q 342 583 372 621 q 289 501 313 546 l 244 419 m 349 949 q 415 1063 368 1019 q 514 1107 463 1107 q 562 1099 538 1107 q 610 1083 586 1092 q 658 1066 635 1074 q 706 1058 682 1058 q 792 1111 764 1058 l 825 1111 q 753 993 801 1039 q 654 947 706 947 q 606 956 629 947 q 560 974 583 964 q 513 993 536 985 q 465 1001 490 1001 q 378 949 401 1001 l 349 949 z "},"!":{"ha":467,"x_min":50,"x_max":543,"o":"m 190 319 l 303 793 q 338 933 322 874 q 360 1013 353 992 q 395 1064 371 1044 q 454 1083 419 1083 q 519 1059 494 1083 q 543 996 543 1035 q 539 964 543 981 q 522 922 535 947 q 488 860 510 897 q 433 768 467 824 q 381 674 406 722 q 333 572 356 626 q 287 456 310 518 q 239 319 264 394 l 190 319 m 149 160 q 210 137 185 160 q 236 79 236 114 q 205 14 236 42 q 132 -14 174 -14 q 73 8 96 -14 q 50 65 50 31 q 79 132 50 104 q 149 160 108 160 z "},"¡":{"ha":436,"x_min":-118,"x_max":361,"o":"m 221 417 l 108 -57 q 78 -188 90 -133 q 58 -262 65 -243 q 26 -314 47 -294 q -29 -333 6 -333 q -94 -309 -69 -333 q -118 -246 -118 -285 q -115 -216 -118 -232 q -101 -176 -111 -200 q -72 -118 -90 -153 q -22 -32 -53 -83 q 30 63 6 15 q 78 165 54 111 q 124 280 101 218 q 172 417 147 342 l 221 417 m 263 576 q 201 599 226 576 q 175 657 175 622 q 206 722 175 694 q 279 750 238 750 q 338 728 315 750 q 361 671 361 706 q 332 604 361 632 q 263 576 303 576 z "},"f":{"ha":450,"x_min":-475,"x_max":904,"o":"m 718 1153 q 790 1142 756 1153 q 849 1111 824 1131 q 889 1065 874 1092 q 904 1008 904 1039 q 887 960 904 978 q 838 942 869 942 q 791 958 810 942 q 772 1003 772 975 q 777 1037 772 1022 q 782 1067 782 1051 q 763 1103 782 1090 q 711 1115 743 1115 q 581 1045 642 1115 q 457 819 519 975 l 424 736 l 560 736 l 542 692 l 407 692 l 231 282 q 91 -5 160 115 q -45 -203 22 -125 q -182 -318 -112 -281 q -324 -356 -251 -356 q -435 -324 -394 -356 q -475 -240 -475 -292 q -458 -198 -475 -212 q -410 -183 -440 -183 q -360 -203 -375 -183 q -337 -245 -346 -222 q -319 -287 -329 -268 q -282 -307 -310 -307 q -219 -281 -254 -307 q -143 -196 -185 -256 q -52 -40 -101 -136 q 54 199 -3 57 l 254 692 l 132 692 l 149 736 l 272 736 l 315 833 q 401 981 354 921 q 499 1080 447 1042 q 607 1135 551 1118 q 718 1153 663 1153 z "},"ﬀ":{"ha":929,"x_min":-475,"x_max":1369,"o":"m 715 1083 q 823 1066 774 1083 q 904 1021 872 1049 q 1031 1117 958 1081 q 1178 1153 1104 1153 q 1253 1142 1218 1153 q 1314 1112 1288 1131 q 1355 1067 1340 1093 q 1369 1011 1369 1040 q 1352 960 1369 979 q 1306 942 1335 942 q 1256 959 1275 942 q 1238 1004 1238 976 q 1242 1036 1238 1021 q 1247 1065 1247 1051 q 1228 1102 1247 1089 q 1178 1115 1210 1115 q 1055 1046 1111 1115 q 936 819 999 976 l 903 736 l 1039 736 l 1021 692 l 886 692 l 710 282 q 570 -8 636 113 q 440 -206 504 -129 q 314 -319 376 -283 q 186 -356 251 -356 q 85 -325 124 -356 q 46 -244 46 -294 q 64 -195 46 -214 q 110 -176 82 -176 q 151 -197 139 -176 q 172 -242 164 -217 q 190 -287 181 -267 q 225 -307 200 -307 q 283 -277 251 -307 q 353 -185 315 -247 q 435 -28 390 -124 q 533 199 481 67 l 733 692 l 407 692 l 231 282 q 92 -4 160 117 q -44 -203 24 -125 q -181 -318 -112 -281 q -321 -356 -249 -356 q -433 -324 -390 -356 q -475 -244 -475 -293 q -411 -183 -475 -183 q -360 -203 -375 -183 q -337 -245 -346 -222 q -319 -287 -329 -268 q -282 -307 -310 -307 q -132 -179 -217 -307 q 54 199 -47 -51 l 254 692 l 132 692 l 149 736 l 272 736 l 285 764 q 365 898 318 839 q 468 998 413 957 q 586 1061 524 1039 q 715 1083 649 1083 m 751 736 l 835 918 q 808 1013 835 983 q 725 1043 782 1043 q 429 750 551 1043 l 424 736 l 751 736 z "},"ﬃ":{"ha":1414,"x_min":-475,"x_max":1432,"o":"m 1140 736 q 1217 743 1175 736 q 1286 750 1260 750 q 1331 731 1314 750 q 1347 681 1347 711 q 1325 590 1347 643 l 1126 113 q 1122 94 1122 100 q 1151 68 1122 68 q 1172 73 1161 68 q 1199 90 1182 78 q 1238 124 1215 103 q 1296 179 1261 146 l 1324 163 q 1188 33 1257 79 q 1060 -14 1118 -14 q 997 7 1019 -14 q 974 65 974 28 q 979 108 974 85 q 994 154 985 131 l 1196 649 q 1203 674 1203 665 q 1185 692 1203 692 l 886 692 l 710 282 q 571 -4 639 117 q 435 -203 503 -125 q 299 -318 367 -281 q 158 -356 231 -356 q 47 -324 89 -356 q 4 -244 4 -293 q 68 -183 4 -183 q 119 -203 104 -183 q 142 -245 133 -222 q 160 -287 150 -268 q 197 -307 169 -307 q 347 -179 263 -307 q 533 199 432 -51 l 733 692 l 407 692 l 231 282 q 92 -4 160 117 q -44 -203 24 -125 q -181 -318 -112 -281 q -321 -356 -249 -356 q -433 -324 -390 -356 q -475 -244 -475 -293 q -411 -183 -475 -183 q -360 -203 -375 -183 q -337 -245 -346 -222 q -319 -287 -329 -268 q -282 -307 -310 -307 q -132 -179 -217 -307 q 54 199 -47 -51 l 254 692 l 132 692 l 149 736 l 272 736 l 285 764 q 365 898 318 839 q 468 998 413 957 q 586 1061 524 1039 q 715 1083 649 1083 q 828 1065 778 1083 q 910 1015 879 1047 q 1047 1117 972 1082 q 1207 1153 1122 1153 q 1296 1142 1254 1153 q 1367 1110 1338 1131 q 1415 1063 1397 1090 q 1432 1006 1432 1036 q 1410 944 1432 968 q 1353 921 1388 921 q 1295 943 1318 921 q 1272 1000 1272 965 q 1281 1037 1272 1024 q 1289 1067 1289 1050 q 1266 1102 1289 1089 q 1207 1115 1243 1115 q 1063 1044 1128 1115 q 936 819 997 972 l 903 736 l 1140 736 m 725 1043 q 429 750 551 1043 l 424 736 l 751 736 l 794 833 q 814 874 804 854 q 835 913 824 893 q 725 1043 835 1043 z "},"ﬄ":{"ha":1378,"x_min":-475,"x_max":1511,"o":"m 1188 1153 q 1277 1138 1236 1153 q 1344 1097 1318 1122 l 1507 1139 l 1511 1135 l 1206 424 q 1138 267 1164 328 q 1099 172 1113 207 q 1081 122 1086 138 q 1076 97 1076 106 q 1106 68 1076 68 q 1159 93 1126 68 q 1251 179 1192 118 l 1282 163 q 1214 91 1250 124 q 1142 35 1178 58 q 1074 -1 1107 13 q 1013 -14 1040 -14 q 957 8 976 -14 q 938 71 938 31 q 944 117 938 89 q 974 205 951 144 q 1040 370 997 265 q 1156 647 1083 475 l 1258 894 q 1274 947 1271 925 q 1278 996 1278 968 q 1257 1087 1278 1058 q 1190 1115 1236 1115 q 1058 1045 1118 1115 q 936 819 999 975 l 903 736 l 1039 736 l 1021 692 l 886 692 l 710 282 q 571 -4 639 117 q 435 -203 503 -125 q 299 -318 367 -281 q 158 -356 231 -356 q 47 -324 89 -356 q 4 -244 4 -293 q 68 -183 4 -183 q 119 -203 104 -183 q 142 -245 133 -222 q 160 -287 150 -268 q 197 -307 169 -307 q 347 -180 263 -307 q 533 199 432 -53 l 733 692 l 407 692 l 231 282 q 92 -4 160 117 q -44 -203 24 -125 q -181 -318 -112 -281 q -321 -356 -249 -356 q -433 -324 -390 -356 q -475 -244 -475 -293 q -411 -183 -475 -183 q -360 -203 -375 -183 q -337 -245 -346 -222 q -319 -287 -329 -268 q -282 -307 -310 -307 q -132 -179 -217 -307 q 54 199 -47 -51 l 254 692 l 132 692 l 149 736 l 272 736 l 285 764 q 365 898 318 839 q 468 998 413 957 q 586 1061 524 1039 q 715 1083 649 1083 q 828 1065 778 1083 q 910 1017 878 1047 q 1040 1118 969 1083 q 1188 1153 1110 1153 m 725 1043 q 429 750 551 1043 l 424 736 l 751 736 l 794 833 q 814 874 804 854 q 835 913 824 893 q 725 1043 835 1043 z "},"ﬁ":{"ha":935,"x_min":-475,"x_max":953,"o":"m 661 736 q 738 743 696 736 q 807 750 781 750 q 851 731 835 750 q 868 681 868 711 q 846 590 868 643 l 647 113 q 643 94 643 100 q 672 68 643 68 q 692 73 682 68 q 719 90 703 78 q 759 124 736 103 q 817 179 782 146 l 844 163 q 708 33 778 79 q 581 -14 639 -14 q 517 7 540 -14 q 494 65 494 28 q 500 108 494 85 q 515 154 506 131 l 717 649 q 724 674 724 665 q 706 692 724 692 l 407 692 l 231 282 q 92 -4 160 117 q -44 -203 24 -125 q -181 -318 -112 -281 q -321 -356 -249 -356 q -433 -324 -390 -356 q -475 -244 -475 -293 q -411 -183 -475 -183 q -360 -203 -375 -183 q -337 -245 -346 -222 q -319 -287 -329 -268 q -282 -307 -310 -307 q -132 -179 -217 -307 q 54 199 -47 -51 l 254 692 l 132 692 l 149 736 l 272 736 l 315 833 q 490 1070 382 988 q 728 1153 597 1153 q 817 1142 775 1153 q 888 1110 858 1131 q 935 1063 918 1090 q 953 1006 953 1036 q 931 944 953 968 q 874 921 908 921 q 816 943 839 921 q 793 1000 793 965 q 801 1037 793 1024 q 810 1067 810 1050 q 787 1102 810 1089 q 728 1115 764 1115 q 583 1044 649 1115 q 457 819 518 972 l 424 736 l 661 736 z "},"ﬂ":{"ha":899,"x_min":-475,"x_max":1032,"o":"m 708 1153 q 798 1138 757 1153 q 865 1097 839 1122 l 1028 1139 l 1032 1135 l 726 424 q 659 267 685 328 q 620 172 633 207 q 602 122 607 138 q 597 97 597 106 q 626 68 597 68 q 680 93 647 68 q 772 179 713 118 l 803 163 q 735 91 771 124 q 663 35 699 58 q 594 -1 628 13 q 533 -14 561 -14 q 478 8 497 -14 q 458 71 458 31 q 465 117 458 89 q 495 205 472 144 q 561 370 518 265 q 676 647 604 475 l 775 882 q 794 942 790 918 q 799 996 799 965 q 778 1087 799 1058 q 711 1115 757 1115 q 579 1045 639 1115 q 457 819 519 975 l 424 736 l 560 736 l 542 692 l 407 692 l 231 282 q 92 -4 160 117 q -44 -203 24 -125 q -181 -318 -112 -281 q -321 -356 -249 -356 q -433 -324 -390 -356 q -475 -244 -475 -293 q -411 -183 -475 -183 q -360 -203 -375 -183 q -337 -245 -346 -222 q -319 -287 -329 -268 q -282 -307 -310 -307 q -132 -180 -217 -307 q 54 199 -47 -53 l 254 692 l 132 692 l 149 736 l 272 736 l 315 833 q 485 1069 382 985 q 708 1153 588 1153 z "},"⅝":{"ha":1303,"x_min":139,"x_max":1208,"o":"m 253 0 l 1015 1069 l 1113 1069 l 347 0 l 253 0 m 915 354 q 881 413 893 382 q 868 474 868 443 q 884 544 868 514 q 927 593 900 574 q 988 622 954 613 q 1057 632 1021 632 q 1168 601 1128 632 q 1208 518 1208 569 q 1194 458 1208 485 q 1159 411 1181 432 q 1111 374 1138 390 q 1058 347 1085 358 l 1085 315 q 1125 246 1113 281 q 1138 183 1138 211 q 1119 96 1138 133 q 1072 34 1101 58 q 1003 -2 1042 10 q 926 -14 965 -14 q 840 -1 876 -14 q 778 32 803 11 q 743 80 754 53 q 732 136 732 107 q 752 209 732 178 q 802 264 772 240 q 867 304 832 288 q 931 333 901 321 l 915 354 m 964 308 q 913 278 936 293 q 872 244 889 263 q 846 201 856 225 q 836 142 836 176 q 860 69 836 100 q 936 38 885 38 q 1013 65 985 38 q 1040 129 1040 93 q 1032 185 1040 160 q 1001 246 1024 210 l 964 308 m 1022 378 q 1088 441 1060 406 q 1115 526 1115 476 q 1101 566 1115 550 q 1054 582 1086 582 q 990 560 1017 582 q 964 504 964 539 q 976 448 964 476 q 1022 378 989 419 m 344 1065 l 538 1065 l 558 1099 l 590 1093 l 546 956 l 361 956 l 321 842 q 350 846 332 844 q 383 847 368 847 q 509 799 465 847 q 553 672 553 751 q 531 581 553 624 q 469 507 508 539 q 378 456 431 475 q 268 438 326 438 q 174 458 210 438 q 139 511 139 478 q 151 547 139 533 q 188 560 164 560 q 217 547 208 560 q 235 520 226 535 q 256 494 243 506 q 297 482 268 482 q 353 495 326 482 q 401 530 381 508 q 434 579 422 551 q 446 636 446 607 q 420 718 446 690 q 350 746 394 746 q 254 735 292 746 l 238 760 l 344 1065 z "},"₅":{"ha":506,"x_min":-157,"x_max":344,"o":"m 72 474 l 286 474 l 310 510 l 344 504 l 294 351 l 89 351 l 44 225 q 115 232 75 232 q 255 178 207 232 q 303 36 303 125 q 278 -64 303 -17 q 210 -147 253 -111 q 109 -203 167 -182 q -12 -224 51 -224 q -118 -201 -79 -224 q -157 -142 -157 -179 q -142 -103 -157 -118 q -103 -87 -128 -87 q -70 -101 -81 -87 q -51 -131 -60 -114 q -27 -160 -42 -147 q 19 -174 -12 -174 q 82 -160 53 -174 q 134 -122 111 -146 q 170 -67 157 -97 q 183 -3 183 -36 q 155 88 183 57 q 76 118 126 118 q -29 106 10 118 l -49 133 l 72 474 z "},"⁵":{"ha":507,"x_min":179,"x_max":681,"o":"m 408 1265 l 622 1265 l 646 1301 l 681 1296 l 631 1143 l 425 1143 l 381 1017 q 451 1024 411 1024 q 591 970 543 1024 q 639 828 639 917 q 614 728 639 775 q 546 645 589 681 q 445 589 503 610 q 324 568 388 568 q 218 590 257 568 q 179 650 179 613 q 194 689 179 674 q 233 704 208 704 q 266 691 256 704 q 285 661 276 678 q 309 631 294 644 q 356 618 324 618 q 418 632 389 618 q 470 670 447 646 q 506 725 493 694 q 519 789 519 756 q 491 879 519 849 q 413 910 463 910 q 307 897 346 910 l 288 925 l 408 1265 z "},"ƒ":{"ha":789,"x_min":-221,"x_max":1007,"o":"m 803 1153 q 877 1141 840 1153 q 943 1108 914 1129 q 990 1059 972 1088 q 1007 999 1007 1031 q 992 957 1007 972 q 949 942 976 942 q 895 962 917 942 q 874 1014 874 982 q 876 1036 874 1026 q 878 1057 878 1046 q 857 1100 878 1085 q 801 1115 836 1115 q 679 1045 732 1115 q 582 819 626 975 l 558 736 l 792 736 l 779 692 l 547 692 l 421 282 q 315 -5 369 115 q 203 -203 261 -125 q 81 -318 144 -281 q -56 -356 17 -356 q -174 -321 -126 -356 q -221 -232 -221 -286 q -162 -183 -221 -183 q -111 -203 -128 -183 q -84 -245 -94 -222 q -61 -287 -74 -268 q -21 -307 -49 -307 q 37 -281 6 -307 q 103 -196 68 -256 q 176 -40 138 -136 q 254 199 214 57 l 394 692 l 175 692 l 186 736 l 407 736 l 439 833 q 508 981 468 921 q 594 1080 547 1042 q 694 1135 640 1118 q 803 1153 747 1153 z "},"₄":{"ha":538,"x_min":-160,"x_max":401,"o":"m 97 -29 l -160 -29 l -139 33 l 281 494 l 401 494 l 249 60 l 340 60 l 310 -29 l 217 -29 l 157 -214 l 32 -214 l 97 -29 m 129 60 l 239 368 l 233 368 l -44 60 l 129 60 z "},"⁴":{"ha":540,"x_min":178,"x_max":739,"o":"m 435 763 l 178 763 l 199 825 l 618 1286 l 739 1286 l 586 851 l 678 851 l 647 763 l 554 763 l 494 578 l 369 578 l 435 763 m 467 851 l 576 1160 l 571 1160 l 293 851 l 467 851 z "},"⁄":{"ha":306,"x_min":-226,"x_max":633,"o":"m -226 0 l 536 1069 l 633 1069 l -132 0 l -226 0 z "},"g":{"ha":732,"x_min":-160,"x_max":811,"o":"m 322 303 q 396 328 360 303 q 460 397 432 354 q 506 494 489 439 q 522 606 522 549 q 505 676 522 654 q 447 699 488 699 q 376 673 413 699 q 308 606 339 647 q 258 515 278 565 q 239 417 239 465 q 260 333 239 363 q 322 303 282 303 m 733 750 q 790 729 769 750 q 811 681 811 708 q 794 641 811 657 q 753 625 776 625 q 728 631 738 625 q 709 644 718 638 q 691 658 700 651 q 669 664 682 664 q 640 655 654 664 q 619 631 626 646 q 640 574 635 599 q 646 522 646 550 q 623 418 646 467 q 560 333 600 369 q 468 276 521 297 q 356 256 415 256 q 303 258 333 256 q 247 260 274 260 q 121 197 121 260 q 190 126 121 149 l 407 53 q 513 -19 474 29 q 553 -128 553 -67 q 525 -219 553 -178 q 448 -291 497 -261 q 330 -338 399 -321 q 179 -356 261 -356 q 42 -340 104 -356 q -66 -298 -21 -325 q -135 -232 -111 -271 q -160 -146 -160 -193 q -142 -71 -160 -106 q -94 -10 -125 -36 q -19 30 -62 15 q 74 44 24 44 q 28 97 44 67 q 13 161 13 128 q 67 263 13 226 q 219 300 122 300 l 221 306 q 118 489 118 378 q 142 588 118 540 q 206 672 165 636 q 299 728 246 707 q 413 750 353 750 q 593 665 525 750 q 733 750 665 750 m 199 -314 q 297 -303 253 -314 q 374 -274 342 -293 q 424 -230 406 -256 q 442 -174 442 -204 q 413 -107 442 -139 q 339 -60 383 -75 l 161 0 q 137 7 146 6 q 117 8 128 8 q 55 -4 83 8 q 6 -38 26 -17 q -26 -88 -14 -60 q -37 -149 -37 -117 q 26 -270 -37 -226 q 199 -314 90 -314 z "},"ğ":{"ha":732,"x_min":-160,"x_max":829,"o":"m 322 303 q 396 328 360 303 q 460 397 432 354 q 506 494 489 439 q 522 606 522 549 q 505 676 522 654 q 447 699 488 699 q 376 673 413 699 q 308 606 339 647 q 258 515 278 565 q 239 417 239 465 q 260 333 239 363 q 322 303 282 303 m 733 750 q 790 729 769 750 q 811 681 811 708 q 794 641 811 657 q 753 625 776 625 q 728 631 738 625 q 709 644 718 638 q 691 658 700 651 q 669 664 682 664 q 640 655 654 664 q 619 631 626 646 q 640 574 635 599 q 646 522 646 550 q 623 418 646 467 q 560 333 600 369 q 468 276 521 297 q 356 256 415 256 q 303 258 333 256 q 247 260 274 260 q 121 197 121 260 q 190 126 121 149 l 407 53 q 513 -19 474 29 q 553 -128 553 -67 q 525 -219 553 -178 q 448 -291 497 -261 q 330 -338 399 -321 q 179 -356 261 -356 q 42 -340 104 -356 q -66 -298 -21 -325 q -135 -232 -111 -271 q -160 -146 -160 -193 q -142 -71 -160 -106 q -94 -10 -125 -36 q -19 30 -62 15 q 74 44 24 44 q 28 97 44 67 q 13 161 13 128 q 67 263 13 226 q 219 300 122 300 l 221 306 q 118 489 118 378 q 142 588 118 540 q 206 672 165 636 q 299 728 246 707 q 413 750 353 750 q 593 665 525 750 q 733 750 665 750 m 199 -314 q 297 -303 253 -314 q 374 -274 342 -293 q 424 -230 406 -256 q 442 -174 442 -204 q 413 -107 442 -139 q 339 -60 383 -75 l 161 0 q 137 7 146 6 q 117 8 128 8 q 55 -4 83 8 q 6 -38 26 -17 q -26 -88 -14 -60 q -37 -149 -37 -117 q 26 -270 -37 -226 q 199 -314 90 -314 m 483 1097 q 512 1031 485 1054 q 593 1007 539 1007 q 684 1028 639 1007 q 774 1097 729 1049 l 829 1097 q 744 994 786 1032 q 667 936 703 956 q 599 910 631 917 q 546 904 568 904 q 499 910 522 904 q 459 930 476 917 q 431 965 442 943 q 421 1019 421 988 q 435 1097 421 1054 l 483 1097 z "},"ĝ":{"ha":732,"x_min":-160,"x_max":811,"o":"m 322 303 q 396 328 360 303 q 460 397 432 354 q 506 494 489 439 q 522 606 522 549 q 505 676 522 654 q 447 699 488 699 q 376 673 413 699 q 308 606 339 647 q 258 515 278 565 q 239 417 239 465 q 260 333 239 363 q 322 303 282 303 m 733 750 q 790 729 769 750 q 811 681 811 708 q 794 641 811 657 q 753 625 776 625 q 728 631 738 625 q 709 644 718 638 q 691 658 700 651 q 669 664 682 664 q 640 655 654 664 q 619 631 626 646 q 640 574 635 599 q 646 522 646 550 q 623 418 646 467 q 560 333 600 369 q 468 276 521 297 q 356 256 415 256 q 303 258 333 256 q 247 260 274 260 q 121 197 121 260 q 190 126 121 149 l 407 53 q 513 -19 474 29 q 553 -128 553 -67 q 525 -219 553 -178 q 448 -291 497 -261 q 330 -338 399 -321 q 179 -356 261 -356 q 42 -340 104 -356 q -66 -298 -21 -325 q -135 -232 -111 -271 q -160 -146 -160 -193 q -142 -71 -160 -106 q -94 -10 -125 -36 q -19 30 -62 15 q 74 44 24 44 q 28 97 44 67 q 13 161 13 128 q 67 263 13 226 q 219 300 122 300 l 221 306 q 118 489 118 378 q 142 588 118 540 q 206 672 165 636 q 299 728 246 707 q 413 750 353 750 q 593 665 525 750 q 733 750 665 750 m 199 -314 q 297 -303 253 -314 q 374 -274 342 -293 q 424 -230 406 -256 q 442 -174 442 -204 q 413 -107 442 -139 q 339 -60 383 -75 l 161 0 q 137 7 146 6 q 117 8 128 8 q 55 -4 83 8 q 6 -38 26 -17 q -26 -88 -14 -60 q -37 -149 -37 -117 q 26 -270 -37 -226 q 199 -314 90 -314 m 665 1190 q 707 1180 696 1190 q 721 1150 718 1169 l 743 889 l 711 872 l 614 1068 l 360 872 l 333 889 l 571 1150 q 665 1190 607 1190 z "},"ģ":{"ha":732,"x_min":-160,"x_max":811,"o":"m 322 303 q 396 328 360 303 q 460 397 432 354 q 506 494 489 439 q 522 606 522 549 q 505 676 522 654 q 447 699 488 699 q 376 673 413 699 q 308 606 339 647 q 258 515 278 565 q 239 417 239 465 q 260 333 239 363 q 322 303 282 303 m 733 750 q 790 729 769 750 q 811 681 811 708 q 794 641 811 657 q 753 625 776 625 q 728 631 738 625 q 709 644 718 638 q 691 658 700 651 q 669 664 682 664 q 640 655 654 664 q 619 631 626 646 q 640 574 635 599 q 646 522 646 550 q 623 418 646 467 q 560 333 600 369 q 468 276 521 297 q 356 256 415 256 q 303 258 333 256 q 247 260 274 260 q 121 197 121 260 q 190 126 121 149 l 407 53 q 513 -19 474 29 q 553 -128 553 -67 q 525 -219 553 -178 q 448 -291 497 -261 q 330 -338 399 -321 q 179 -356 261 -356 q 42 -340 104 -356 q -66 -298 -21 -325 q -135 -232 -111 -271 q -160 -146 -160 -193 q -142 -71 -160 -106 q -94 -10 -125 -36 q -19 30 -62 15 q 74 44 24 44 q 28 97 44 67 q 13 161 13 128 q 67 263 13 226 q 219 300 122 300 l 221 306 q 118 489 118 378 q 142 588 118 540 q 206 672 165 636 q 299 728 246 707 q 413 750 353 750 q 593 665 525 750 q 733 750 665 750 m 199 -314 q 297 -303 253 -314 q 374 -274 342 -293 q 424 -230 406 -256 q 442 -174 442 -204 q 413 -107 442 -139 q 339 -60 383 -75 l 161 0 q 137 7 146 6 q 117 8 128 8 q 55 -4 83 8 q 6 -38 26 -17 q -26 -88 -14 -60 q -37 -149 -37 -117 q 26 -270 -37 -226 q 199 -314 90 -314 m 608 1047 q 649 986 649 1036 q 626 924 649 947 q 557 901 604 901 q 488 979 488 901 q 532 1085 488 1032 q 658 1183 576 1139 l 679 1157 q 606 1108 636 1136 q 576 1064 576 1081 q 583 1054 576 1057 q 608 1047 589 1051 z "},"ġ":{"ha":732,"x_min":-160,"x_max":811,"o":"m 322 303 q 396 328 360 303 q 460 397 432 354 q 506 494 489 439 q 522 606 522 549 q 505 676 522 654 q 447 699 488 699 q 376 673 413 699 q 308 606 339 647 q 258 515 278 565 q 239 417 239 465 q 260 333 239 363 q 322 303 282 303 m 733 750 q 790 729 769 750 q 811 681 811 708 q 794 641 811 657 q 753 625 776 625 q 728 631 738 625 q 709 644 718 638 q 691 658 700 651 q 669 664 682 664 q 640 655 654 664 q 619 631 626 646 q 640 574 635 599 q 646 522 646 550 q 623 418 646 467 q 560 333 600 369 q 468 276 521 297 q 356 256 415 256 q 303 258 333 256 q 247 260 274 260 q 121 197 121 260 q 190 126 121 149 l 407 53 q 513 -19 474 29 q 553 -128 553 -67 q 525 -219 553 -178 q 448 -291 497 -261 q 330 -338 399 -321 q 179 -356 261 -356 q 42 -340 104 -356 q -66 -298 -21 -325 q -135 -232 -111 -271 q -160 -146 -160 -193 q -142 -71 -160 -106 q -94 -10 -125 -36 q -19 30 -62 15 q 74 44 24 44 q 28 97 44 67 q 13 161 13 128 q 67 263 13 226 q 219 300 122 300 l 221 306 q 118 489 118 378 q 142 588 118 540 q 206 672 165 636 q 299 728 246 707 q 413 750 353 750 q 593 665 525 750 q 733 750 665 750 m 199 -314 q 297 -303 253 -314 q 374 -274 342 -293 q 424 -230 406 -256 q 442 -174 442 -204 q 413 -107 442 -139 q 339 -60 383 -75 l 161 0 q 137 7 146 6 q 117 8 128 8 q 55 -4 83 8 q 6 -38 26 -17 q -26 -88 -14 -60 q -37 -149 -37 -117 q 26 -270 -37 -226 q 199 -314 90 -314 m 563 1083 q 625 1061 599 1083 q 651 1007 651 1039 q 642 970 651 988 q 619 940 633 953 q 585 918 604 926 q 547 910 567 910 q 484 931 507 910 q 461 989 461 953 q 492 1056 461 1028 q 563 1083 522 1083 z "},"ß":{"ha":929,"x_min":-401,"x_max":867,"o":"m 481 547 q 500 635 481 597 q 549 702 519 672 q 613 760 579 732 q 677 820 647 788 q 726 894 707 853 q 746 993 746 936 q 651 1115 746 1115 q 528 1045 583 1115 q 415 819 472 975 l 218 282 q 108 19 160 125 q 5 -153 57 -87 q -104 -246 -47 -218 q -229 -274 -161 -274 q -355 -243 -308 -274 q -401 -160 -401 -212 q -340 -101 -401 -101 q -301 -110 -315 -101 q -278 -133 -286 -119 q -264 -163 -269 -147 q -251 -193 -258 -179 q -231 -216 -243 -207 q -196 -225 -218 -225 q -145 -207 -169 -225 q -94 -142 -121 -189 q -33 -12 -67 -94 q 46 199 0 69 l 274 833 q 427 1069 326 985 q 654 1153 528 1153 q 808 1108 750 1153 q 867 988 867 1063 q 847 910 867 943 q 797 851 826 878 q 733 799 768 824 q 668 744 697 774 q 619 681 639 715 q 599 599 599 646 q 629 488 599 538 q 697 390 660 438 q 765 294 735 342 q 796 190 796 246 q 775 110 796 147 q 718 46 754 74 q 633 2 682 18 q 529 -14 585 -14 q 442 -3 483 -14 q 369 26 400 8 q 319 69 338 44 q 300 121 300 93 q 317 163 300 147 q 363 178 335 178 q 411 155 399 178 q 433 103 424 132 q 462 52 443 75 q 529 29 481 29 q 624 64 588 29 q 661 151 661 99 q 633 244 661 200 q 571 335 604 289 q 509 433 538 382 q 481 547 481 485 z "},"`":{"ha":165,"x_min":14,"x_max":151,"o":"m 94 883 l 32 1049 q 17 1092 21 1076 q 14 1126 14 1108 q 36 1172 14 1154 q 86 1190 58 1190 q 151 1132 151 1190 q 151 1112 151 1118 q 150 1100 150 1106 l 133 892 l 94 883 z "},">":{"ha":808,"x_min":192,"x_max":760,"o":"m 192 168 l 192 251 l 660 468 l 660 474 l 192 688 l 192 779 l 760 508 l 760 438 l 192 168 z "},"«":{"ha":664,"x_min":43,"x_max":625,"o":"m 146 74 l 43 332 l 50 349 l 358 606 l 381 585 l 174 325 l 174 89 l 146 74 m 390 74 l 288 332 l 294 349 l 603 606 l 625 585 l 418 325 l 418 89 l 390 74 z "},"»":{"ha":661,"x_min":-28,"x_max":554,"o":"m 451 606 l 554 347 l 547 331 l 239 74 l 217 94 l 424 354 l 424 590 l 451 606 m 207 606 l 310 347 l 303 331 l -6 74 l -28 94 l 179 354 l 179 590 l 207 606 z "},"‹":{"ha":419,"x_min":43,"x_max":381,"o":"m 146 74 l 43 332 l 50 349 l 358 606 l 381 585 l 174 325 l 174 89 l 146 74 z "},"›":{"ha":417,"x_min":-28,"x_max":310,"o":"m 207 606 l 310 347 l 303 331 l -6 74 l -28 94 l 179 354 l 179 590 l 207 606 z "},"h":{"ha":826,"x_min":-49,"x_max":746,"o":"m 407 1101 l 301 1118 l 299 1139 l 564 1139 l 300 531 l 307 528 q 467 697 394 646 q 618 749 540 749 q 711 720 676 749 q 746 639 746 692 q 738 577 746 611 q 708 500 729 543 l 546 168 q 525 121 532 140 q 518 89 518 101 q 539 68 518 68 q 605 102 563 68 q 697 193 647 136 l 726 172 q 586 33 656 81 q 450 -14 517 -14 q 387 6 406 -14 q 368 67 368 26 q 417 219 368 122 l 603 593 q 622 663 622 635 q 582 701 622 701 q 499 669 546 701 q 402 578 453 636 q 301 440 351 519 q 207 269 250 361 l 81 0 l -49 0 l 407 1101 z "},"ħ":{"ha":826,"x_min":-49,"x_max":746,"o":"m 332 919 l 225 919 l 249 978 l 356 978 l 407 1101 l 301 1118 l 299 1139 l 564 1139 l 493 978 l 647 978 l 622 919 l 468 919 l 300 531 l 307 528 q 467 697 394 646 q 618 749 540 749 q 711 720 676 749 q 746 639 746 692 q 738 577 746 611 q 708 500 729 543 l 546 168 q 525 121 532 140 q 518 89 518 101 q 539 68 518 68 q 605 102 563 68 q 697 193 647 136 l 726 172 q 586 33 656 81 q 450 -14 517 -14 q 387 6 406 -14 q 368 67 368 26 q 417 219 368 122 l 603 593 q 622 663 622 635 q 582 701 622 701 q 499 669 546 701 q 402 578 453 636 q 301 440 351 519 q 207 269 250 361 l 81 0 l -49 0 l 332 919 z "},"ĥ":{"ha":826,"x_min":-49,"x_max":899,"o":"m 407 1101 l 301 1118 l 299 1139 l 564 1139 l 300 531 l 307 528 q 467 697 394 646 q 618 749 540 749 q 711 720 676 749 q 746 639 746 692 q 738 577 746 611 q 708 500 729 543 l 546 168 q 525 121 532 140 q 518 89 518 101 q 539 68 518 68 q 605 102 563 68 q 697 193 647 136 l 726 172 q 586 33 656 81 q 450 -14 517 -14 q 387 6 406 -14 q 368 67 368 26 q 417 219 368 122 l 603 593 q 622 663 622 635 q 582 701 622 701 q 499 669 546 701 q 402 578 453 636 q 301 440 351 519 q 207 269 250 361 l 81 0 l -49 0 l 407 1101 m 821 1190 q 863 1180 851 1190 q 876 1150 874 1169 l 899 889 l 867 872 l 769 1068 l 515 872 l 489 889 l 726 1150 q 821 1190 763 1190 z "},"ḥ":{"ha":826,"x_min":-49,"x_max":746,"o":"m 407 1101 l 301 1118 l 299 1139 l 564 1139 l 300 531 l 307 528 q 467 697 394 646 q 618 749 540 749 q 711 720 676 749 q 746 639 746 692 q 738 577 746 611 q 708 500 729 543 l 546 168 q 525 121 532 140 q 518 89 518 101 q 539 68 518 68 q 605 102 563 68 q 697 193 647 136 l 726 172 q 586 33 656 81 q 450 -14 517 -14 q 387 6 406 -14 q 368 67 368 26 q 417 219 368 122 l 603 593 q 622 663 622 635 q 582 701 622 701 q 499 669 546 701 q 402 578 453 636 q 301 440 351 519 q 207 269 250 361 l 81 0 l -49 0 l 407 1101 m 147 -182 q 210 -204 183 -182 q 236 -258 236 -226 q 227 -295 236 -278 q 203 -326 218 -312 q 170 -347 189 -339 q 132 -356 151 -356 q 69 -334 92 -356 q 46 -276 46 -312 q 76 -210 46 -237 q 147 -182 107 -182 z "},"˝":{"ha":528,"x_min":14,"x_max":514,"o":"m 14 892 l 136 1129 q 214 1190 167 1190 q 263 1171 242 1190 q 285 1124 285 1151 q 272 1085 285 1104 q 231 1042 258 1067 l 39 876 l 14 892 m 236 892 l 365 1129 q 443 1190 399 1190 q 492 1171 471 1190 q 514 1124 514 1151 q 501 1085 514 1104 q 460 1042 489 1065 l 261 876 l 236 892 z "},"-":{"ha":667,"x_min":61,"x_max":550,"o":"m 61 292 l 107 408 l 550 408 l 504 292 l 61 292 z "},"i":{"ha":472,"x_min":32,"x_max":515,"o":"m 426 1083 q 489 1061 463 1083 q 515 1007 515 1039 q 506 970 515 988 q 483 940 497 953 q 449 918 468 926 q 411 910 431 910 q 348 931 371 910 q 325 989 325 953 q 356 1056 325 1028 q 426 1083 386 1083 m 315 750 q 381 733 356 750 q 406 682 406 715 q 383 590 406 643 l 185 113 q 181 94 181 101 q 208 68 181 68 q 229 73 218 68 q 257 90 240 78 q 297 124 274 103 q 354 179 321 146 l 382 163 q 246 33 317 79 q 122 -14 175 -14 q 57 5 82 -14 q 32 64 32 24 q 37 104 32 82 q 53 154 42 126 l 254 649 q 261 675 261 664 q 243 688 261 688 q 185 665 218 688 q 121 601 153 642 l 89 626 q 198 717 136 685 q 315 750 260 750 z "},"í":{"ha":472,"x_min":32,"x_max":694,"o":"m 315 750 q 381 733 356 750 q 406 682 406 715 q 383 590 406 643 l 185 113 q 181 94 181 101 q 208 68 181 68 q 229 73 218 68 q 257 90 240 78 q 297 124 274 103 q 354 179 321 146 l 382 163 q 246 33 317 79 q 122 -14 175 -14 q 57 5 82 -14 q 32 64 32 24 q 37 104 32 82 q 53 154 42 126 l 254 649 q 261 675 261 664 q 243 688 261 688 q 185 665 218 688 q 121 601 153 642 l 89 626 q 198 717 136 685 q 315 750 260 750 m 378 892 l 539 1129 q 626 1190 579 1190 q 675 1174 656 1190 q 694 1132 694 1157 q 678 1090 694 1111 q 625 1042 663 1069 l 400 876 l 378 892 z "},"ĭ":{"ha":472,"x_min":32,"x_max":664,"o":"m 315 750 q 381 733 356 750 q 406 682 406 715 q 383 590 406 643 l 185 113 q 181 94 181 101 q 208 68 181 68 q 229 73 218 68 q 257 90 240 78 q 297 124 274 103 q 354 179 321 146 l 382 163 q 246 33 317 79 q 122 -14 175 -14 q 57 5 82 -14 q 32 64 32 24 q 37 104 32 82 q 53 154 42 126 l 254 649 q 261 675 261 664 q 243 688 261 688 q 185 665 218 688 q 121 601 153 642 l 89 626 q 198 717 136 685 q 315 750 260 750 m 318 1097 q 347 1031 319 1054 q 428 1007 374 1007 q 519 1028 474 1007 q 608 1097 564 1049 l 664 1097 q 579 994 621 1032 q 501 936 538 956 q 434 910 465 917 q 381 904 403 904 q 334 910 357 904 q 294 930 311 917 q 266 965 276 943 q 256 1019 256 988 q 269 1097 256 1054 l 318 1097 z "},"î":{"ha":472,"x_min":32,"x_max":564,"o":"m 315 750 q 381 733 356 750 q 406 682 406 715 q 383 590 406 643 l 185 113 q 181 94 181 101 q 208 68 181 68 q 229 73 218 68 q 257 90 240 78 q 297 124 274 103 q 354 179 321 146 l 382 163 q 246 33 317 79 q 122 -14 175 -14 q 57 5 82 -14 q 32 64 32 24 q 37 104 32 82 q 53 154 42 126 l 254 649 q 261 675 261 664 q 243 688 261 688 q 185 665 218 688 q 121 601 153 642 l 89 626 q 198 717 136 685 q 315 750 260 750 m 486 1190 q 528 1180 517 1190 q 542 1150 539 1169 l 564 889 l 532 872 l 435 1068 l 181 872 l 154 889 l 392 1150 q 486 1190 428 1190 z "},"ï":{"ha":472,"x_min":32,"x_max":621,"o":"m 315 750 q 381 733 356 750 q 406 682 406 715 q 383 590 406 643 l 185 113 q 181 94 181 101 q 208 68 181 68 q 229 73 218 68 q 257 90 240 78 q 297 124 274 103 q 354 179 321 146 l 382 163 q 246 33 317 79 q 122 -14 175 -14 q 57 5 82 -14 q 32 64 32 24 q 37 104 32 82 q 53 154 42 126 l 254 649 q 261 675 261 664 q 243 688 261 688 q 185 665 218 688 q 121 601 153 642 l 89 626 q 198 717 136 685 q 315 750 260 750 m 299 1083 q 354 1064 331 1083 q 378 1015 378 1044 q 370 983 378 999 q 349 956 363 968 q 319 936 336 943 q 285 929 303 929 q 228 949 249 929 q 208 1000 208 968 q 235 1058 208 1033 q 299 1083 263 1083 m 542 1083 q 597 1064 574 1083 q 621 1015 621 1044 q 613 983 621 999 q 592 956 606 968 q 563 936 579 943 q 528 929 546 929 q 472 949 492 929 q 451 1000 451 968 q 478 1058 451 1033 q 542 1083 506 1083 z "},"ị":{"ha":472,"x_min":-85,"x_max":515,"o":"m 426 1083 q 489 1061 463 1083 q 515 1007 515 1039 q 506 970 515 988 q 483 940 497 953 q 449 918 468 926 q 411 910 431 910 q 348 931 371 910 q 325 989 325 953 q 356 1056 325 1028 q 426 1083 386 1083 m 315 750 q 381 733 356 750 q 406 682 406 715 q 383 590 406 643 l 185 113 q 181 94 181 101 q 208 68 181 68 q 229 73 218 68 q 257 90 240 78 q 297 124 274 103 q 354 179 321 146 l 382 163 q 246 33 317 79 q 122 -14 175 -14 q 57 5 82 -14 q 32 64 32 24 q 37 104 32 82 q 53 154 42 126 l 254 649 q 261 675 261 664 q 243 688 261 688 q 185 665 218 688 q 121 601 153 642 l 89 626 q 198 717 136 685 q 315 750 260 750 m 17 -182 q 79 -204 53 -182 q 106 -258 106 -226 q 97 -295 106 -278 q 73 -326 88 -312 q 40 -347 58 -339 q 1 -356 21 -356 q -62 -334 -39 -356 q -85 -276 -85 -312 q -54 -210 -85 -237 q 17 -182 -24 -182 z "},"ì":{"ha":472,"x_min":32,"x_max":479,"o":"m 315 750 q 381 733 356 750 q 406 682 406 715 q 383 590 406 643 l 185 113 q 181 94 181 101 q 208 68 181 68 q 229 73 218 68 q 257 90 240 78 q 297 124 274 103 q 354 179 321 146 l 382 163 q 246 33 317 79 q 122 -14 175 -14 q 57 5 82 -14 q 32 64 32 24 q 37 104 32 82 q 53 154 42 126 l 254 649 q 261 675 261 664 q 243 688 261 688 q 185 665 218 688 q 121 601 153 642 l 89 626 q 198 717 136 685 q 315 750 260 750 m 422 883 l 360 1049 q 345 1092 349 1076 q 342 1126 342 1108 q 364 1172 342 1154 q 414 1190 386 1190 q 479 1132 479 1190 q 478 1112 479 1118 q 478 1100 478 1106 l 461 892 l 422 883 z "},"ĳ":{"ha":897,"x_min":32,"x_max":976,"o":"m 426 1083 q 489 1061 463 1083 q 515 1007 515 1039 q 506 970 515 988 q 483 940 497 953 q 449 918 468 926 q 411 910 431 910 q 348 931 371 910 q 325 989 325 953 q 356 1056 325 1028 q 426 1083 386 1083 m 315 750 q 381 733 356 750 q 406 682 406 715 q 383 590 406 643 l 185 113 q 181 94 181 101 q 208 68 181 68 q 229 73 218 68 q 257 90 240 78 q 297 124 274 103 q 354 179 321 146 l 382 163 q 246 33 317 79 q 122 -14 175 -14 q 57 5 82 -14 q 32 64 32 24 q 37 104 32 82 q 53 154 42 126 l 254 649 q 261 675 261 664 q 243 688 261 688 q 185 665 218 688 q 121 601 153 642 l 89 626 q 198 717 136 685 q 315 750 260 750 m 779 750 q 845 733 824 750 q 867 683 867 715 q 832 547 865 646 q 724 282 799 447 l 547 -112 q 415 -293 494 -231 q 231 -356 335 -356 q 114 -326 160 -356 q 68 -249 68 -297 q 132 -183 68 -183 q 182 -203 168 -183 q 204 -245 196 -222 q 225 -287 213 -268 q 271 -307 238 -307 q 312 -294 292 -307 q 353 -250 332 -281 q 399 -168 375 -219 q 454 -39 424 -117 l 607 350 q 662 493 640 438 q 696 583 683 549 q 713 636 708 618 q 718 665 718 654 q 699 683 718 683 q 583 601 649 683 l 554 626 q 663 718 604 686 q 779 750 722 750 m 889 1083 q 951 1060 926 1083 q 976 1003 976 1036 q 946 938 976 967 q 874 910 915 910 q 813 933 835 910 q 790 989 790 956 q 819 1056 790 1028 q 889 1083 849 1083 z "},"ī":{"ha":472,"x_min":32,"x_max":629,"o":"m 315 750 q 381 733 356 750 q 406 682 406 715 q 383 590 406 643 l 185 113 q 181 94 181 101 q 208 68 181 68 q 229 73 218 68 q 257 90 240 78 q 297 124 274 103 q 354 179 321 146 l 382 163 q 246 33 317 79 q 122 -14 175 -14 q 57 5 82 -14 q 32 64 32 24 q 37 104 32 82 q 53 154 42 126 l 254 649 q 261 675 261 664 q 243 688 261 688 q 185 665 218 688 q 121 601 153 642 l 89 626 q 198 717 136 685 q 315 750 260 750 m 192 985 l 231 1083 l 629 1083 l 589 985 l 192 985 z "},"į":{"ha":472,"x_min":-132,"x_max":515,"o":"m 151 -275 q -39 -356 56 -356 q -132 -283 -132 -356 q -67 -153 -132 -225 q 108 -12 -3 -81 q 52 9 72 -10 q 32 64 32 28 q 37 104 32 82 q 53 154 42 126 l 254 649 q 261 675 261 664 q 243 688 261 688 q 185 665 218 688 q 121 601 153 642 l 89 626 q 198 717 136 685 q 315 750 260 750 q 381 733 356 750 q 406 682 406 715 q 383 590 406 643 l 185 113 q 181 94 181 101 q 208 68 181 68 q 229 73 218 68 q 257 90 240 78 q 297 124 274 103 q 354 179 321 146 l 382 163 q 292 69 339 108 q 204 3 244 29 q 51 -129 100 -62 q 3 -239 3 -196 q 54 -279 3 -279 q 93 -273 74 -279 q 144 -250 113 -267 l 151 -275 m 426 1083 q 489 1061 463 1083 q 515 1007 515 1039 q 506 970 515 988 q 483 940 497 953 q 449 918 468 926 q 411 910 431 910 q 348 931 371 910 q 325 989 325 953 q 356 1056 325 1028 q 426 1083 386 1083 z "},"ĩ":{"ha":472,"x_min":32,"x_max":651,"o":"m 315 750 q 381 733 356 750 q 406 682 406 715 q 383 590 406 643 l 185 113 q 181 94 181 101 q 208 68 181 68 q 229 73 218 68 q 257 90 240 78 q 297 124 274 103 q 354 179 321 146 l 382 163 q 246 33 317 79 q 122 -14 175 -14 q 57 5 82 -14 q 32 64 32 24 q 37 104 32 82 q 53 154 42 126 l 254 649 q 261 675 261 664 q 243 688 261 688 q 185 665 218 688 q 121 601 153 642 l 89 626 q 198 717 136 685 q 315 750 260 750 m 175 949 q 242 1063 194 1019 q 340 1107 289 1107 q 388 1099 364 1107 q 437 1083 413 1092 q 485 1066 461 1074 q 532 1058 508 1058 q 618 1111 590 1058 l 651 1111 q 580 993 628 1039 q 481 947 532 947 q 433 956 456 947 q 386 974 410 964 q 340 993 363 985 q 292 1001 317 1001 q 204 949 228 1001 l 175 949 z "},"j":{"ha":425,"x_min":-404,"x_max":504,"o":"m 307 750 q 373 733 351 750 q 394 683 394 715 q 360 547 393 646 q 251 282 326 447 l 75 -112 q -58 -293 22 -231 q -242 -356 -137 -356 q -358 -326 -312 -356 q -404 -249 -404 -297 q -340 -183 -404 -183 q -290 -203 -304 -183 q -268 -245 -276 -222 q -247 -287 -260 -268 q -201 -307 -235 -307 q -160 -294 -181 -307 q -119 -250 -140 -281 q -73 -168 -97 -219 q -18 -39 -49 -117 l 135 350 q 190 493 168 438 q 224 583 211 549 q 241 636 236 618 q 246 665 246 654 q 226 683 246 683 q 111 601 176 683 l 82 626 q 191 718 132 686 q 307 750 250 750 m 417 1083 q 479 1060 454 1083 q 504 1003 504 1036 q 474 938 504 967 q 401 910 443 910 q 340 933 363 910 q 318 989 318 956 q 347 1056 318 1028 q 417 1083 376 1083 z "},"ĵ":{"ha":424,"x_min":-404,"x_max":557,"o":"m 307 750 q 373 733 351 750 q 394 683 394 715 q 360 547 393 646 q 251 282 326 447 l 75 -112 q -58 -293 22 -231 q -242 -356 -137 -356 q -358 -326 -312 -356 q -404 -249 -404 -297 q -340 -183 -404 -183 q -290 -203 -304 -183 q -268 -245 -276 -222 q -247 -287 -260 -268 q -201 -307 -235 -307 q -160 -294 -181 -307 q -119 -250 -140 -281 q -73 -168 -97 -219 q -18 -39 -49 -117 l 135 350 q 190 493 168 438 q 224 583 211 549 q 241 636 236 618 q 246 665 246 654 q 226 683 246 683 q 111 601 176 683 l 82 626 q 191 718 132 686 q 307 750 250 750 m 479 1190 q 521 1180 510 1190 q 535 1150 532 1169 l 557 889 l 525 872 l 428 1068 l 174 872 l 147 889 l 385 1150 q 479 1190 421 1190 z "},"k":{"ha":778,"x_min":-50,"x_max":731,"o":"m 306 1139 l 571 1139 l 357 642 l 363 642 q 470 720 406 690 q 600 750 535 750 q 697 723 664 750 q 731 646 731 696 q 701 563 731 606 q 622 480 672 519 q 506 407 572 440 q 365 353 440 374 l 460 154 q 506 69 489 93 q 546 46 524 46 q 640 111 590 46 l 668 96 q 590 17 640 49 q 488 -14 539 -14 q 400 19 438 -14 q 328 125 363 53 l 232 326 l 221 326 l 89 0 l -50 0 l 413 1101 l 308 1118 l 306 1139 m 410 629 q 319 525 358 585 q 244 372 281 465 q 376 400 314 376 q 487 460 439 424 q 563 542 535 497 q 592 633 592 588 q 539 689 592 689 q 476 674 507 689 q 410 629 444 658 z "},"ķ":{"ha":778,"x_min":-50,"x_max":731,"o":"m 306 1139 l 571 1139 l 357 642 l 363 642 q 470 720 406 690 q 600 750 535 750 q 697 723 664 750 q 731 646 731 696 q 701 563 731 606 q 622 480 672 519 q 506 407 572 440 q 365 353 440 374 l 460 154 q 506 69 489 93 q 546 46 524 46 q 640 111 590 46 l 668 96 q 590 17 640 49 q 488 -14 539 -14 q 400 19 438 -14 q 328 125 363 53 l 232 326 l 221 326 l 89 0 l -50 0 l 413 1101 l 308 1118 l 306 1139 m 410 629 q 319 525 358 585 q 244 372 281 465 q 376 400 314 376 q 487 460 439 424 q 563 542 535 497 q 592 633 592 588 q 539 689 592 689 q 476 674 507 689 q 410 629 444 658 m 164 -207 q 124 -146 124 -196 q 146 -84 124 -107 q 215 -61 168 -61 q 285 -139 285 -61 q 240 -245 285 -192 q 114 -343 196 -299 l 93 -317 q 166 -268 136 -296 q 196 -224 196 -240 q 190 -214 196 -217 q 164 -207 183 -211 z "},"ĸ":{"ha":800,"x_min":-28,"x_max":753,"o":"m 157 736 l 422 736 l 379 642 l 385 642 q 492 720 428 690 q 622 750 557 750 q 719 723 686 750 q 753 646 753 696 q 724 563 753 606 q 644 480 694 519 q 528 407 594 440 q 388 353 463 374 l 482 154 q 528 69 511 93 q 568 46 546 46 q 663 111 613 46 l 690 96 q 612 17 663 49 q 510 -14 561 -14 q 422 19 460 -14 q 350 125 385 53 l 254 326 l 243 326 l 111 0 l -28 0 l 264 699 l 160 715 l 157 736 m 432 629 q 342 525 381 585 q 267 372 303 465 q 399 400 336 376 q 509 460 461 424 q 585 542 557 497 q 614 633 614 588 q 561 689 614 689 q 498 674 529 689 q 432 629 467 658 z "},"l":{"ha":439,"x_min":-1,"x_max":574,"o":"m 299 1139 l 574 1139 l 267 424 q 201 274 226 332 q 163 179 176 215 q 143 124 149 143 q 138 93 138 106 q 147 75 138 82 q 167 68 156 68 q 186 72 175 68 q 215 88 197 76 q 256 122 232 100 q 313 179 279 143 l 343 163 q 199 31 272 76 q 69 -14 126 -14 q 17 9 36 -14 q -1 72 -1 32 q 1 100 -1 85 q 12 140 4 115 q 35 204 19 165 q 74 303 50 243 q 133 447 99 363 q 217 647 168 531 l 407 1101 l 301 1118 l 299 1139 z "},"ĺ":{"ha":439,"x_min":-1,"x_max":765,"o":"m 269 1069 l 544 1069 l 267 424 q 201 274 226 332 q 163 179 176 215 q 143 124 149 143 q 138 93 138 106 q 147 75 138 82 q 167 68 156 68 q 186 72 175 68 q 215 88 197 76 q 256 122 232 100 q 313 179 279 143 l 343 163 q 199 31 272 76 q 69 -14 126 -14 q 17 9 36 -14 q -1 72 -1 32 q 1 100 -1 85 q 12 140 4 115 q 35 204 19 165 q 74 303 50 243 q 133 447 99 363 q 217 647 168 531 l 378 1032 l 272 1049 l 269 1069 m 444 1176 l 644 1325 q 706 1347 675 1347 q 747 1331 729 1347 q 765 1288 765 1314 q 745 1244 765 1264 q 671 1208 725 1224 l 460 1147 l 444 1176 z "},"ľ":{"ha":439,"x_min":-1,"x_max":807,"o":"m 299 1139 l 574 1139 l 267 424 q 201 274 226 332 q 163 179 176 215 q 143 124 149 143 q 138 93 138 106 q 147 75 138 82 q 167 68 156 68 q 186 72 175 68 q 215 88 197 76 q 256 122 232 100 q 313 179 279 143 l 343 163 q 199 31 272 76 q 69 -14 126 -14 q 17 9 36 -14 q -1 72 -1 32 q 1 100 -1 85 q 12 140 4 115 q 35 204 19 165 q 74 303 50 243 q 133 447 99 363 q 217 647 168 531 l 407 1101 l 301 1118 l 299 1139 m 607 892 l 679 1126 q 708 1176 690 1161 q 749 1190 725 1190 q 794 1174 781 1190 q 807 1135 807 1158 q 801 1107 807 1121 q 781 1074 796 1093 l 642 892 l 607 892 z "},"ļ":{"ha":439,"x_min":-114,"x_max":574,"o":"m 299 1139 l 574 1139 l 267 424 q 201 274 226 332 q 163 179 176 215 q 143 124 149 143 q 138 93 138 106 q 147 75 138 82 q 167 68 156 68 q 186 72 175 68 q 215 88 197 76 q 256 122 232 100 q 313 179 279 143 l 343 163 q 199 31 272 76 q 69 -14 126 -14 q 17 9 36 -14 q -1 72 -1 32 q 1 100 -1 85 q 12 140 4 115 q 35 204 19 165 q 74 303 50 243 q 133 447 99 363 q 217 647 168 531 l 407 1101 l 301 1118 l 299 1139 m -43 -221 q -83 -160 -83 -210 q -61 -98 -83 -121 q 8 -75 -39 -75 q 78 -153 78 -75 q 33 -259 78 -206 q -93 -357 -11 -312 l -114 -331 q -41 -282 -71 -310 q -11 -237 -11 -254 q -17 -228 -11 -231 q -43 -221 -24 -225 z "},"ŀ":{"ha":629,"x_min":-1,"x_max":626,"o":"m 299 1139 l 574 1139 l 267 424 q 201 274 226 332 q 163 179 176 215 q 143 124 149 143 q 138 93 138 106 q 147 75 138 82 q 167 68 156 68 q 186 72 175 68 q 215 88 197 76 q 256 122 232 100 q 313 179 279 143 l 343 163 q 199 31 272 76 q 69 -14 126 -14 q 17 9 36 -14 q -1 72 -1 32 q 1 100 -1 85 q 12 140 4 115 q 35 204 19 165 q 74 303 50 243 q 133 447 99 363 q 217 647 168 531 l 407 1101 l 301 1118 l 299 1139 m 522 533 q 595 508 564 533 q 626 443 626 482 q 616 401 626 421 q 588 365 606 381 q 549 339 571 349 q 504 329 526 329 q 430 355 457 329 q 403 422 403 381 q 413 465 403 444 q 439 501 422 486 q 477 524 456 515 q 522 533 499 533 z "},"<":{"ha":818,"x_min":90,"x_max":658,"o":"m 90 431 l 90 501 l 658 772 l 658 688 l 190 474 l 190 468 l 658 251 l 658 161 l 90 431 z "},"¬":{"ha":881,"x_min":129,"x_max":699,"o":"m 628 367 l 129 367 l 129 428 l 699 428 l 699 204 l 628 204 l 628 367 z "},"ł":{"ha":488,"x_min":10,"x_max":615,"o":"m 340 1139 l 615 1139 l 397 631 l 560 708 l 557 640 l 361 547 l 308 424 q 243 274 268 332 q 204 179 218 215 q 185 124 190 143 q 179 93 179 106 q 188 75 179 82 q 208 68 197 68 q 228 72 217 68 q 256 88 239 76 q 297 122 274 100 q 354 179 321 143 l 385 163 q 241 31 314 76 q 111 -14 168 -14 q 59 9 78 -14 q 40 72 40 32 q 45 109 40 88 q 65 172 50 131 q 107 281 79 213 q 181 461 135 350 l 10 381 l 10 447 l 215 544 l 449 1101 l 343 1118 l 340 1139 z "},"m":{"ha":1238,"x_min":-8,"x_max":1140,"o":"m 729 528 q 874 696 804 643 q 1019 749 944 749 q 1140 626 1140 749 q 1133 568 1140 597 q 1107 500 1125 539 l 958 168 q 935 115 942 132 q 929 89 929 97 q 950 68 929 68 q 1017 101 974 68 q 1110 193 1060 135 l 1139 172 q 997 33 1068 81 q 861 -14 926 -14 q 778 58 778 -14 q 790 125 778 86 q 828 219 803 164 l 1001 593 q 1021 660 1021 635 q 1010 690 1021 679 q 979 701 999 701 q 903 669 946 701 q 813 581 860 638 q 721 449 767 525 q 638 288 675 374 l 510 0 l 360 0 l 632 593 q 650 660 650 633 q 638 690 650 679 q 606 701 626 701 q 528 669 572 701 q 438 580 485 638 q 343 443 392 522 q 251 269 294 364 l 126 0 l -8 0 l 258 619 q 274 669 274 654 q 253 688 274 688 q 188 655 228 688 q 107 569 147 622 l 79 592 q 203 708 132 665 q 342 750 275 750 q 408 694 408 750 q 394 628 408 667 q 346 531 379 590 l 353 528 q 503 697 435 646 q 647 749 572 749 q 761 647 761 749 q 724 531 761 593 l 729 528 z "},"¯":{"ha":465,"x_min":14,"x_max":451,"o":"m 14 985 l 53 1083 l 451 1083 l 411 985 l 14 985 z "},"−":{"ha":846,"x_min":158,"x_max":728,"o":"m 158 438 l 158 506 l 728 506 l 728 438 l 158 438 z "},"µ":{"ha":928,"x_min":-132,"x_max":847,"o":"m 33 -139 q 5 -285 31 -235 q -68 -336 -21 -336 q -115 -315 -99 -336 q -132 -256 -132 -293 q -124 -201 -132 -233 q -98 -124 -115 -168 q -52 -21 -81 -79 q 17 114 -24 38 q 81 236 54 186 q 126 322 108 286 q 154 379 143 357 q 172 417 165 401 l 311 736 l 468 736 l 207 143 q 189 76 189 100 q 232 35 189 35 q 307 67 265 35 q 395 156 349 99 q 490 292 442 213 q 583 467 539 371 l 710 736 l 847 736 l 578 117 q 563 65 563 82 q 582 49 563 49 q 646 81 606 49 q 729 167 686 113 l 757 144 q 638 29 700 72 q 526 -14 575 -14 q 469 9 490 -14 q 447 68 447 32 q 490 206 447 119 l 483 208 q 331 41 400 96 q 196 -14 261 -14 q 99 103 99 -14 q 103 154 99 125 l 97 154 q 69 83 81 117 q 51 15 58 49 q 39 -57 43 -19 q 33 -139 35 -94 z "},"×":{"ha":768,"x_min":153,"x_max":649,"o":"m 349 472 l 154 667 l 206 718 l 400 524 l 594 718 l 649 664 l 454 469 l 647 276 l 596 225 l 403 418 l 207 222 l 153 276 l 349 472 z "},"n":{"ha":874,"x_min":-8,"x_max":792,"o":"m 342 750 q 393 737 378 750 q 408 694 408 724 q 394 630 408 667 q 347 531 381 593 l 353 528 q 438 628 397 586 q 515 697 478 671 q 590 736 553 724 q 665 749 626 749 q 792 628 792 749 q 757 500 792 569 l 594 168 q 574 121 582 143 q 567 88 567 99 q 583 68 567 68 q 650 101 607 68 q 746 193 693 133 l 775 172 q 496 -14 626 -14 q 414 60 414 -14 q 427 130 414 89 q 464 219 440 171 l 653 593 q 665 626 660 608 q 671 660 671 644 q 626 701 671 701 q 545 669 590 701 q 451 578 500 636 q 351 442 401 521 q 256 269 300 363 l 126 0 l -8 0 l 258 619 q 274 667 274 657 q 254 688 274 688 q 190 655 231 688 q 107 569 150 622 l 79 592 q 203 708 132 665 q 342 750 275 750 z "},"ń":{"ha":874,"x_min":-8,"x_max":882,"o":"m 342 750 q 393 737 378 750 q 408 694 408 724 q 394 630 408 667 q 347 531 381 593 l 353 528 q 438 628 397 586 q 515 697 478 671 q 590 736 553 724 q 665 749 626 749 q 792 628 792 749 q 757 500 792 569 l 594 168 q 574 121 582 143 q 567 88 567 99 q 583 68 567 68 q 650 101 607 68 q 746 193 693 133 l 775 172 q 496 -14 626 -14 q 414 60 414 -14 q 427 130 414 89 q 464 219 440 171 l 653 593 q 665 626 660 608 q 671 660 671 644 q 626 701 671 701 q 545 669 590 701 q 451 578 500 636 q 351 442 401 521 q 256 269 300 363 l 126 0 l -8 0 l 258 619 q 274 667 274 657 q 254 688 274 688 q 190 655 231 688 q 107 569 150 622 l 79 592 q 203 708 132 665 q 342 750 275 750 m 565 892 l 726 1129 q 814 1190 767 1190 q 863 1174 843 1190 q 882 1132 882 1157 q 866 1090 882 1111 q 813 1042 850 1069 l 588 876 l 565 892 z "},"ŉ":{"ha":1100,"x_min":218,"x_max":1018,"o":"m 568 750 q 619 737 604 750 q 635 694 635 724 q 621 630 635 667 q 574 531 607 593 l 579 528 q 664 628 624 586 q 742 697 704 671 q 816 736 779 724 q 892 749 853 749 q 1018 628 1018 749 q 983 500 1018 569 l 821 168 q 801 121 808 143 q 793 88 793 99 q 810 68 793 68 q 876 101 833 68 q 972 193 919 133 l 1001 172 q 722 -14 853 -14 q 640 60 640 -14 q 653 130 640 89 q 690 219 667 171 l 879 593 q 892 626 886 608 q 897 660 897 644 q 853 701 897 701 q 772 669 817 701 q 677 578 726 636 q 577 442 628 521 q 482 269 526 363 l 353 0 l 218 0 l 485 619 q 500 667 500 657 q 481 688 500 688 q 417 655 457 688 q 333 569 376 622 l 306 592 q 430 708 358 665 q 568 750 501 750 m 358 1044 q 304 1121 304 1057 q 327 1172 304 1153 q 390 1190 350 1190 q 467 1101 467 1190 q 426 983 467 1043 q 311 874 386 924 l 288 900 q 360 965 329 928 q 392 1025 392 1001 q 387 1038 392 1035 q 358 1044 382 1040 z "},"ň":{"ha":874,"x_min":-8,"x_max":943,"o":"m 342 750 q 393 737 378 750 q 408 694 408 724 q 394 630 408 667 q 347 531 381 593 l 353 528 q 438 628 397 586 q 515 697 478 671 q 590 736 553 724 q 665 749 626 749 q 792 628 792 749 q 757 500 792 569 l 594 168 q 574 121 582 143 q 567 88 567 99 q 583 68 567 68 q 650 101 607 68 q 746 193 693 133 l 775 172 q 496 -14 626 -14 q 414 60 414 -14 q 427 130 414 89 q 464 219 440 171 l 653 593 q 665 626 660 608 q 671 660 671 644 q 626 701 671 701 q 545 669 590 701 q 451 578 500 636 q 351 442 401 521 q 256 269 300 363 l 126 0 l -8 0 l 258 619 q 274 667 274 657 q 254 688 274 688 q 190 655 231 688 q 107 569 150 622 l 79 592 q 203 708 132 665 q 342 750 275 750 m 611 872 q 569 883 581 872 q 556 913 558 893 l 533 1174 l 565 1190 l 663 994 l 917 1190 l 943 1174 l 706 913 q 611 872 669 872 z "},"ņ":{"ha":874,"x_min":-8,"x_max":792,"o":"m 342 750 q 393 737 378 750 q 408 694 408 724 q 394 630 408 667 q 347 531 381 593 l 353 528 q 438 628 397 586 q 515 697 478 671 q 590 736 553 724 q 665 749 626 749 q 792 628 792 749 q 757 500 792 569 l 594 168 q 574 121 582 143 q 567 88 567 99 q 583 68 567 68 q 650 101 607 68 q 746 193 693 133 l 775 172 q 496 -14 626 -14 q 414 60 414 -14 q 427 130 414 89 q 464 219 440 171 l 653 593 q 665 626 660 608 q 671 660 671 644 q 626 701 671 701 q 545 669 590 701 q 451 578 500 636 q 351 442 401 521 q 256 269 300 363 l 126 0 l -8 0 l 258 619 q 274 667 274 657 q 254 688 274 688 q 190 655 231 688 q 107 569 150 622 l 79 592 q 203 708 132 665 q 342 750 275 750 m 210 -207 q 169 -146 169 -196 q 192 -84 169 -107 q 261 -61 214 -61 q 331 -139 331 -61 q 286 -245 331 -192 q 160 -343 242 -299 l 139 -317 q 212 -268 182 -296 q 242 -224 242 -240 q 235 -214 242 -217 q 210 -207 229 -211 z "},"ṅ":{"ha":874,"x_min":-8,"x_max":792,"o":"m 342 750 q 393 737 378 750 q 408 694 408 724 q 394 630 408 667 q 347 531 381 593 l 353 528 q 438 628 397 586 q 515 697 478 671 q 590 736 553 724 q 665 749 626 749 q 792 628 792 749 q 757 500 792 569 l 594 168 q 574 121 582 143 q 567 88 567 99 q 583 68 567 68 q 650 101 607 68 q 746 193 693 133 l 775 172 q 496 -14 626 -14 q 414 60 414 -14 q 427 130 414 89 q 464 219 440 171 l 653 593 q 665 626 660 608 q 671 660 671 644 q 626 701 671 701 q 545 669 590 701 q 451 578 500 636 q 351 442 401 521 q 256 269 300 363 l 126 0 l -8 0 l 258 619 q 274 667 274 657 q 254 688 274 688 q 190 655 231 688 q 107 569 150 622 l 79 592 q 203 708 132 665 q 342 750 275 750 m 669 1083 q 732 1061 706 1083 q 758 1007 758 1039 q 749 970 758 988 q 726 940 740 953 q 692 918 711 926 q 654 910 674 910 q 591 931 614 910 q 568 989 568 953 q 599 1056 568 1028 q 669 1083 629 1083 z "},"₉":{"ha":564,"x_min":-69,"x_max":426,"o":"m -69 -181 q 87 -89 13 -150 q 213 51 161 -28 l 208 54 q 100 26 161 26 q -8 63 29 26 q -44 167 -44 99 q -20 285 -44 226 q 46 389 4 343 q 142 463 88 435 q 256 492 196 492 q 378 445 331 492 q 426 308 426 399 q 392 137 426 219 q 295 -15 358 54 q 144 -139 232 -85 q -53 -224 56 -193 l -69 -181 m 257 442 q 198 418 228 442 q 144 357 168 394 q 105 272 119 319 q 90 178 90 225 q 157 88 90 88 q 217 108 189 88 q 267 163 246 128 q 301 244 289 197 q 314 343 314 290 q 257 442 314 442 z "},"⁹":{"ha":565,"x_min":267,"x_max":763,"o":"m 267 611 q 423 703 349 642 q 549 843 497 764 l 544 846 q 436 818 497 818 q 328 854 365 818 q 292 958 292 890 q 316 1076 292 1018 q 382 1181 340 1135 q 478 1255 424 1226 q 592 1283 532 1283 q 715 1237 667 1283 q 763 1100 763 1190 q 728 928 763 1011 q 631 776 694 846 q 480 653 568 707 q 283 568 392 599 l 267 611 m 593 1233 q 534 1210 564 1233 q 480 1149 504 1186 q 441 1064 456 1111 q 426 969 426 1017 q 493 879 426 879 q 553 899 525 879 q 603 954 582 919 q 638 1035 625 989 q 650 1135 650 1082 q 593 1233 650 1233 z "},"ñ":{"ha":874,"x_min":-8,"x_max":878,"o":"m 342 750 q 393 737 378 750 q 408 694 408 724 q 394 630 408 667 q 347 531 381 593 l 353 528 q 438 628 397 586 q 515 697 478 671 q 590 736 553 724 q 665 749 626 749 q 792 628 792 749 q 757 500 792 569 l 594 168 q 574 121 582 143 q 567 88 567 99 q 583 68 567 68 q 650 101 607 68 q 746 193 693 133 l 775 172 q 496 -14 626 -14 q 414 60 414 -14 q 427 130 414 89 q 464 219 440 171 l 653 593 q 665 626 660 608 q 671 660 671 644 q 626 701 671 701 q 545 669 590 701 q 451 578 500 636 q 351 442 401 521 q 256 269 300 363 l 126 0 l -8 0 l 258 619 q 274 667 274 657 q 254 688 274 688 q 190 655 231 688 q 107 569 150 622 l 79 592 q 203 708 132 665 q 342 750 275 750 m 401 949 q 468 1063 421 1019 q 567 1107 515 1107 q 615 1099 590 1107 q 663 1083 639 1092 q 711 1066 688 1074 q 758 1058 735 1058 q 844 1111 817 1058 l 878 1111 q 806 993 854 1039 q 707 947 758 947 q 659 956 682 947 q 613 974 636 964 q 566 993 589 985 q 518 1001 543 1001 q 431 949 454 1001 l 401 949 z "},"#":{"ha":926,"x_min":71,"x_max":965,"o":"m 850 967 l 767 729 l 965 729 l 933 651 l 739 651 l 665 442 l 860 442 l 825 364 l 639 364 l 556 128 l 476 128 l 558 364 l 353 364 l 269 128 l 189 128 l 271 364 l 71 364 l 104 442 l 299 442 l 372 651 l 178 651 l 210 729 l 399 729 l 483 967 l 564 967 l 481 729 l 686 729 l 771 967 l 850 967 m 379 442 l 586 442 l 660 651 l 453 651 l 379 442 z "},"o":{"ha":774,"x_min":18,"x_max":715,"o":"m 224 -14 q 71 47 124 -14 q 18 215 18 108 q 38 340 18 276 q 94 464 58 404 q 176 576 129 524 q 278 667 224 628 q 392 728 333 706 q 508 750 450 750 q 662 689 608 750 q 715 522 715 628 q 671 333 715 428 q 556 160 626 238 q 397 35 485 83 q 224 -14 310 -14 m 525 701 q 445 674 488 701 q 360 603 403 647 q 279 500 318 558 q 210 379 240 442 q 163 253 181 317 q 144 136 144 190 q 159 60 144 86 q 207 35 174 35 q 283 63 242 35 q 368 137 325 90 q 451 244 411 183 q 523 367 492 304 q 573 493 554 431 q 592 607 592 556 q 576 678 592 654 q 525 701 561 701 z "},"ó":{"ha":774,"x_min":18,"x_max":933,"o":"m 617 892 l 778 1129 q 865 1190 818 1190 q 914 1174 894 1190 q 933 1132 933 1157 q 917 1090 933 1111 q 864 1042 901 1069 l 639 876 l 617 892 m 224 -14 q 71 47 124 -14 q 18 215 18 108 q 38 340 18 276 q 94 464 58 404 q 176 576 129 524 q 278 667 224 628 q 392 728 333 706 q 508 750 450 750 q 662 689 608 750 q 715 522 715 628 q 671 333 715 428 q 556 160 626 238 q 397 35 485 83 q 224 -14 310 -14 m 525 701 q 445 674 488 701 q 360 603 403 647 q 279 500 318 558 q 210 379 240 442 q 163 253 181 317 q 144 136 144 190 q 159 60 144 86 q 207 35 174 35 q 283 63 242 35 q 368 137 325 90 q 451 244 411 183 q 523 367 492 304 q 573 493 554 431 q 592 607 592 556 q 576 678 592 654 q 525 701 561 701 z "},"ŏ":{"ha":774,"x_min":18,"x_max":889,"o":"m 224 -14 q 71 47 124 -14 q 18 215 18 108 q 38 340 18 276 q 94 464 58 404 q 176 576 129 524 q 278 667 224 628 q 392 728 333 706 q 508 750 450 750 q 662 689 608 750 q 715 522 715 628 q 671 333 715 428 q 556 160 626 238 q 397 35 485 83 q 224 -14 310 -14 m 525 701 q 445 674 488 701 q 360 603 403 647 q 279 500 318 558 q 210 379 240 442 q 163 253 181 317 q 144 136 144 190 q 159 60 144 86 q 207 35 174 35 q 283 63 242 35 q 368 137 325 90 q 451 244 411 183 q 523 367 492 304 q 573 493 554 431 q 592 607 592 556 q 576 678 592 654 q 525 701 561 701 m 543 1097 q 572 1031 544 1054 q 653 1007 599 1007 q 744 1028 699 1007 q 833 1097 789 1049 l 889 1097 q 804 994 846 1032 q 726 936 763 956 q 659 910 690 917 q 606 904 628 904 q 559 910 582 904 q 519 930 536 917 q 491 965 501 943 q 481 1019 481 988 q 494 1097 481 1054 l 543 1097 z "}}}
